<svg width="16" height="16" viewBox="0 0 16 16" fill="none" xmlns="http://www.w3.org/2000/svg">
<path fill-rule="evenodd" clip-rule="evenodd" d="M6.69374 1.39869C3.78384 1.39869 1.39869 3.81462 1.39869 6.82749C1.39869 9.84036 3.78384 12.2563 6.69374 12.2563C9.60365 12.2563 11.9888 9.84036 11.9888 6.82749C11.9888 3.81462 9.60365 1.39869 6.69374 1.39869ZM0 6.82749C0 3.0714 2.98242 0 6.69374 0C10.4051 0 13.3875 3.0714 13.3875 6.82749C13.3875 8.59433 12.7276 10.2097 11.6423 11.4251L15.1843 15.0181L14.1882 16L10.6073 12.3676C9.50846 13.177 8.15782 13.655 6.69374 13.655C2.98242 13.655 0 10.5836 0 6.82749Z" fill="#080825"/>
</svg>
