<svg width="15" height="16" viewBox="0 0 15 16" fill="none" xmlns="http://www.w3.org/2000/svg">
<path fill-rule="evenodd" clip-rule="evenodd" d="M6.6125 1.39869C3.73791 1.39869 1.38172 3.81462 1.38172 6.82749C1.38172 9.84036 3.73791 12.2563 6.6125 12.2563C9.48708 12.2563 11.8433 9.84036 11.8433 6.82749C11.8433 3.81462 9.48708 1.39869 6.6125 1.39869ZM0 6.82749C0 3.0714 2.94622 0 6.6125 0C10.2788 0 13.225 3.0714 13.225 6.82749C13.225 8.59433 12.5731 10.2097 11.501 11.4251L15 15.0181L14.016 16L10.4786 12.3676C9.39305 13.177 8.0588 13.655 6.6125 13.655C2.94622 13.655 0 10.5836 0 6.82749Z" fill="#787B8E"/>
</svg>
