<svg width="320" height="114" viewBox="0 0 320 114" fill="none" xmlns="http://www.w3.org/2000/svg">
<g clip-path="url(#clip0_718_11740)">
<path d="M129.524 110.68L122.722 119.852L138.028 131.173L144.83 122.002L129.524 110.68Z" fill="#F7F8FC"/>
<path d="M143.97 98.8994L146.856 106.512L159.589 101.745L156.702 94.1324L143.97 98.8994Z" fill="#F7F8FC"/>
<path d="M1.58648 41.4258C-6.98917 46.6529 -15.4685 56.3327 -19.6118 65.5286C-25.5858 78.4028 -23.5623 93.7938 -14.6976 104.829C-5.64019 116.251 11.4148 118.477 18.8341 131.352C21.9175 136.676 21.9175 142.677 19.1232 148.098C18.3524 149.55 16.907 151.002 16.3289 152.454C16.4252 152.163 20.4722 147.904 17.8706 150.614C17.3888 151.098 17.0034 151.582 16.5216 151.97C14.4981 154.099 12.3783 156.229 10.4512 158.455C3.32088 166.489 -4.29121 174.621 -3.71308 186.236C-3.03859 199.014 6.50062 209.855 19.4123 210.823C31.6494 211.791 39.5506 204.725 46.6809 196.013C50.6315 191.173 53.5221 185.268 52.1732 178.88C50.9205 172.588 45.2356 167.264 38.587 167.845C32.1312 168.425 27.6025 173.653 23.6519 178.299C19.3159 183.429 15.3653 188.656 12.3783 194.658C4.5735 210.146 2.35732 227.957 5.72977 244.896C5.34435 243.154 11.8965 239.96 11.5111 238.024C9.00586 225.537 9.584 212.566 13.2455 200.272C15.0763 194.174 17.5815 188.269 20.8576 182.848C21.4357 181.977 26.5426 175.492 32.7093 174.621C37.7198 173.846 42.2485 177.04 44.7538 181.396C46.1028 183.816 46.7773 186.624 46.6809 189.431C46.6809 190.495 47.4517 195.045 44.0793 198.336C43.3085 199.111 42.3449 199.595 41.4777 200.175C39.2615 201.531 36.8526 202.499 34.3474 203.176C29.3369 204.434 23.941 204.338 19.0268 202.692C8.7168 199.304 2.35733 189.237 2.06826 178.783C1.87555 173.749 3.22453 168.909 5.82613 164.65C6.59697 163.489 6.98239 162.908 7.84959 161.94C9.87306 159.714 12.0892 157.584 14.0164 155.358C19.0268 149.647 25.8681 143.161 26.928 135.32C28.5661 123.414 17.3888 116.057 8.42773 111.024C-4.0985 104.054 -14.0231 95.4394 -16.6247 80.6292C-17.781 74.3373 -17.2992 67.9486 -15.1794 61.9471C-12.7705 54.9776 -10.3616 51.9768 -4.19486 48.2985C-1.78596 46.8465 -0.822409 42.8778 1.58648 41.4258Z" fill="#F7F8FC"/>
<path d="M202.611 19.0286C205.076 17.6567 207.712 16.4564 210.406 15.599C209.89 18.114 209.661 20.6862 209.775 23.144C210.005 27.8882 211.953 32.6895 215.793 35.719C219.805 38.8627 225.593 39.6629 230.006 36.6907C233.445 34.3472 234.19 30.689 234.993 26.9165C235.852 22.9154 235.566 18.9714 233.044 15.599C228.172 9.08291 220.493 8.45416 213.214 10.3404C214.188 8.62564 215.335 7.02519 216.538 5.4819C220.665 0.394753 225.88 -3.94933 231.726 -6.80727C237.973 -9.89386 245.137 -11.037 251.957 -9.26511C252.645 -9.09363 253.332 -8.865 254.077 -8.57921C254.135 -5.54978 254.479 -2.57752 255.396 0.280427C256.37 3.48133 259.751 10.8548 264.164 7.08234C266.056 5.4819 266.629 1.36645 266.858 -0.977066C267.316 -5.83558 262.388 -10.0082 258.548 -12.0659C257.459 -12.6375 256.313 -13.1519 255.166 -13.552C255.166 -14.1808 255.166 -14.7524 255.166 -15.3811C255.224 -16.1242 255.281 -16.8673 255.338 -17.6103C255.396 -17.8961 255.396 -18.1819 255.453 -18.5249C256.026 -20.1825 256.542 -21.8401 257.344 -23.4977C259.923 -28.8706 264.508 -32.6431 265.769 -38.5876C266.227 -40.5882 266.915 -42.8174 266.571 -44.9323C266.056 -47.9046 263.247 -50.0766 260.21 -49.1049C259.35 -48.8191 259.923 -44.3607 259.121 -44.1321C261.184 -44.818 263.305 -44.0177 264.565 -42.2458C265.31 -41.1598 265.597 -39.2164 264.451 -37.5588C261.471 -33.1575 258.376 -29.3851 256.714 -24.2408C255.625 -20.8684 254.765 -17.3817 254.364 -13.7807C251.269 -14.8095 247.945 -15.2096 244.678 -14.981C234.133 -14.3523 224.504 -7.72181 217.914 0.223278C215.449 3.2527 213.329 6.85371 211.896 10.7405C207.941 11.8837 204.159 13.7699 201.064 15.7133C191.321 21.8294 183.698 30.9176 179.171 41.492C178.483 43.0353 178.77 44.9216 178.082 46.4649C182.953 34.8616 191.608 25.0874 202.611 19.0286ZM265.482 1.65225C264.222 3.02406 262.388 3.53849 260.496 2.28099C257.975 0.623383 256.886 -2.86331 256.141 -5.60694C255.911 -6.40717 255.739 -7.20739 255.625 -8.00762C259.923 -6.06421 264.451 -2.69183 265.482 1.65225ZM221.696 14.6845C227.599 15.7705 233.044 19.7145 234.19 25.8305C234.362 26.6307 234.649 28.8599 232.127 30.9748C229.72 32.9753 226.51 33.947 223.358 33.6041C217.054 32.8039 212.584 27.5452 211.265 21.6007C210.922 20.0574 210.807 18.5141 210.807 16.9708C210.807 16.5136 210.807 16.0563 210.864 15.5419C210.864 15.5419 210.864 15.5419 210.864 15.4847C214.418 14.4558 218.028 13.9986 221.696 14.6845Z" fill="#F7F8FC"/>
<path d="M29.238 20.46C24.3763 28.1243 22.5531 37.3702 21.3377 46.2511C19.7576 57.9302 23.7686 69.4875 32.3982 77.3952C42.4863 86.6411 54.3976 86.7627 67.4028 87.2494C78.4633 87.6143 94.1424 92.3589 93.0485 106.228C93.2916 102.7 94.8717 99.1717 95.1148 95.6437C95.844 85.9111 87.0929 79.4633 78.4633 77.5168C67.889 75.2054 56.8285 77.8818 46.3757 73.9888C38.2323 70.9474 31.1827 64.7429 27.0503 57.0786C24.6194 52.5773 23.4039 47.5894 23.1609 42.6014C23.0393 41.2632 23.0393 40.0467 23.1609 38.7084C22.6747 40.4116 22.9178 40.1683 23.5255 37.9785C24.7409 35.667 25.7133 33.3555 27.1718 31.1657C28.995 28.246 27.4149 23.2581 29.238 20.46Z" fill="#F7F8FC"/>
<path d="M46.6188 74.2321C46.4973 74.2321 46.4973 74.2321 46.3757 74.1105C38.2323 71.069 31.1827 64.8646 27.0503 57.2002C24.6194 52.6989 23.404 47.711 23.1609 42.7231C23.1609 41.6282 23.1609 40.5333 23.1609 39.3167C23.2824 38.9517 23.404 38.5868 23.647 37.9785C24.8625 35.667 25.8348 33.3555 27.2934 31.1657C29.1165 28.3676 27.5364 23.3797 29.3596 20.5816C24.4978 28.246 22.6747 37.4919 21.4592 46.3728C19.8792 58.0518 23.8901 69.6092 32.5197 77.5168C37.9892 82.5047 43.9448 84.8162 50.3867 86.0328L46.6188 74.2321Z" fill="#F7F8FC"/>
<path d="M222.691 114C218.934 114 215.132 113.487 211.285 112.461C207.528 111.521 204.352 109.811 201.757 107.332C199.252 104.938 198 101.561 198 97.2008C198 94.465 198.492 91.7293 199.476 88.9935C200.46 86.2578 201.668 83.693 203.099 81.2992C204.262 79.2474 204.986 83.864 204.986 83.864C204.986 83.864 203.099 90.0194 203.099 93.6101C203.099 97.7137 204.262 100.92 206.588 103.228C209.004 105.622 212.001 107.289 215.579 108.229C219.247 109.17 222.87 109.64 226.449 109.64C230.296 109.64 234.456 109.17 238.929 108.229C243.491 107.289 247.964 105.878 252.348 103.997C256.821 102.117 260.847 99.8083 264.425 97.0725C268.004 94.3368 270.866 91.1736 273.014 87.5829C275.25 83.9922 276.368 80.0168 276.368 75.6567C276.368 73.1775 275.608 70.9974 274.087 69.1166C272.566 67.2358 270.553 65.5259 268.048 63.987C265.633 62.4482 263.083 60.9093 260.399 59.3705C257.716 57.8316 255.121 56.2072 252.616 54.4974C250.201 52.7876 248.233 50.864 246.712 48.7267C245.191 46.5894 244.431 44.0674 244.431 41.1606C244.431 37.8264 245.459 34.6205 247.517 31.5427C249.575 28.3795 252.214 25.5583 255.434 23.079C258.744 20.5997 262.233 18.6334 265.901 17.18C269.659 15.7267 273.192 15 276.503 15C278.829 15 280.886 15.513 282.675 16.5389C284.465 17.4793 285.359 19.2319 285.359 21.7966C285.359 22.8225 285.225 23.9339 284.957 25.1308L285.225 25.3873C285.493 25.1308 285.985 24.5324 286.701 23.592C287.506 22.5661 288.267 21.6256 288.982 20.7707C289.788 19.9158 290.28 19.4883 290.459 19.4883C290.727 19.4883 290.861 19.6166 290.861 19.8731C290.861 19.9585 290.816 20.0013 290.727 20.0013C289.117 22.1386 287.909 24.2332 287.104 26.285C286.299 28.2513 285.538 30.5168 284.822 33.0816C284.822 33.2526 284.688 33.3381 284.42 33.3381C284.062 33.3381 283.57 33.1671 282.944 32.8251C282.407 32.4832 282.139 32.1412 282.139 31.7992C282.139 30.6023 282.318 29.4482 282.675 28.3368C283.123 27.2254 283.346 26.114 283.346 25.0026C283.346 23.6347 282.854 22.6088 281.87 21.9249C280.976 21.2409 279.857 20.8135 278.515 20.6425C277.263 20.386 276.055 20.2578 274.892 20.2578C272.566 20.2578 269.972 20.6425 267.109 21.4119C264.336 22.1813 261.652 23.2927 259.058 24.7461C256.463 26.1995 254.316 27.9948 252.616 30.1321C250.917 32.1839 250.067 34.4922 250.067 37.057C250.067 39.1943 250.782 41.0751 252.214 42.6995C253.645 44.3238 255.345 45.7345 257.313 46.9313C259.281 48.0427 261.115 49.0686 262.815 50.0091C265.499 51.3769 268.317 53.044 271.269 55.0104C274.311 56.9767 276.86 59.2422 278.918 61.807C281.065 64.3718 282.139 67.3212 282.139 70.6554C282.139 76.0415 280.886 81 278.381 85.5311C275.876 89.9767 272.521 93.9948 268.317 97.5855C264.112 101.091 259.415 104.04 254.227 106.434C249.038 108.913 243.715 110.794 238.258 112.076C232.801 113.359 227.612 114 222.691 114Z" fill="#F7F8FC"/>
<path d="M310.191 47.5725C309.475 47.5725 308.357 47.3161 306.836 46.8031C305.405 46.2047 304.689 45.478 304.689 44.6231C304.689 44.5376 304.689 44.4948 304.689 44.4948C304.779 44.4093 304.823 44.3238 304.823 44.2383C305.271 43.3834 306.255 42.8705 307.776 42.6995C309.386 42.5285 310.594 42.272 311.399 41.93C313.188 41.2461 314.933 40.6904 316.632 40.263C318.332 39.8355 319.942 39.0661 321.463 37.9547C321.821 38.1256 322 38.2966 322 38.4676C322 38.8096 321.597 39.2798 320.792 39.8782C320.077 40.4767 319.585 40.9896 319.316 41.4171C318.958 41.93 318.153 42.6995 316.901 43.7254C315.738 44.6658 314.485 45.5635 313.143 46.4184C311.801 47.1878 310.817 47.5725 310.191 47.5725ZM287.513 103.1C286.081 103.1 285.097 102.758 284.56 102.074C284.024 101.39 283.755 100.407 283.755 99.1243C283.755 96.3031 284.337 92.8834 285.5 88.8653C286.752 84.8472 288.139 80.7863 289.66 76.6826C291.18 72.4935 292.388 68.7746 293.283 65.5259C293.641 64.329 294.491 63.5168 295.832 63.0894C297.264 62.5764 298.472 61.978 299.456 61.294C300.887 60.3536 302.408 59.5842 304.018 58.9858C305.629 58.3018 307.328 57.9598 309.118 57.9598C309.565 57.9598 309.833 58.0453 309.923 58.2163C310.102 58.3873 310.191 58.5155 310.191 58.601C310.191 59.114 309.878 59.3705 309.252 59.3705C307.999 59.3705 306.702 60.0971 305.36 61.5505C304.018 62.9184 302.676 64.7137 301.334 66.9365C299.992 69.1593 298.785 71.4676 297.711 73.8614C296.638 76.2552 295.698 78.478 294.893 80.5298C294.088 82.4961 293.551 83.9495 293.283 84.8899C292.836 86.2578 292.388 87.8821 291.941 89.763C291.494 91.5583 291.27 93.2254 291.27 94.7643C291.27 95.3627 291.359 96.0894 291.538 96.9443C291.717 97.7137 292.254 98.0984 293.149 98.0984C293.775 98.0984 294.446 97.8847 295.162 97.4573C297.13 96.3459 299.053 94.8497 300.932 92.9689C302.9 91.0026 304.689 88.908 306.299 86.6852C307.999 84.3769 309.341 82.2824 310.325 80.4016C310.504 80.487 310.594 80.658 310.594 80.9145C310.594 81.4275 310.281 82.1969 309.654 83.2228C309.028 84.1632 308.312 85.1891 307.507 86.3005C306.702 87.4119 305.942 88.3951 305.226 89.25C304.6 90.1049 304.287 90.6179 304.287 90.7889C304.197 91.4728 304.063 91.9858 303.884 92.3277C303.705 92.5842 303.437 93.0544 303.079 93.7383C302.005 94.7643 300.574 96.0466 298.785 97.5855C296.995 99.0389 295.117 100.321 293.149 101.433C291.18 102.544 289.302 103.1 287.513 103.1Z" fill="#F7F8FC"/>
</g>
<defs>
<clipPath id="clip0_718_11740">
<rect width="320" height="114" fill="white"/>
</clipPath>
</defs>
</svg>
