<svg width="1385" height="490" viewBox="0 0 1385 490" fill="none" xmlns="http://www.w3.org/2000/svg">
<g clip-path="url(#clip0_718_9060)">
<path d="M210.86 189L196 209.104L229.438 233.921L244.298 213.817L210.86 189Z" fill="#F7F8FC"/>
<path d="M744.862 224.551L751.168 241.237L778.982 230.788L772.676 214.102L744.862 224.551Z" fill="#F7F8FC"/>
<path d="M1244 -6.34997C1272.22 -1.78752 1304.97 3.96514 1323.71 27.7692C1344.43 54.1521 1338.32 91.2468 1325.49 119.613C1310.69 152.344 1286.82 180.909 1278.53 216.615C1270.83 249.742 1281.69 281.283 1308.13 302.508C1339.5 327.701 1381.53 330.081 1419.81 324.527C1421.78 324.329 1426.12 316.989 1427.5 315.402C1428.69 313.815 1433.03 306.476 1435 306.079C1400.67 311.038 1363.38 309.848 1332.99 290.805C1305.76 273.745 1288.4 244.585 1291.55 211.656C1295.1 174.958 1318.19 145.004 1334.76 113.464C1349.56 85.2958 1360.81 49.788 1345.62 19.2394C1329.63 -12.6977 1291.16 -20.0373 1259.59 -24.9965C1258.4 -25.1949 1252.88 -16.8634 1251.89 -15.8716C1250.51 -14.483 1244.99 -6.15161 1244 -6.34997Z" fill="#F7F8FC"/>
<path d="M1291.16 213.044C1291.16 212.648 1291.16 212.251 1291.16 211.854C1294.71 175.156 1317.8 145.203 1334.37 113.662C1345.81 92.0403 1354.89 66.0542 1351.73 41.4566L1337.13 67.046C1337.72 85.0975 1332.59 103.744 1325.29 119.613C1310.49 152.344 1286.62 180.909 1278.33 216.615C1277.94 218.599 1277.54 220.384 1277.15 222.368L1291.16 213.044Z" fill="#F7F8FC"/>
<path d="M18.7571 -182C0.0232773 -170.542 -18.5001 -149.324 -27.5513 -129.167C-40.6019 -100.948 -36.1815 -67.2112 -16.8162 -43.0228C2.97018 -17.9857 40.2274 -13.1056 56.4354 15.1142C63.1712 26.784 63.1712 39.9391 57.0669 51.8211C55.3829 55.0038 52.2255 58.1865 50.9626 61.3692C51.1731 60.7326 60.0138 51.3968 54.3305 57.3378C53.278 58.3987 52.436 59.4595 51.3836 60.3083C46.9632 64.9762 42.3324 69.6441 38.1225 74.5243C22.546 92.1351 5.91708 109.958 7.18004 135.42C8.65349 163.427 29.4923 187.191 57.6983 189.313C84.4309 191.435 101.691 175.946 117.268 156.85C125.898 146.241 132.213 133.298 129.266 119.294C126.53 105.502 114.11 93.8326 99.5864 95.1056C85.4834 96.3787 75.5902 107.836 66.96 118.021C57.4879 129.266 48.8576 140.724 42.3324 153.879C25.2824 187.828 20.4411 226.869 27.8083 264C26.9664 260.181 41.2799 253.179 40.4379 248.935C34.9651 221.564 36.2281 193.132 44.2268 166.186C48.2262 152.818 53.699 139.875 60.8557 127.993C62.1187 126.084 73.2748 111.868 86.7464 109.958C97.692 108.261 107.585 115.263 113.058 124.811C116.005 130.115 117.478 136.268 117.268 142.421C117.268 144.755 118.952 154.728 111.585 161.942C109.901 163.639 107.796 164.7 105.901 165.973C101.06 168.944 95.7976 171.066 90.3247 172.551C79.3791 175.309 67.5915 175.097 56.8564 171.49C34.3336 164.064 20.4411 141.997 19.8096 119.082C19.3886 108.049 22.3355 97.4396 28.0188 88.1037C29.7028 85.5576 30.5448 84.2845 32.4392 82.1627C36.8595 77.2826 41.7009 72.6146 45.9107 67.7345C56.8564 55.216 71.8014 41 74.1168 23.8135C77.6952 -2.2845 53.278 -18.4101 33.7021 -29.4434C6.33807 -44.7203 -15.3427 -63.6042 -21.026 -96.0676C-23.5519 -109.859 -22.4995 -123.863 -17.8686 -137.018C-12.6063 -152.295 -7.34398 -158.873 6.12757 -166.935C11.3899 -170.118 13.4948 -178.817 18.7571 -182Z" fill="#F7F8FC"/>
<path d="M785.586 53.8607C790.969 50.8537 796.728 48.2226 802.613 46.3432C801.486 51.856 800.985 57.4941 801.236 62.8816C801.736 73.2807 805.993 83.805 814.382 90.4454C823.146 97.3364 835.791 99.0905 845.431 92.5754C852.943 87.4385 854.571 79.4199 856.324 71.1507C858.202 62.3804 857.576 53.7354 852.067 46.3432C841.425 32.0601 824.648 30.6819 808.748 34.8165C810.876 31.0578 813.38 27.5497 816.009 24.1668C825.024 13.016 836.417 3.49393 849.187 -2.77058C862.834 -9.53626 878.484 -12.0421 893.383 -8.15807C894.885 -7.7822 896.388 -7.28104 898.015 -6.65459C898.141 -0.0142035 898.892 6.5009 900.895 12.7654C903.023 19.7817 910.41 35.9441 920.051 27.675C924.182 24.1668 925.434 15.1459 925.935 10.009C926.937 -0.640656 916.169 -9.78684 907.781 -14.2973C905.402 -15.5502 902.898 -16.6778 900.394 -17.5549C900.394 -18.933 900.394 -20.1859 900.394 -21.5641C900.519 -23.1929 900.645 -24.8217 900.77 -26.4505C900.895 -27.0769 900.895 -27.7034 901.02 -28.4551C902.272 -32.0885 903.399 -35.7219 905.152 -39.3554C910.786 -51.1327 920.802 -59.4018 923.556 -72.432C924.558 -76.8172 926.06 -81.7035 925.309 -86.3392C924.182 -92.8544 918.047 -97.6154 911.412 -95.4854C909.534 -94.859 910.786 -85.0863 909.033 -84.5852C913.54 -86.0887 918.173 -84.3346 920.927 -80.4506C922.555 -78.0701 923.181 -73.8102 920.677 -70.1768C914.166 -60.5294 907.405 -52.2603 903.775 -40.9841C901.396 -33.592 899.518 -25.9493 898.641 -18.056C891.881 -20.3112 884.619 -21.1883 877.482 -20.6871C854.446 -19.3089 833.412 -4.77522 819.014 12.6401C813.63 19.2805 808.998 27.1738 805.868 35.6936C797.229 38.1994 788.966 42.3339 782.205 46.5938C760.921 59.9999 744.27 79.921 734.379 103.1C732.876 106.483 733.502 110.617 732 114C742.642 88.5661 761.547 67.1414 785.586 53.8607ZM922.93 15.7724C920.176 18.7794 916.169 19.907 912.038 17.1506C906.529 13.5172 904.15 5.87444 902.523 -0.139501C902.022 -1.89357 901.646 -3.64763 901.396 -5.40169C910.786 -1.14182 920.677 6.25032 922.93 15.7724ZM827.277 44.3386C840.173 46.7191 852.067 55.3641 854.571 68.7702C854.946 70.5243 855.572 75.4106 850.064 80.0463C844.805 84.4315 837.794 86.5614 830.908 85.8097C817.136 84.0556 807.37 72.5289 804.491 59.4987C803.74 56.1159 803.489 52.733 803.489 49.3502C803.489 48.3479 803.489 47.3456 803.614 46.2179C803.614 46.2179 803.614 46.2179 803.614 46.0926C811.377 43.8374 819.264 42.8351 827.277 44.3386Z" fill="#F7F8FC"/>
<path d="M287.996 57C277.376 73.8 273.393 94.0667 270.738 113.533C267.286 139.133 276.048 164.467 294.9 181.8C316.938 202.067 342.958 202.333 371.369 203.4C395.531 204.2 429.783 214.6 427.393 245C427.924 237.267 431.376 229.533 431.907 221.8C433.5 200.467 414.383 186.333 395.531 182.067C372.431 177 348.269 182.867 325.434 174.333C307.645 167.667 292.245 154.067 283.217 137.267C277.907 127.4 275.252 116.467 274.72 105.533C274.455 102.6 274.455 99.9333 274.72 97C273.658 100.733 274.189 100.2 275.517 95.4C278.172 90.3333 280.296 85.2667 283.483 80.4667C287.465 74.0667 284.014 63.1333 287.996 57Z" fill="#F7F8FC"/>
<path d="M325.965 174.867C325.7 174.867 325.7 174.867 325.434 174.6C307.645 167.933 292.245 154.333 283.217 137.533C277.907 127.667 275.252 116.733 274.72 105.8C274.72 103.4 274.72 101 274.72 98.3333C274.986 97.5333 275.252 96.7333 275.783 95.4C278.438 90.3333 280.562 85.2666 283.748 80.4666C287.731 74.3333 284.279 63.4 288.262 57.2667C277.641 74.0666 273.658 94.3333 271.003 113.8C267.552 139.4 276.314 164.733 295.165 182.067C307.114 193 320.124 198.067 334.196 200.733L325.965 174.867Z" fill="#F7F8FC"/>
<path d="M879.744 466C863.957 466 847.982 463.813 831.819 459.44C816.032 455.432 802.688 448.143 791.787 437.575C781.262 427.371 776 412.977 776 394.391C776 382.73 778.067 371.068 782.202 359.407C786.337 347.745 791.411 336.813 797.425 326.609C802.312 317.863 805.351 337.541 805.351 337.541C805.351 337.541 797.425 363.78 797.425 379.085C797.425 396.578 802.312 410.243 812.085 420.083C822.234 430.287 834.826 437.393 849.861 441.402C865.272 445.41 880.495 447.414 895.531 447.414C911.694 447.414 929.172 445.41 947.966 441.402C967.136 437.393 985.931 431.38 1004.35 423.363C1023.14 415.345 1040.06 405.506 1055.09 393.845C1070.13 382.183 1082.16 368.699 1091.18 353.394C1100.57 338.088 1105.27 321.142 1105.27 302.557C1105.27 291.989 1102.08 282.696 1095.69 274.679C1089.3 266.661 1080.84 259.373 1070.32 252.813C1060.17 246.254 1049.45 239.694 1038.18 233.135C1026.9 226.575 1016 219.651 1005.48 212.363C995.328 205.074 987.058 196.875 980.668 187.764C974.278 178.654 971.083 167.903 971.083 155.513C971.083 141.301 975.406 127.635 984.051 114.516C992.696 101.032 1003.79 89.006 1017.32 78.4378C1031.22 67.8696 1045.88 59.4879 1061.3 53.2927C1077.08 47.0976 1091.93 44 1105.84 44C1115.61 44 1124.26 46.1865 1131.77 50.5596C1139.29 54.5682 1143.05 62.0389 1143.05 72.9715C1143.05 77.3446 1142.49 82.082 1141.36 87.1839L1142.49 88.2772C1143.61 87.1839 1145.68 84.633 1148.69 80.6243C1152.07 76.2513 1155.27 72.2427 1158.27 68.5984C1161.66 64.9542 1163.72 63.1321 1164.47 63.1321C1165.6 63.1321 1166.17 63.6787 1166.17 64.772C1166.17 65.1364 1165.98 65.3186 1165.6 65.3186C1158.84 74.4292 1153.76 83.3575 1150.38 92.1036C1147 100.485 1143.8 110.142 1140.79 121.075C1140.79 121.804 1140.23 122.168 1139.1 122.168C1137.6 122.168 1135.53 121.44 1132.9 119.982C1130.65 118.524 1129.52 117.066 1129.52 115.609C1129.52 110.507 1130.27 105.587 1131.77 100.85C1133.65 96.1122 1134.59 91.3748 1134.59 86.6373C1134.59 80.8066 1132.52 76.4335 1128.39 73.5181C1124.63 70.6028 1119.93 68.7807 1114.29 68.0518C1109.03 66.9585 1103.96 66.4119 1099.07 66.4119C1089.3 66.4119 1078.4 68.0518 1066.37 71.3316C1054.72 74.6114 1043.44 79.3489 1032.54 85.544C1021.64 91.7392 1012.62 99.3921 1005.48 108.503C998.335 117.249 994.764 127.088 994.764 138.021C994.764 147.131 997.771 155.149 1003.78 162.073C1009.8 168.997 1016.94 175.009 1025.21 180.111C1033.48 184.849 1041.19 189.222 1048.33 193.231C1059.6 199.061 1071.44 206.167 1083.85 214.549C1096.63 222.931 1107.34 232.588 1115.99 243.521C1125.01 254.453 1129.52 267.026 1129.52 281.238C1129.52 304.197 1124.26 325.333 1113.73 344.648C1103.21 363.598 1089.11 380.725 1071.44 396.031C1053.78 410.972 1034.04 423.545 1012.24 433.749C990.441 444.317 968.076 452.334 945.147 457.801C922.218 463.267 900.417 466 879.744 466Z" fill="#F7F8FC"/>
<path d="M1247.38 182.845C1244.38 182.845 1239.68 181.751 1233.29 179.565C1227.27 177.014 1224.27 173.916 1224.27 170.272C1224.27 169.908 1224.27 169.725 1224.27 169.725C1224.64 169.361 1224.83 168.997 1224.83 168.632C1226.71 164.988 1230.84 162.801 1237.23 162.073C1244 161.344 1249.07 160.25 1252.46 158.793C1259.98 155.877 1267.31 153.509 1274.45 151.687C1281.59 149.864 1288.35 146.585 1294.74 141.847C1296.25 142.576 1297 143.305 1297 144.034C1297 145.491 1295.31 147.496 1291.93 150.047C1288.92 152.598 1286.85 154.784 1285.72 156.606C1284.22 158.793 1280.84 162.073 1275.57 166.446C1270.69 170.454 1265.43 174.281 1259.79 177.925C1254.15 181.205 1250.01 182.845 1247.38 182.845ZM1152.1 419.536C1146.08 419.536 1141.95 418.079 1139.69 415.163C1137.44 412.248 1136.31 408.057 1136.31 402.591C1136.31 390.565 1138.75 375.988 1143.64 358.86C1148.9 341.732 1154.73 324.422 1161.12 306.93C1167.51 289.073 1172.58 273.221 1176.34 259.373C1177.85 254.271 1181.42 250.809 1187.05 248.987C1193.07 246.8 1198.14 244.25 1202.28 241.334C1208.29 237.326 1214.68 234.046 1221.45 231.495C1228.21 228.579 1235.36 227.122 1242.87 227.122C1244.75 227.122 1245.88 227.486 1246.26 228.215C1247.01 228.944 1247.38 229.49 1247.38 229.855C1247.38 232.041 1246.07 233.135 1243.44 233.135C1238.17 233.135 1232.72 236.232 1227.09 242.427C1221.45 248.258 1215.81 255.911 1210.17 265.386C1204.53 274.861 1199.46 284.7 1194.95 294.904C1190.44 305.108 1186.49 314.583 1183.11 323.329C1179.72 331.711 1177.47 337.906 1176.34 341.915C1174.46 347.745 1172.58 354.669 1170.7 362.687C1168.82 370.339 1167.88 377.446 1167.88 384.005C1167.88 386.556 1168.26 389.654 1169.01 393.298C1169.76 396.578 1172.02 398.218 1175.78 398.218C1178.41 398.218 1181.23 397.307 1184.24 395.484C1192.5 390.747 1200.59 384.37 1208.48 376.352C1216.75 367.971 1224.27 359.042 1231.03 349.567C1238.17 339.728 1243.81 330.8 1247.95 322.782C1248.7 323.147 1249.07 323.876 1249.07 324.969C1249.07 327.155 1247.76 330.435 1245.13 334.808C1242.5 338.817 1239.49 343.19 1236.11 347.927C1232.72 352.665 1229.53 356.856 1226.52 360.5C1223.89 364.144 1222.58 366.331 1222.58 367.06C1222.2 369.975 1221.64 372.161 1220.88 373.619C1220.13 374.712 1219 376.717 1217.5 379.632C1212.99 384.005 1206.98 389.471 1199.46 396.031C1191.94 402.226 1184.05 407.693 1175.78 412.43C1167.51 417.168 1159.61 419.536 1152.1 419.536Z" fill="#F7F8FC"/>
</g>
<defs>
<clipPath id="clip0_718_9060">
<rect width="1385" height="491" fill="white" transform="translate(0 -1)"/>
</clipPath>
</defs>
</svg>
