<svg width="1921" height="365" viewBox="0 0 1921 365" fill="none" xmlns="http://www.w3.org/2000/svg">
<g clip-path="url(#clip0_1910_86)">
<path d="M1238.88 217.186C1254.17 198.767 1257.09 173.256 1256.39 150.158C1256.03 137.879 1253.72 125.726 1253.47 113.447C1253.2 107.341 1254.04 101.236 1255.95 95.4305C1256.22 94.6259 1256.54 93.8426 1256.88 93.0593C1296.37 71.1895 1348.52 95.1764 1384.79 63.4196C1395.89 53.7602 1406.11 43.1328 1415.32 31.6629C1423.83 20.8985 1429.64 8.25233 1432.26 -5.21722C1437.47 -31.8717 1430.44 -59.246 1418.22 -83C1418.5 -82.4919 1408.29 -72.9649 1407.38 -72.0334C1406.47 -71.1018 1396.25 -61.8289 1396.8 -60.8338C1407.53 -39.9379 1414.22 -16.5226 1412.19 7.14673C1411.19 19.3209 1407.66 31.1531 1401.84 41.8886C1400.99 43.4553 1400.06 45.0008 1399.1 46.5039C1396.5 48.3681 1393.73 50.0044 1390.85 51.3945C1369.33 61.599 1344.77 59.3125 1321.67 60.3287C1309.3 60.6067 1297.06 63.013 1285.51 67.4422C1274.09 72.0998 1266.02 79.5733 1257.58 88.2534C1248.81 97.2512 1238.18 106.122 1234.29 118.465C1230.43 130.299 1232.65 142.96 1233.9 155.027C1236.38 178.527 1236.49 204.462 1225.92 226.183C1225.39 227.242 1224.84 228.301 1224.27 229.338C1222.48 230.483 1220.61 231.501 1218.68 232.387C1209.6 236.187 1199.96 238.496 1190.14 239.225C1169.62 241.342 1148.49 239.606 1128.48 245.428C1118.12 248.432 1108.61 253.844 1100.74 261.222C1099.11 262.746 1097.46 264.292 1095.83 265.858C1095.4 266.197 1094.58 266.98 1093.52 267.975C1085.36 275.566 1077.83 283.808 1071.01 292.619C1064.11 301.662 1059.41 312.189 1057.29 323.364C1055.16 334.539 1055.67 346.056 1058.77 357C1058.46 355.963 1068.53 347.134 1069.61 346.012C1070.69 344.89 1080.75 336.485 1080.2 334.834C1077.41 325.107 1076.69 314.904 1078.08 304.881C1079.47 294.858 1082.94 285.236 1088.27 276.634C1088.44 276.359 1088.63 276.084 1088.8 275.787C1090.2 274.856 1091.61 273.967 1093.03 273.141C1101.96 268.52 1111.67 265.578 1121.66 264.461C1142.07 261.666 1163.06 263.635 1183.23 259.02C1193.1 256.956 1202.34 252.605 1210.21 246.317C1220.64 237.505 1230.24 227.754 1238.88 217.186ZM1258.25 90.1588C1258.51 89.6719 1258.78 89.1638 1259.08 88.6768C1259.78 87.4701 1260.71 86.3692 1261.39 85.1624C1260.41 86.8821 1259.34 88.5498 1258.19 90.1588H1258.25ZM1250.5 97.103C1252.11 95.9385 1253.74 94.9858 1255.4 93.9273C1248.15 102.459 1243.35 102.099 1250.44 97.0394L1250.5 97.103ZM1223.61 230.481C1222.96 231.624 1222.28 232.768 1221.5 233.869C1220.71 234.97 1219.91 236.219 1219.04 237.341C1213.68 244.242 1211.63 240.22 1223.55 230.354L1223.61 230.481Z" fill="#F7F8FC"/>
<path d="M652.262 47.6647C662.309 55.9961 676.224 57.5885 688.823 57.2077C695.521 57.0116 702.149 55.7538 708.847 55.6153C712.178 55.4668 715.507 55.9243 718.674 56.9654C719.113 57.1155 719.54 57.2885 719.968 57.4731C731.897 78.9939 718.813 107.415 736.135 127.182C741.404 133.231 747.2 138.799 753.457 143.822C759.328 148.46 766.226 151.625 773.573 153.053C788.112 155.892 803.043 152.061 816 145.402C815.723 145.552 810.526 139.991 810.018 139.494C809.51 138.998 804.452 133.425 803.909 133.725C792.512 139.575 779.74 143.222 766.829 142.114C760.189 141.569 753.735 139.647 747.879 136.471C747.024 136.009 746.181 135.502 745.361 134.983C744.345 133.562 743.452 132.056 742.694 130.482C737.128 118.758 738.375 105.373 737.821 92.7833C737.669 86.0398 736.357 79.3727 733.941 73.0742C731.4 66.8546 727.324 62.458 722.589 57.8538C717.681 53.0766 712.843 47.2839 706.11 45.1606C699.655 43.0605 692.749 44.2722 686.167 44.953C673.349 46.3031 659.203 46.3608 647.354 40.6027C646.777 40.3142 646.2 40.0141 645.634 39.7026C645.009 38.7269 644.454 37.709 643.971 36.6562C641.898 31.7055 640.639 26.453 640.241 21.1012C639.086 9.91966 640.033 -1.59654 636.857 -12.5012C635.219 -18.1483 632.267 -23.3281 628.243 -27.6176C627.411 -28.5061 626.568 -29.4063 625.714 -30.2948C625.529 -30.5256 625.102 -30.9756 624.559 -31.5526C620.418 -35.9984 615.923 -40.1007 611.117 -43.8188C606.184 -47.5796 600.442 -50.1402 594.347 -51.298C588.251 -52.4557 581.97 -52.1786 576 -50.4886C576.566 -50.6617 581.381 -45.1688 581.993 -44.5803C582.605 -43.9918 587.19 -38.5107 588.091 -38.8107C593.396 -40.3304 598.961 -40.7244 604.429 -39.9673C609.896 -39.2101 615.144 -37.3186 619.836 -34.4143C619.986 -34.322 620.136 -34.2181 620.298 -34.1258C620.806 -33.3642 621.291 -32.5911 621.741 -31.8179C624.262 -26.951 625.867 -21.6629 626.476 -16.2168C628 -5.09292 626.926 6.34247 629.444 17.3394C630.57 22.7143 632.943 27.7498 636.372 32.0405C641.179 37.7239 646.498 42.954 652.262 47.6647ZM721.55 58.2232C721.815 58.3617 722.092 58.5117 722.358 58.6732C723.016 59.054 723.617 59.5617 724.275 59.931C723.337 59.3977 722.427 58.8161 721.55 58.1885L721.55 58.2232ZM717.762 53.9998C718.397 54.8768 718.917 55.7653 719.494 56.6654C714.84 52.719 715.037 50.0995 717.797 53.9651L717.762 53.9998ZM645.01 39.3449C644.387 38.9872 643.763 38.6179 643.163 38.191C642.562 37.764 641.881 37.3255 641.269 36.8524C637.504 33.933 639.698 32.8136 645.08 39.3103L645.01 39.3449Z" fill="#F7F8FC"/>
<path d="M1573.26 197.665C1583.31 205.996 1597.22 207.589 1609.82 207.208C1616.52 207.012 1623.15 205.754 1629.85 205.615C1633.18 205.467 1636.51 205.924 1639.67 206.965C1640.11 207.115 1640.54 207.288 1640.97 207.473C1652.9 228.994 1639.81 257.415 1657.13 277.182C1662.4 283.231 1668.2 288.799 1674.46 293.822C1680.33 298.46 1687.23 301.625 1694.57 303.053C1709.11 305.892 1724.04 302.061 1737 295.402C1736.72 295.552 1731.53 289.991 1731.02 289.494C1730.51 288.998 1725.45 283.425 1724.91 283.725C1713.51 289.575 1700.74 293.222 1687.83 292.114C1681.19 291.569 1674.73 289.647 1668.88 286.471C1668.02 286.009 1667.18 285.502 1666.36 284.983C1665.34 283.562 1664.45 282.056 1663.69 280.482C1658.13 268.758 1659.38 255.373 1658.82 242.783C1658.67 236.04 1657.36 229.373 1654.94 223.074C1652.4 216.855 1648.32 212.458 1643.59 207.854C1638.68 203.077 1633.84 197.284 1627.11 195.161C1620.65 193.06 1613.75 194.272 1607.17 194.953C1594.35 196.303 1580.2 196.361 1568.35 190.603C1567.78 190.314 1567.2 190.014 1566.63 189.703C1566.01 188.727 1565.45 187.709 1564.97 186.656C1562.9 181.705 1561.64 176.453 1561.24 171.101C1560.09 159.92 1561.03 148.403 1557.86 137.499C1556.22 131.852 1553.27 126.672 1549.24 122.382C1548.41 121.494 1547.57 120.594 1546.71 119.705C1546.53 119.474 1546.1 119.024 1545.56 118.447C1541.42 114.002 1536.92 109.899 1532.12 106.181C1527.18 102.42 1521.44 99.8598 1515.35 98.702C1509.25 97.5443 1502.97 97.8214 1497 99.5114C1497.57 99.3383 1502.38 104.831 1502.99 105.42C1503.61 106.008 1508.19 111.489 1509.09 111.189C1514.4 109.67 1519.96 109.276 1525.43 110.033C1530.9 110.79 1536.14 112.681 1540.84 115.586C1540.99 115.678 1541.14 115.782 1541.3 115.874C1541.81 116.636 1542.29 117.409 1542.74 118.182C1545.26 123.049 1546.87 128.337 1547.48 133.783C1549 144.907 1547.93 156.342 1550.44 167.339C1551.57 172.714 1553.94 177.75 1557.37 182.04C1562.18 187.724 1567.5 192.954 1573.26 197.665ZM1642.55 208.223C1642.82 208.362 1643.09 208.512 1643.36 208.673C1644.02 209.054 1644.62 209.562 1645.28 209.931C1644.34 209.398 1643.43 208.816 1642.55 208.189L1642.55 208.223ZM1638.76 204C1639.4 204.877 1639.92 205.765 1640.49 206.665C1635.84 202.719 1636.04 200.099 1638.8 203.965L1638.76 204ZM1566.01 189.345C1565.39 188.987 1564.76 188.618 1564.16 188.191C1563.56 187.764 1562.88 187.326 1562.27 186.852C1558.5 183.933 1560.7 182.814 1566.08 189.31L1566.01 189.345Z" fill="#F7F8FC"/>
<path d="M419.176 -20.9572C400.174 2.82184 397.05 35.3361 398.471 64.6972C399.212 80.3065 402.425 95.7093 403.032 111.321C403.519 119.081 402.593 126.865 400.299 134.293C399.968 135.323 399.583 136.326 399.17 137.33C349.494 166.057 282.669 136.751 237.31 177.978C223.429 190.52 210.69 204.272 199.244 219.073C188.677 232.96 181.588 249.178 178.57 266.37C172.566 300.391 182.131 335.045 198.205 364.976C197.843 364.336 210.592 351.983 211.728 350.777C212.863 349.572 225.645 337.542 224.923 336.289C210.799 309.96 201.755 280.333 203.792 250.182C204.781 234.675 208.989 219.544 216.148 205.756C217.188 203.744 218.336 201.757 219.512 199.823C222.782 197.392 226.255 195.247 229.893 193.412C256.994 179.937 288.259 182.279 317.591 180.454C333.309 179.815 348.799 176.472 363.384 170.572C377.779 164.385 387.858 154.694 398.393 143.459C409.325 131.813 422.628 120.285 427.293 104.497C431.917 89.3559 428.8 73.3049 426.934 57.9854C423.243 28.1537 422.51 -4.82929 435.435 -32.7C436.083 -34.0585 436.758 -35.4175 437.461 -36.7501C439.709 -38.2474 442.059 -39.5861 444.494 -40.7566C455.95 -45.7992 468.144 -48.9584 480.606 -50.1123C506.63 -53.2782 533.523 -51.5575 558.816 -59.4239C571.914 -63.4837 583.867 -70.586 593.699 -80.1511C595.736 -82.1275 597.799 -84.1312 599.835 -86.1614C600.365 -86.602 601.396 -87.6174 602.718 -88.9073C612.91 -98.7504 622.285 -109.406 630.752 -120.769C639.312 -132.431 645.04 -145.928 647.481 -160.19C649.923 -174.452 649.011 -189.088 644.817 -202.936C645.245 -201.624 632.641 -190.163 631.295 -188.711C629.948 -187.259 617.361 -176.337 618.099 -174.25C621.867 -161.942 623.022 -148.983 621.488 -136.203C619.953 -123.423 615.765 -111.105 609.191 -100.042C608.982 -99.6876 608.747 -99.3331 608.538 -98.9523C606.784 -97.7352 605.002 -96.5716 603.218 -95.4887C591.976 -89.4052 579.714 -85.4394 567.04 -83.7884C541.167 -79.7633 514.457 -81.7836 488.921 -75.4481C476.436 -72.5955 464.795 -66.8484 454.935 -58.6698C441.886 -47.2218 429.916 -34.5978 419.176 -20.9572ZM397.488 141.051C397.177 141.676 396.838 142.329 396.473 142.955C395.613 144.506 394.455 145.928 393.621 147.478C394.825 145.268 396.143 143.123 397.569 141.05L397.488 141.051ZM407.176 132.04C405.158 133.558 403.108 134.808 401.034 136.192C410.039 125.174 416.155 125.52 407.258 132.12L407.176 132.04ZM438.268 -38.2193C439.076 -39.6885 439.911 -41.1582 440.881 -42.5765C441.851 -43.9948 442.845 -45.602 443.922 -47.0491C450.57 -55.9508 453.273 -50.8821 438.352 -38.0593L438.268 -38.2193Z" fill="#F7F8FC"/>
</g>
<defs>
<clipPath id="clip0_1910_86">
<rect width="1921" height="365" fill="white"/>
</clipPath>
</defs>
</svg>
