<svg width="286" height="247" viewBox="0 0 286 247" fill="none" xmlns="http://www.w3.org/2000/svg">
<g clip-path="url(#clip0_720_17152)">
<path d="M285.639 242.029V91.7794C285.639 89.2002 283.548 87.1094 280.969 87.1094L5.02866 87.1094C2.44949 87.1094 0.358673 89.2002 0.358673 91.7794V242.029C0.358673 244.609 2.44949 246.699 5.02866 246.699L280.969 246.699C283.548 246.699 285.639 244.609 285.639 242.029Z" fill="#6768AB" fill-opacity="0.2"/>
<path d="M280.309 241.261V92.5312L5.6886 92.5313V241.261L280.309 241.261Z" fill="white"/>
<path d="M90.2698 130.578H86.9098C86.3201 127.999 85.328 125.529 83.9698 123.258L86.4398 120.778C86.649 120.572 86.8151 120.326 86.9285 120.055C87.0419 119.783 87.1003 119.492 87.1003 119.198C87.1003 118.904 87.0419 118.613 86.9285 118.342C86.8151 118.071 86.649 117.825 86.4398 117.618L81.0298 112.198C80.6083 111.78 80.0386 111.545 79.4448 111.545C78.851 111.545 78.2812 111.78 77.8598 112.198L75.4998 114.578C73.2605 113.169 70.8141 112.12 68.2498 111.468V107.978C68.2498 107.384 68.0138 106.814 67.5937 106.394C67.1736 105.974 66.6039 105.738 66.0098 105.738H58.3498C57.7557 105.738 57.1859 105.974 56.7659 106.394C56.3458 106.814 56.1098 107.384 56.1098 107.978V111.348C53.531 111.934 51.0607 112.923 48.7898 114.278L46.3198 111.808C45.8983 111.39 45.3286 111.155 44.7348 111.155C44.141 111.155 43.5712 111.39 43.1498 111.808L37.7298 117.228C37.3121 117.648 37.0776 118.216 37.0776 118.808C37.0776 119.4 37.3121 119.969 37.7298 120.388L40.1098 122.778C38.7038 125.014 37.6577 127.458 37.0098 130.018H33.4998C32.9057 130.018 32.3359 130.254 31.9158 130.674C31.4958 131.094 31.2598 131.664 31.2598 132.258V139.918C31.2624 140.511 31.4996 141.078 31.9194 141.496C32.3392 141.914 32.9074 142.148 33.4998 142.148H36.8698C37.447 144.73 38.4364 147.201 39.7998 149.468L37.3198 151.948C36.9021 152.368 36.6676 152.936 36.6676 153.528C36.6676 154.12 36.9021 154.689 37.3198 155.108L42.7398 160.528C43.1612 160.947 43.731 161.181 44.3248 161.181C44.9186 161.181 45.4883 160.947 45.9098 160.528L48.2798 158.148C50.5199 159.556 52.966 160.605 55.5298 161.258V164.748C55.5298 165.342 55.7658 165.912 56.1859 166.332C56.6059 166.752 57.1757 166.988 57.7698 166.988H65.4298C65.7235 166.988 66.0143 166.93 66.2855 166.818C66.5567 166.705 66.803 166.54 67.0102 166.332C67.2174 166.123 67.3814 165.876 67.4929 165.605C67.6044 165.333 67.6611 165.042 67.6598 164.748V161.348C70.2367 160.767 72.7044 159.777 74.9698 158.418L77.4398 160.888C77.8612 161.307 78.431 161.541 79.0248 161.541C79.6186 161.541 80.1883 161.307 80.6098 160.888L86.0198 155.468C86.229 155.262 86.3951 155.016 86.5085 154.745C86.6219 154.473 86.6803 154.182 86.6803 153.888C86.6803 153.594 86.6219 153.303 86.5085 153.032C86.3951 152.761 86.229 152.515 86.0198 152.308L83.6398 149.928C85.0561 147.695 86.1092 145.251 86.7598 142.688H90.2498C90.8421 142.686 91.4093 142.448 91.8272 142.029C92.2451 141.609 92.4798 141.041 92.4798 140.448V132.788C92.4745 132.204 92.24 131.645 91.8267 131.231C91.4134 130.818 90.8543 130.583 90.2698 130.578ZM61.8698 150.578C59.0486 150.576 56.2913 149.738 53.947 148.168C51.6026 146.599 49.7764 144.369 48.6995 141.761C47.6227 139.154 47.3434 136.285 47.8972 133.519C48.451 130.753 49.8129 128.213 51.8106 126.221C53.8083 124.229 56.352 122.874 59.1199 122.328C61.8878 121.782 64.7554 122.069 67.36 123.153C69.9645 124.238 72.189 126.07 73.7518 128.419C75.3147 130.768 76.1457 133.527 76.1398 136.348C76.1411 138.223 75.7729 140.079 75.0562 141.811C74.3395 143.543 73.2885 145.116 71.9631 146.442C70.6378 147.767 69.0641 148.818 67.3322 149.535C65.6003 150.251 63.7441 150.62 61.8698 150.618V150.578Z" fill="#6768AB" fill-opacity="0.2"/>
<path d="M260.689 175.961H132.539C129.817 175.961 127.609 178.168 127.609 180.891V221.871C127.609 224.594 129.817 226.801 132.539 226.801H260.689C263.412 226.801 265.619 224.594 265.619 221.871V180.891C265.619 178.168 263.412 175.961 260.689 175.961Z" fill="#6768AB" fill-opacity="0.5"/>
<path d="M261.209 112.75H132.019C129.584 112.75 127.609 114.724 127.609 117.16V159.18C127.609 161.616 129.584 163.59 132.019 163.59H261.209C263.645 163.59 265.619 161.616 265.619 159.18V117.16C265.619 114.724 263.645 112.75 261.209 112.75Z" fill="#6768AB" fill-opacity="0.1" stroke="#6768AB" stroke-width="1.1" stroke-miterlimit="10" stroke-linecap="round" stroke-dasharray="3.29 5.48"/>
<path d="M143.609 40.8691C143.235 40.8691 142.875 40.7208 142.609 40.4567C142.343 40.1926 142.192 39.8339 142.189 39.4591V1.45906C142.192 1.08326 142.343 0.723591 142.608 0.457855C142.874 0.192119 143.234 0.0416814 143.609 0.0390625C143.984 0.0417025 144.343 0.192465 144.607 0.458481C144.871 0.724497 145.019 1.08418 145.019 1.45906V39.4591C145.019 39.833 144.871 40.1917 144.606 40.4561C144.342 40.7205 143.983 40.8691 143.609 40.8691Z" fill="#6768AB"/>
<path d="M153.849 38.9805H133.359V68.1905H153.849V38.9805Z" fill="#D75078"/>
<path d="M146.408 67.7233L140.758 67.7617L140.816 76.3315L146.466 76.2931L146.408 67.7233Z" fill="#6768AB"/>
<path d="M142.88 95.0284C139.872 94.9044 137.034 93.6039 134.975 91.407C132.917 89.2101 131.804 86.2926 131.876 83.2831C131.948 80.2735 133.2 77.4127 135.361 75.3169C137.522 73.2212 140.42 72.0581 143.43 72.0784V76.3484C141.51 76.3484 139.669 77.1112 138.311 78.4689C136.953 79.8267 136.19 81.6682 136.19 83.5884C136.19 85.5085 136.953 87.3501 138.311 88.7078C139.669 90.0656 141.51 90.8284 143.43 90.8284C145.167 90.8213 146.855 90.2554 148.246 89.2145C149.636 88.1735 150.654 86.7129 151.15 85.0484C151.238 84.6397 151.462 84.2729 151.785 84.0078C152.109 83.7426 152.512 83.5948 152.93 83.5884C153.194 83.5876 153.454 83.6445 153.694 83.7548C153.933 83.8652 154.145 84.0265 154.316 84.2275C154.486 84.4284 154.611 84.6641 154.68 84.9182C154.75 85.1723 154.764 85.4385 154.72 85.6984C154.201 88.4185 152.717 90.8598 150.542 92.5738C148.367 94.2878 145.646 95.1594 142.88 95.0284Z" fill="#6768AB"/>
<path d="M266.329 116.091L142.689 85.1607C142.017 84.9931 141.319 84.9595 140.634 85.0617C139.949 85.164 139.292 85.4002 138.698 85.7568C138.105 86.1134 137.587 86.5834 137.176 87.14C136.764 87.6966 136.466 88.3289 136.299 89.0007L126.499 128.091C126.163 129.448 126.378 130.884 127.098 132.083C127.817 133.283 128.983 134.148 130.339 134.491L253.999 165.411C254.67 165.58 255.369 165.615 256.054 165.514C256.74 165.413 257.398 165.178 257.993 164.823C258.587 164.467 259.106 163.997 259.518 163.441C259.931 162.885 260.23 162.253 260.399 161.581L270.169 122.481C270.338 121.809 270.372 121.11 270.271 120.425C270.169 119.74 269.933 119.082 269.576 118.488C269.219 117.894 268.749 117.377 268.192 116.965C267.634 116.554 267.001 116.257 266.329 116.091ZM144.329 96.5307C143.622 96.5307 142.932 96.3211 142.344 95.9284C141.757 95.5356 141.299 94.9775 141.03 94.3246C140.76 93.6717 140.69 92.9534 140.828 92.2606C140.967 91.5678 141.308 90.9317 141.808 90.4328C142.308 89.934 142.945 89.5947 143.638 89.4581C144.332 89.3215 145.05 89.3936 145.702 89.6654C146.354 89.9371 146.911 90.3962 147.302 90.9846C147.693 91.573 147.901 92.2642 147.899 92.9707C147.899 93.4433 147.805 93.9112 147.622 94.3471C147.439 94.783 147.172 95.1781 146.835 95.5095C146.498 95.8409 146.098 96.1018 145.66 96.2772C145.221 96.4525 144.751 96.5387 144.279 96.5307H144.329Z" fill="#B3B4D5"/>
<path d="M163.308 126.849C169.775 123.769 172.52 116.029 169.44 109.562C166.359 103.095 158.62 100.35 152.153 103.43C145.686 106.511 142.941 114.25 146.021 120.717C149.101 127.184 156.841 129.93 163.308 126.849Z" fill="white"/>
<path d="M254.236 127.823L184.105 110.285L183.477 112.798L253.608 130.335L254.236 127.823Z" fill="url(#paint0_linear_720_17152)"/>
<path d="M251.867 137.303L181.736 119.766L181.108 122.278L251.238 139.816L251.867 137.303Z" fill="url(#paint1_linear_720_17152)"/>
<path d="M249.498 146.784L179.367 129.246L178.739 131.759L248.869 149.296L249.498 146.784Z" fill="url(#paint2_linear_720_17152)"/>
<path d="M147.85 92.9685C147.846 93.738 147.594 94.4859 147.132 95.1007C146.669 95.7154 146.02 96.1642 145.281 96.3801C144.542 96.5959 143.754 96.5673 143.033 96.2985C142.312 96.0298 141.697 95.5352 141.279 94.8885C140.863 94.2394 140.67 93.472 140.729 92.7031C140.789 91.9341 141.098 91.2057 141.609 90.6285C142.214 89.9248 143.071 89.4873 143.995 89.4105C144.92 89.3338 145.837 89.6241 146.549 90.2185C146.955 90.5528 147.282 90.9727 147.507 91.4481C147.732 91.9235 147.849 92.4427 147.85 92.9685Z" fill="url(#paint3_linear_720_17152)"/>
<path d="M154.759 85.3486C154.773 85.4514 154.773 85.5558 154.759 85.6586C154.246 88.3834 152.767 90.8315 150.593 92.5529C148.42 94.2744 145.698 95.1535 142.929 95.0286C142.387 95.0076 141.849 94.9407 141.319 94.8286C140.902 94.1795 140.709 93.4121 140.768 92.6432C140.828 91.8742 141.137 91.1458 141.649 90.5686C142.249 90.7259 142.868 90.8065 143.489 90.8086C144.555 90.8034 145.61 90.5823 146.589 90.1586C147.696 89.7106 148.686 89.0142 149.482 88.123C150.278 87.2318 150.858 86.1697 151.179 85.0186C151.27 84.61 151.497 84.2439 151.821 83.9792C152.146 83.7145 152.55 83.5663 152.969 83.5586C153.441 83.5663 153.892 83.7574 154.226 84.0914C154.56 84.4255 154.751 84.8763 154.759 85.3486Z" fill="#6768AB"/>
<path d="M208.37 210.53L193.5 204.08V200.5L208.35 194.07V198.28L197.99 202.28L208.37 206.35V210.53Z" fill="white"/>
<path d="M215.799 213.349L221.159 190.949H224.279L218.859 213.349H215.799Z" fill="white"/>
<path d="M231.709 210.551V206.351L242.079 202.271L231.709 198.271V194.121L246.569 200.551V204.101L231.709 210.551Z" fill="white"/>
</g>
<defs>
<linearGradient id="paint0_linear_720_17152" x1="238.009" y1="113.447" x2="188.787" y2="131.093" gradientUnits="userSpaceOnUse">
<stop offset="0.05" stop-color="#EDF4FB"/>
<stop offset="1" stop-color="#F9FAFD"/>
</linearGradient>
<linearGradient id="paint1_linear_720_17152" x1="235.63" y1="122.925" x2="186.409" y2="140.571" gradientUnits="userSpaceOnUse">
<stop offset="0.05" stop-color="#EDF4FB"/>
<stop offset="1" stop-color="#F9FAFD"/>
</linearGradient>
<linearGradient id="paint2_linear_720_17152" x1="233.261" y1="132.405" x2="184.04" y2="150.051" gradientUnits="userSpaceOnUse">
<stop offset="0.05" stop-color="#EDF4FB"/>
<stop offset="1" stop-color="#F9FAFD"/>
</linearGradient>
<linearGradient id="paint3_linear_720_17152" x1="140.71" y1="92.9685" x2="147.85" y2="92.9685" gradientUnits="userSpaceOnUse">
<stop offset="0.05" stop-color="#EDF4FB"/>
<stop offset="1" stop-color="#F9FAFD"/>
</linearGradient>
<clipPath id="clip0_720_17152">
<rect width="285.28" height="246.69" fill="white" transform="translate(0.359375)"/>
</clipPath>
</defs>
</svg>
