<svg width="103" height="32" viewBox="0 0 103 32" fill="none" xmlns="http://www.w3.org/2000/svg">
<rect width="103" height="32" rx="5" fill="#F3F4FA"/>
<mask id="mask0_107_2200" style="mask-type:alpha" maskUnits="userSpaceOnUse" x="16" y="7" width="18" height="18">
<rect x="16" y="7" width="18" height="18" fill="#D9D9D9"/>
</mask>
<g mask="url(#mask0_107_2200)">
<path d="M28.7508 23.3125C28.1781 23.3125 27.6911 23.112 27.2897 22.7109C26.8882 22.3099 26.6875 21.8229 26.6875 21.25C26.6875 21.1564 26.695 21.0594 26.7099 20.9591C26.7248 20.8588 26.7471 20.7663 26.7769 20.6817L21.2298 17.4336C21.0317 17.6307 20.8062 17.7848 20.5533 17.8959C20.3005 18.0069 20.0327 18.0625 19.75 18.0625C19.1771 18.0625 18.6901 17.862 18.2891 17.4612C17.888 17.0603 17.6875 16.5735 17.6875 16.0008C17.6875 15.4282 17.888 14.9411 18.2891 14.5397C18.6901 14.1382 19.1771 13.9375 19.75 13.9375C20.0327 13.9375 20.3005 13.993 20.5533 14.1041C20.8062 14.2151 21.0317 14.3692 21.2298 14.5663L26.7769 11.3183C26.7471 11.2336 26.7248 11.1412 26.7099 11.0409C26.695 10.9406 26.6875 10.8436 26.6875 10.75C26.6875 10.1771 26.8879 9.69009 27.2888 9.28906C27.6897 8.88802 28.1765 8.6875 28.7491 8.6875C29.3218 8.6875 29.8089 8.88794 30.2103 9.28881C30.6117 9.68969 30.8125 10.1765 30.8125 10.7491C30.8125 11.3218 30.6119 11.8089 30.2109 12.2103C29.8099 12.6117 29.3229 12.8125 28.75 12.8125C28.4673 12.8125 28.1995 12.7569 27.9466 12.6459C27.6937 12.5348 27.4683 12.3807 27.2702 12.1836L21.723 15.4317C21.7529 15.5163 21.7752 15.6086 21.7901 15.7086C21.805 15.8086 21.8125 15.9052 21.8125 15.9985C21.8125 16.0918 21.805 16.1889 21.7901 16.2899C21.7752 16.3909 21.7529 16.4836 21.723 16.5683L27.2702 19.8163C27.4683 19.6192 27.6937 19.4651 27.9466 19.3541C28.1995 19.243 28.4673 19.1875 28.75 19.1875C29.3229 19.1875 29.8099 19.3879 30.2109 19.7888C30.6119 20.1897 30.8125 20.6765 30.8125 21.2491C30.8125 21.8218 30.612 22.3089 30.2112 22.7103C29.8103 23.1117 29.3235 23.3125 28.7508 23.3125ZM28.75 11.6875C29.0106 11.6875 29.232 11.5964 29.4142 11.4142C29.5964 11.2319 29.6875 11.0105 29.6875 10.75C29.6875 10.4894 29.5964 10.268 29.4142 10.0858C29.232 9.90356 29.0106 9.81246 28.75 9.81246C28.4894 9.81246 28.268 9.90357 28.0858 10.0858C27.9036 10.268 27.8125 10.4894 27.8125 10.75C27.8125 11.0106 27.9036 11.232 28.0858 11.4142C28.268 11.5964 28.4894 11.6875 28.75 11.6875ZM19.75 16.9375C20.0106 16.9375 20.232 16.8464 20.4142 16.6642C20.5964 16.4819 20.6875 16.2605 20.6875 16C20.6875 15.7394 20.5964 15.518 20.4142 15.3358C20.232 15.1536 20.0106 15.0625 19.75 15.0625C19.4894 15.0625 19.268 15.1536 19.0858 15.3358C18.9036 15.518 18.8125 15.7394 18.8125 16C18.8125 16.2606 18.9036 16.482 19.0858 16.6642C19.268 16.8464 19.4894 16.9375 19.75 16.9375ZM28.75 22.1875C29.0106 22.1875 29.232 22.0964 29.4142 21.9142C29.5964 21.7319 29.6875 21.5105 29.6875 21.25C29.6875 20.9894 29.5964 20.768 29.4142 20.5858C29.232 20.4036 29.0106 20.3125 28.75 20.3125C28.4894 20.3125 28.268 20.4036 28.0858 20.5858C27.9036 20.768 27.8125 20.9894 27.8125 21.25C27.8125 21.5106 27.9036 21.732 28.0858 21.9142C28.268 22.0964 28.4894 22.1875 28.75 22.1875Z" fill="#080825"/>
</g>
<path d="M47.136 22.144C46.2293 22.144 45.408 22.032 44.672 21.808C43.936 21.5733 43.296 21.2427 42.752 20.816L43.312 19.504C43.6747 19.7813 44.048 20.0107 44.432 20.192C44.8267 20.3733 45.2427 20.512 45.68 20.608C46.128 20.6933 46.6133 20.736 47.136 20.736C48.032 20.736 48.688 20.576 49.104 20.256C49.5307 19.936 49.744 19.5147 49.744 18.992C49.744 18.544 49.5947 18.1973 49.296 17.952C49.008 17.7067 48.496 17.5093 47.76 17.36L46.016 17.008C44.9813 16.7947 44.208 16.448 43.696 15.968C43.1947 15.4773 42.944 14.8107 42.944 13.968C42.944 13.2853 43.1253 12.688 43.488 12.176C43.8507 11.664 44.352 11.2693 44.992 10.992C45.6427 10.7147 46.4 10.576 47.264 10.576C48.064 10.576 48.8 10.6933 49.472 10.928C50.144 11.152 50.7093 11.488 51.168 11.936L50.624 13.2C50.144 12.784 49.632 12.48 49.088 12.288C48.544 12.0853 47.9253 11.984 47.232 11.984C46.4107 11.984 45.7653 12.1547 45.296 12.496C44.8373 12.8373 44.608 13.3013 44.608 13.888C44.608 14.3573 44.752 14.7253 45.04 14.992C45.3387 15.2587 45.8293 15.4613 46.512 15.6L48.256 15.936C49.3333 16.16 50.128 16.5067 50.64 16.976C51.152 17.4347 51.408 18.0693 51.408 18.88C51.408 19.5307 51.232 20.1013 50.88 20.592C50.5387 21.0827 50.048 21.4667 49.408 21.744C48.768 22.0107 48.0107 22.144 47.136 22.144ZM53.309 22V10.224H54.925V15.648H54.701C54.9357 15.04 55.3143 14.5813 55.837 14.272C56.3597 13.952 56.9623 13.792 57.645 13.792C58.605 13.792 59.3197 14.0587 59.789 14.592C60.2583 15.1147 60.493 15.9093 60.493 16.976V22H58.877V17.072C58.877 16.3787 58.7383 15.8773 58.461 15.568C58.1943 15.248 57.7677 15.088 57.181 15.088C56.4983 15.088 55.949 15.3013 55.533 15.728C55.1277 16.144 54.925 16.6987 54.925 17.392V22H53.309ZM65.8814 22.144C65.1667 22.144 64.5427 21.9787 64.0094 21.648C63.476 21.3173 63.06 20.8373 62.7614 20.208C62.4734 19.5787 62.3294 18.832 62.3294 17.968C62.3294 17.0933 62.4734 16.3467 62.7614 15.728C63.06 15.1093 63.476 14.6347 64.0094 14.304C64.5427 13.9627 65.1667 13.792 65.8814 13.792C66.5854 13.792 67.1987 13.968 67.7214 14.32C68.244 14.672 68.5907 15.152 68.7614 15.76H68.5854L68.7454 13.936H70.3134C70.2814 14.2667 70.2494 14.5973 70.2174 14.928C70.196 15.248 70.1854 15.5627 70.1854 15.872V22H68.5694V20.208H68.7454C68.5747 20.8053 68.2227 21.28 67.6894 21.632C67.1667 21.9733 66.564 22.144 65.8814 22.144ZM66.2814 20.88C66.9747 20.88 67.5294 20.6347 67.9454 20.144C68.372 19.6533 68.5854 18.928 68.5854 17.968C68.5854 17.008 68.372 16.288 67.9454 15.808C67.5294 15.3173 66.9747 15.072 66.2814 15.072C65.5774 15.072 65.012 15.3173 64.5854 15.808C64.1694 16.288 63.9614 17.008 63.9614 17.968C63.9614 18.928 64.1694 19.6533 64.5854 20.144C65.0014 20.6347 65.5667 20.88 66.2814 20.88ZM72.5114 22V15.936C72.5114 15.6053 72.5007 15.2747 72.4794 14.944C72.4687 14.6027 72.4474 14.2667 72.4154 13.936H73.9834L74.1594 16.016H73.9034C74.01 15.5147 74.1914 15.0987 74.4474 14.768C74.7034 14.4373 75.0127 14.192 75.3754 14.032C75.7487 13.872 76.138 13.792 76.5434 13.792C76.714 13.792 76.858 13.8027 76.9754 13.824C77.0927 13.8347 77.21 13.856 77.3274 13.888L77.3114 15.328C77.13 15.2533 76.97 15.2107 76.8314 15.2C76.7034 15.1787 76.5434 15.168 76.3514 15.168C75.882 15.168 75.482 15.2747 75.1514 15.488C74.8207 15.6907 74.57 15.968 74.3994 16.32C74.2287 16.672 74.1434 17.0507 74.1434 17.456V22H72.5114ZM82.1933 22.144C80.8919 22.144 79.8679 21.776 79.1213 21.04C78.3746 20.304 78.0013 19.2853 78.0013 17.984C78.0013 17.1413 78.1613 16.4053 78.4813 15.776C78.8119 15.1467 79.2653 14.6613 79.8413 14.32C80.4279 13.968 81.1053 13.792 81.8733 13.792C82.6306 13.792 83.2653 13.952 83.7773 14.272C84.2893 14.592 84.6786 15.0453 84.9453 15.632C85.2119 16.208 85.3453 16.8907 85.3453 17.68V18.192H79.2653V17.264H84.2413L83.9693 17.472C83.9693 16.672 83.7879 16.0533 83.4253 15.616C83.0733 15.168 82.5613 14.944 81.8893 14.944C81.1426 14.944 80.5666 15.2053 80.1613 15.728C79.7559 16.24 79.5533 16.9493 79.5533 17.856V18.016C79.5533 18.9653 79.7826 19.68 80.2413 20.16C80.7106 20.64 81.3719 20.88 82.2253 20.88C82.6946 20.88 83.1319 20.816 83.5373 20.688C83.9533 20.5493 84.3479 20.3253 84.7213 20.016L85.2493 21.12C84.8759 21.4507 84.4226 21.7067 83.8893 21.888C83.3559 22.0587 82.7906 22.144 82.1933 22.144Z" fill="#080825"/>
</svg>
