<svg width="26" height="26" viewBox="0 0 26 26" fill="none" xmlns="http://www.w3.org/2000/svg">
<g clip-path="url(#clip0_718_8608)">
<path d="M74.6452 24.4751C74.6452 24.938 74.5506 25.3963 74.3668 25.824C74.183 26.2516 73.9135 26.6402 73.5738 26.9676C73.2342 27.2949 72.8309 27.5545 72.387 27.7317C71.9432 27.9088 71.4674 28 70.987 28H3.65815C3.17772 28 2.702 27.9088 2.25815 27.7317C1.8143 27.5545 1.41101 27.2949 1.07131 26.9676C0.731619 26.6402 0.46217 26.2516 0.278353 25.824C0.0945354 25.3963 -4.91243e-05 24.938 1.91403e-08 24.4751V3.52492C-4.91243e-05 3.06204 0.0945354 2.60368 0.278353 2.17602C0.46217 1.74836 0.731619 1.35977 1.07131 1.03245C1.41101 0.705124 1.8143 0.445474 2.25815 0.268326C2.702 0.0911774 3.17772 -2.42169e-09 3.65815 0L70.987 0C71.4674 -2.42169e-09 71.9432 0.0911774 72.387 0.268326C72.8309 0.445474 73.2342 0.705124 73.5738 1.03245C73.9135 1.35977 74.183 1.74836 74.3668 2.17602C74.5506 2.60368 74.6452 3.06204 74.6452 3.52492V24.4751Z" fill="black"/>
<path d="M5.16602 18.8027V18.8045L5.22289 18.9603C5.21653 18.9423 5.1952 18.8871 5.16602 18.8027Z" fill="#00F7EF"/>
<path d="M11.3646 15.3868L11.4201 15.535C11.3988 15.4866 11.3803 15.4371 11.3646 15.3868ZM8.7817 14.3331C8.88092 13.5369 9.21163 13.0912 9.83601 12.6339C10.7289 12.015 11.8474 12.3652 11.8474 12.3652V10.2878C12.1192 10.2812 12.3911 10.2973 12.66 10.3358V13.0085C12.66 13.0085 11.5432 12.6583 10.6489 13.2775C10.0242 13.7345 9.69182 14.1805 9.59459 14.9767C9.59162 15.4093 9.67397 15.9754 10.0536 16.463C9.9597 16.4158 9.86379 16.3615 9.76656 16.3013C8.93052 15.7482 8.77773 14.9192 8.7817 14.3331ZM17.2721 6.44717C16.656 5.7833 16.4245 5.11319 16.3401 4.64252H17.114C17.114 4.64252 16.9599 5.87694 18.0843 7.09107L18.0999 7.1073C17.7968 6.91953 17.5188 6.69788 17.2721 6.44717Z" fill="#EE1D52"/>
<path d="M21 8.32977V10.9487C21 10.9487 20.0125 10.911 19.2803 10.7274C18.2597 10.4715 17.6039 10.0792 17.6039 10.0792C17.6039 10.0792 17.1508 9.79828 17.1141 9.77955V15.1901C17.1141 15.4906 17.0305 16.2428 16.7751 16.8705C16.5516 17.4072 16.2329 17.904 15.8326 18.3396C15.8326 18.3396 15.2072 19.0678 14.1033 19.5569C13.1085 19.9992 12.2348 19.9882 11.9739 19.9992C11.9739 19.9992 10.4635 20.0581 9.10461 19.1877C8.8108 18.9962 8.53656 18.7793 8.28543 18.5397L8.29238 18.5441C9.65127 19.4139 11.1613 19.3556 11.1613 19.3556C11.4226 19.3443 12.296 19.3556 13.2908 18.9133C14.3937 18.423 15.0204 17.6961 15.0204 17.6961C15.114 17.5862 15.6309 17.0475 15.9626 16.2266C16.2172 15.5993 16.3019 14.8471 16.3019 14.5459V9.13597C16.3383 9.15532 16.7914 9.43591 16.7914 9.43591C16.7914 9.43591 17.4475 9.82886 18.4677 10.0842C19.1989 10.2674 20.1874 10.3055 20.1874 10.3055V8.2533C20.5251 8.3279 20.8131 8.34694 21 8.32977Z" fill="#EE1D52"/>
<path d="M20.1874 8.2533V10.3055C20.1874 10.3055 19.2003 10.2674 18.4677 10.0842C17.4472 9.82824 16.7919 9.43517 16.7919 9.43517C16.7919 9.43517 16.3383 9.15501 16.3019 9.13597L16.3021 14.5442C16.3021 14.8454 16.2181 15.5976 15.9628 16.2249C15.7393 16.7615 15.4207 17.2583 15.0206 17.6941C15.0206 17.6941 14.3949 18.4225 13.291 18.9113C12.2979 19.3561 11.4241 19.3442 11.1629 19.3561C11.1629 19.3561 9.65317 19.4151 8.29361 18.5446L8.28699 18.5399C8.14351 18.4032 8.00847 18.2589 7.88253 18.1076C7.44864 17.5867 7.18275 16.9712 7.11594 16.7967C7.11577 16.7964 7.11568 16.796 7.11568 16.7956C7.11568 16.7953 7.11577 16.7949 7.11594 16.7945C7.00813 16.4887 6.78225 15.7558 6.81334 15.0467C6.86791 13.7932 7.31536 13.0245 7.43376 12.8307C7.74727 12.3053 8.15515 11.8353 8.6392 11.4418C9.06586 11.1016 9.54974 10.8311 10.0709 10.6415C10.3957 10.5138 10.7342 10.4196 11.0805 10.3606C11.3339 10.3179 11.5901 10.293 11.8474 10.2878V12.3652C11.8474 12.3652 10.7303 12.0147 9.83601 12.6339C9.21097 13.0909 8.87996 13.5364 8.78207 14.3323C8.7781 14.9187 8.93023 15.7477 9.76561 16.3011C9.86284 16.3616 9.95842 16.416 10.0523 16.4631C10.1984 16.6491 10.376 16.8112 10.5778 16.9428C11.3937 17.4516 12.0773 17.4871 12.9514 17.1566C13.5351 16.9381 13.9723 16.4412 14.1796 15.8894C14.3073 15.5461 14.3056 15.1981 14.3056 14.8401V4.64294L16.3401 4.64252C16.4245 5.11319 16.657 5.78361 17.2721 6.44717C17.5186 6.69774 17.7962 6.9198 18.0989 7.10772C18.1885 7.19886 18.6462 7.64955 19.2339 7.92671C19.5375 8.06977 19.8573 8.17944 20.1874 8.2533Z" fill="white"/>
<path d="M10.0708 10.6399C9.54967 10.8295 9.06579 11.1 8.63913 11.4402C8.15502 11.835 7.74735 12.3062 7.43434 12.8328C7.31595 13.0248 6.8685 13.7945 6.81393 15.0489C6.78284 15.7589 7.00872 16.4918 7.11686 16.7967C7.11671 16.797 7.11663 16.7974 7.11663 16.7978C7.11663 16.7982 7.11671 16.7985 7.11686 16.7989C7.183 16.9731 7.44923 17.5885 7.88312 18.1098C8.00939 18.2619 8.14476 18.407 8.28857 18.5446C7.82883 18.2444 7.4188 17.8815 7.07188 17.4678C6.64196 16.9515 6.37739 16.3423 6.30761 16.1622L6.30562 16.1584V16.1559C6.19781 15.8513 5.97127 15.1175 6.00302 14.4081C6.05759 13.1546 6.50537 12.3862 6.62344 12.1921C6.93654 11.6658 7.3442 11.1948 7.82822 10.8003C8.25472 10.46 8.73864 10.1895 9.25988 10.0001C9.58472 9.87235 9.92324 9.77817 10.2695 9.71916C10.7915 9.63302 11.3246 9.62554 11.849 9.697V10.29C11.5917 10.2946 11.3352 10.3179 11.0818 10.3599C10.7353 10.4188 10.3967 10.513 10.0718 10.6408L10.0708 10.6399Z" fill="#00F7EF"/>
<path d="M16.3401 4.64252L14.3056 4.64294V14.8401C14.3056 15.1981 14.3073 15.5439 14.1796 15.8894C13.9739 16.4406 13.5362 16.9381 12.9538 17.1591C12.079 17.4906 11.3955 17.4538 10.5799 16.9453C10.3781 16.8135 10.2007 16.6512 10.0547 16.465C10.7492 16.8149 11.3713 16.8083 12.1419 16.5171C12.7209 16.2946 13.1618 15.797 13.3655 15.2455C13.4938 14.9022 13.4922 14.5542 13.4922 14.1962V4H16.3032C16.3032 4 16.2702 4.25375 16.3413 4.64421L16.3401 4.64252ZM20.1874 7.68609V8.2533C19.8578 8.17927 19.5382 8.06963 19.235 7.92673C18.6473 7.64957 18.1895 7.19844 18.0999 7.1073C18.2037 7.17157 18.3116 7.23037 18.4228 7.28252C19.1358 7.62054 19.8389 7.72011 20.1874 7.68609Z" fill="#00F7EF"/>
</g>
<defs>
<clipPath id="clip0_718_8608">
<rect width="26" height="26" rx="13" fill="white"/>
</clipPath>
</defs>
</svg>
