<svg width="12" height="216" viewBox="0 0 12 216" fill="none" xmlns="http://www.w3.org/2000/svg">
<path fill-rule="evenodd" clip-rule="evenodd" d="M12 0C5.37259 -5.79387e-07 1.62846e-06 5.37258 1.04907e-06 12C4.69686e-07 18.6274 5.37258 24 12 24L12 0Z" fill="white"/>
<path fill-rule="evenodd" clip-rule="evenodd" d="M12 48C5.37259 48 1.62846e-06 53.3726 1.04907e-06 60C4.69686e-07 66.6274 5.37258 72 12 72L12 48Z" fill="white"/>
<path fill-rule="evenodd" clip-rule="evenodd" d="M12 96C5.37259 96 1.62846e-06 101.373 1.04907e-06 108C4.69686e-07 114.627 5.37258 120 12 120L12 96Z" fill="white"/>
<path fill-rule="evenodd" clip-rule="evenodd" d="M12 144C5.37259 144 1.62846e-06 149.373 1.04907e-06 156C4.69686e-07 162.627 5.37258 168 12 168L12 144Z" fill="white"/>
<path fill-rule="evenodd" clip-rule="evenodd" d="M12 192C5.37259 192 1.62846e-06 197.373 1.04907e-06 204C4.69686e-07 210.627 5.37258 216 12 216L12 192Z" fill="white"/>
</svg>
