<svg width="217" height="12" viewBox="0 0 217 12" fill="none" xmlns="http://www.w3.org/2000/svg">
<path fill-rule="evenodd" clip-rule="evenodd" d="M216.5 12C216.5 5.37259 211.127 2.44269e-06 204.5 1.57361e-06C197.873 7.04529e-07 192.5 5.37258 192.5 12L216.5 12Z" fill="white"/>
<path fill-rule="evenodd" clip-rule="evenodd" d="M168.5 12C168.5 5.37259 163.127 2.44269e-06 156.5 1.57361e-06C149.873 7.04529e-07 144.5 5.37258 144.5 12L168.5 12Z" fill="white"/>
<path fill-rule="evenodd" clip-rule="evenodd" d="M120.5 12C120.5 5.37259 115.127 2.44269e-06 108.5 1.57361e-06C101.873 7.04529e-07 96.5 5.37258 96.5 12L120.5 12Z" fill="white"/>
<path fill-rule="evenodd" clip-rule="evenodd" d="M72.5 12C72.5 5.37259 67.1274 2.44269e-06 60.5 1.57361e-06C53.8726 7.04529e-07 48.5 5.37258 48.5 12L72.5 12Z" fill="white"/>
<path fill-rule="evenodd" clip-rule="evenodd" d="M24.5 12C24.5 5.37259 19.1274 2.44269e-06 12.5 1.57361e-06C5.87258 7.04529e-07 0.500001 5.37258 0.5 12L24.5 12Z" fill="white"/>
</svg>
