<svg width="520" height="417" viewBox="0 0 520 417" fill="none" xmlns="http://www.w3.org/2000/svg">
<path d="M84.8575 349C73.0096 349 61.0207 347.358 48.8907 344.073C37.0428 341.061 27.0286 335.586 18.8479 327.648C10.9493 319.983 7 309.17 7 295.209C7 286.449 8.55151 277.689 11.6545 268.929C14.7575 260.169 8.72333 275.779 13.2368 268.114C16.904 261.544 42.1205 296.304 48.8907 288.639C55.943 280.974 63.7006 273.719 72.1634 266.876C80.6261 260.032 89.371 254.42 98.398 250.04C107.425 245.386 115.888 243.06 123.786 243.06C125.479 243.06 126.607 244.018 127.171 245.934C128.018 247.85 129.428 249.493 131.403 250.861C132.249 251.135 132.954 251.409 133.518 251.683C134.365 251.683 135.211 251.956 136.057 252.504C137.468 253.051 138.173 253.873 138.173 254.968C138.173 256.336 137.327 257.021 135.634 257.021C133.66 257.021 131.826 256.747 130.133 256.199C128.723 255.378 127.03 254.968 125.056 254.968C119.696 254.968 113.49 256.199 106.438 258.663C99.6674 260.853 93.7434 263.18 88.6658 265.644C78.2284 270.571 68.7783 277.415 60.3155 286.175C52.1348 294.935 35.3503 239.09 30.2726 250.04C25.4771 260.99 23.0793 272.214 23.0793 283.711C23.0793 296.851 26.7465 307.117 34.0809 314.508C41.6974 322.173 51.1475 327.511 62.4312 330.522C73.997 333.533 85.4217 335.039 96.7054 335.039C108.835 335.039 121.953 333.533 136.057 330.522C150.444 327.511 164.549 322.994 178.371 316.972C192.476 310.949 205.17 303.558 216.454 294.798C227.737 286.038 236.764 275.909 243.535 264.412C250.587 252.915 254.113 240.185 254.113 226.224C254.113 218.285 251.715 211.305 246.92 205.282C242.124 199.26 235.777 193.785 227.878 188.858C220.262 183.93 212.222 179.003 203.76 174.075C195.297 169.148 187.116 163.946 179.217 158.471C171.601 152.997 165.395 146.837 160.599 139.994C155.804 133.15 153.406 125.074 153.406 115.767C153.406 105.091 156.65 94.8251 163.138 84.9702C169.626 74.8415 177.948 65.8079 188.103 57.8692C198.541 49.9305 209.542 43.6343 221.108 38.9806C232.956 34.3269 244.099 32 254.536 32C261.871 32 268.359 33.6425 274.001 36.9274C279.642 39.9387 282.463 45.5505 282.463 53.7629C282.463 57.0479 282.04 60.6066 281.194 64.4391L282.04 65.2603C282.886 64.4391 284.438 62.5229 286.695 59.5116C289.234 56.2267 291.631 53.2155 293.888 50.478C296.427 47.7405 297.978 46.3717 298.543 46.3717C299.389 46.3717 299.812 46.7824 299.812 47.6036C299.812 47.8774 299.671 48.0142 299.389 48.0142C294.311 54.8579 290.503 61.5648 287.964 68.1347C285.425 74.4309 283.028 81.6852 280.771 89.8977C280.771 90.4452 280.348 90.7189 279.501 90.7189C278.373 90.7189 276.821 90.1714 274.847 89.0764C273.154 87.9814 272.308 86.8864 272.308 85.7914C272.308 81.959 272.872 78.2634 274.001 74.7046C275.411 71.1459 276.116 67.5872 276.116 64.0285C276.116 59.6485 274.565 56.3635 271.462 54.1736C268.641 51.9836 265.115 50.6148 260.883 50.0673C256.934 49.2461 253.126 48.8355 249.458 48.8355C242.124 48.8355 233.943 50.0674 224.916 52.5311C216.172 54.9948 207.709 58.5535 199.528 63.2072C191.347 67.861 184.577 73.6097 179.217 80.4534C173.858 87.0233 171.178 94.4145 171.178 102.627C171.178 109.471 173.435 115.493 177.948 120.694C182.462 125.895 187.821 130.412 194.027 134.245C200.233 137.804 206.016 141.089 211.376 144.1C219.839 148.48 228.725 153.818 238.034 160.114C247.625 166.41 255.665 173.664 262.153 181.877C268.923 190.089 272.308 199.534 272.308 210.21C272.308 227.456 268.359 243.333 260.46 257.842C252.561 272.077 241.983 284.943 228.725 296.44C215.466 307.664 200.657 317.108 184.295 324.773C167.934 332.712 151.149 338.734 133.942 342.841C116.734 346.947 100.373 349 84.8575 349Z" fill="#0B0B2D"/>
<path d="M360.764 136.298C358.507 136.298 354.981 135.477 350.185 133.834C345.672 131.918 343.415 129.591 343.415 126.854C343.415 126.58 343.415 126.443 343.415 126.443C343.697 126.169 343.838 125.896 343.838 125.622C345.249 122.884 348.352 121.242 353.147 120.694C358.225 120.147 362.033 119.326 364.572 118.231C370.214 116.041 375.715 114.261 381.074 112.892C386.434 111.524 391.512 109.06 396.307 105.501C397.436 106.049 398 106.596 398 107.144C398 108.239 396.731 109.744 394.192 111.661C391.935 113.577 390.384 115.219 389.537 116.588C388.409 118.231 385.87 120.694 381.921 123.979C378.254 126.99 374.304 129.865 370.073 132.602C365.841 135.066 362.738 136.298 360.764 136.298ZM289.253 314.097C284.74 314.097 281.637 313.002 279.944 310.812C278.252 308.622 277.405 305.474 277.405 301.368C277.405 292.334 279.239 281.384 282.906 268.518C286.856 255.652 291.228 242.649 296.024 229.509C300.819 216.095 304.627 204.187 307.448 193.785C308.577 189.952 311.257 187.352 315.488 185.983C320.001 184.341 323.81 182.424 326.913 180.234C331.426 177.223 336.222 174.759 341.299 172.843C346.377 170.653 351.737 169.558 357.379 169.558C358.789 169.558 359.635 169.832 359.917 170.38C360.482 170.927 360.764 171.338 360.764 171.611C360.764 173.254 359.776 174.075 357.802 174.075C353.852 174.075 349.762 176.402 345.531 181.056C341.299 185.436 337.068 191.184 332.837 198.302C328.605 205.419 324.797 212.81 321.412 220.475C318.027 228.14 315.065 235.258 312.526 241.828C309.987 248.124 308.295 252.778 307.448 255.789C306.038 260.169 304.627 265.37 303.217 271.392C301.806 277.141 301.101 282.479 301.101 287.407C301.101 289.323 301.383 291.65 301.948 294.387C302.512 296.851 304.204 298.083 307.025 298.083C309 298.083 311.116 297.399 313.372 296.03C319.578 292.471 325.643 287.68 331.567 281.658C337.773 275.362 343.415 268.655 348.493 261.538C353.853 254.146 358.084 247.44 361.187 241.417C361.751 241.691 362.033 242.238 362.033 243.06C362.033 244.702 361.046 247.166 359.071 250.451C357.097 253.462 354.84 256.747 352.301 260.306C349.762 263.864 347.364 267.013 345.108 269.75C343.133 272.487 342.146 274.13 342.146 274.677C341.864 276.867 341.44 278.51 340.876 279.605C340.312 280.426 339.466 281.932 338.337 284.122C334.952 287.407 330.439 291.513 324.797 296.44C319.155 301.094 313.231 305.2 307.025 308.759C300.819 312.318 294.895 314.097 289.253 314.097Z" fill="#0B0B2D"/>
</svg>
