<svg width="1385" height="557" viewBox="0 0 1385 557" fill="none" xmlns="http://www.w3.org/2000/svg">
<g clip-path="url(#clip0_718_6418)">
<path d="M162.952 206.996L148.092 227.1L181.53 251.917L196.389 231.813L162.952 206.996Z" fill="#0B0B2D"/>
<g opacity="0.6">
<path d="M1213.53 -88.5202C1253.19 -82.1268 1299.24 -74.0657 1325.6 -40.7092C1354.72 -3.73904 1346.12 48.2415 1328.09 87.9913C1307.29 133.857 1273.72 173.884 1262.07 223.919C1251.25 270.34 1266.51 314.538 1303.68 344.28C1347.79 379.583 1406.87 382.918 1460.69 375.135C1463.46 374.857 1469.57 364.572 1471.51 362.349C1473.17 360.125 1479.27 349.84 1482.05 349.284C1433.78 356.233 1381.35 354.565 1338.63 327.88C1300.35 303.975 1275.94 263.113 1280.38 216.97C1285.37 165.545 1317.83 123.572 1341.13 79.3742C1361.93 39.9024 1377.75 -9.8544 1356.39 -52.6619C1333.92 -97.4152 1279.82 -107.7 1235.44 -114.649C1233.78 -114.927 1226.01 -103.253 1224.62 -101.863C1222.68 -99.917 1214.91 -88.2422 1213.53 -88.5202Z" fill="#0B0B2D"/>
<path d="M1279.82 218.916C1279.82 218.36 1279.82 217.804 1279.82 217.248C1284.82 165.823 1317.27 123.85 1340.57 79.6522C1356.66 49.3534 1369.42 12.9392 1364.99 -21.5292L1344.46 14.3291C1345.29 39.6244 1338.08 65.7537 1327.81 87.9913C1307.01 133.857 1273.44 173.884 1261.79 223.919C1261.24 226.699 1260.68 229.201 1260.13 231.98L1279.82 218.916Z" fill="#0B0B2D"/>
</g>
<path d="M452.549 -121.869C424.809 -116.588 397.624 -108.527 371.548 -97.1297C362.394 -92.9602 349.634 -88.5126 345.195 -78.5057C342.976 -73.2242 342.699 -65.997 341.866 -60.4376C341.034 -54.0443 339.925 -48.4848 344.086 -42.9254C350.466 -33.4744 364.613 -29.5828 374.6 -25.4133C387.915 -19.8538 401.507 -14.2944 414.823 -8.735C425.919 -4.00949 440.066 2.93978 438.402 17.3943C439.234 11.0009 440.343 4.32964 441.176 -2.06369C435.905 11.5569 422.035 11.8349 410.107 16.2824C399.288 20.452 392.076 29.347 389.579 40.7438C385.418 59.3679 382.922 79.3818 399.566 93.0023C396.792 90.7786 405.391 74.3783 402.34 71.8766C393.463 64.6493 389.024 55.4763 389.024 43.8015C388.47 48.249 387.915 52.6966 387.36 57.1441C387.637 55.7543 387.637 54.3644 387.915 53.2525C387.637 55.7543 387.083 58.256 386.805 61.0357C389.857 49.9169 396.514 41.8557 407.333 37.6862C415.655 34.3505 425.641 34.0725 432.576 27.6792C440.066 21.0079 442.008 4.32964 441.453 -5.39934C440.621 -26.2472 408.997 -32.9185 394.018 -39.3118C378.206 -45.9831 345.195 -52.6544 343.808 -73.7802C342.976 -66.8309 341.866 -59.8816 341.034 -53.2103C344.363 -71.2784 372.38 -78.5057 387.083 -83.7871C407.333 -91.2924 428.138 -96.8518 449.498 -101.021C451.994 -101.299 450.607 -121.313 452.549 -121.869Z" fill="#0B0B2D"/>
<path d="M5.692 -367.025C-18.9966 -352.015 -43.4078 -324.218 -55.336 -297.811C-72.5348 -260.841 -66.7094 -216.643 -41.1886 -184.954C-15.113 -152.154 33.9868 -145.761 55.3466 -108.79C64.2234 -93.502 64.2234 -76.2679 56.1788 -60.7015C53.9596 -56.5319 49.7986 -52.3624 48.1342 -48.1928C48.4116 -49.0267 60.0624 -61.2574 52.5726 -53.4742C51.1856 -52.0844 50.076 -50.6945 48.689 -49.5826C42.8636 -43.4673 36.7608 -37.3519 31.2128 -30.9586C10.6852 -7.88699 -11.2294 15.4626 -9.565 48.8191C-7.6232 85.5112 19.8394 116.644 57.011 119.424C92.2408 122.203 114.988 101.911 135.515 76.8941C146.889 62.9956 155.211 46.0393 151.327 27.6933C147.721 9.62515 131.354 -5.66321 112.214 -3.99539C93.6278 -2.32758 80.59 12.6828 69.2166 26.0254C56.7336 40.7579 45.3602 55.7683 36.7608 73.0025C14.2914 117.478 7.91119 168.625 17.6202 217.269C16.5106 212.266 35.3738 203.093 34.2642 197.534C27.0518 161.675 28.7162 124.427 39.2574 89.1248C44.528 71.6127 51.7404 54.6565 61.172 39.0901C62.8364 36.5883 77.5386 17.9643 95.2922 15.4626C109.717 13.2388 122.755 22.4118 129.967 34.9205C133.851 41.8698 135.793 49.9309 135.515 57.9921C135.515 61.0497 137.734 74.1144 128.025 83.5654C125.806 85.7892 123.032 87.179 120.536 88.8469C114.155 92.7385 107.22 95.5182 100.008 97.464C85.5832 101.078 70.0488 100.8 55.9014 96.0741C26.2196 86.3452 7.9112 57.4361 7.079 27.4153C6.5242 12.9608 10.4078 -0.937744 17.8976 -13.1685C20.1168 -16.5041 21.2264 -18.1719 23.723 -20.9516C29.5484 -27.345 35.9286 -33.4603 41.4766 -39.8537C55.9014 -56.2539 75.5968 -74.878 78.6482 -97.3936C83.364 -131.584 51.1856 -152.71 25.3874 -167.164C-10.6746 -187.178 -39.2468 -211.918 -46.7366 -254.447C-50.0654 -272.515 -48.6784 -290.861 -42.5756 -308.096C-35.6406 -328.109 -28.7056 -336.727 -10.952 -347.289C-4.017 -351.459 -1.243 -362.856 5.692 -367.025Z" fill="#0B0B2D"/>
<path d="M990.151 -133.273C978.222 -126.602 965.462 -120.764 952.424 -116.595C954.921 -128.826 956.03 -141.334 955.476 -153.287C954.366 -176.359 944.934 -199.708 926.349 -214.441C906.931 -229.729 878.913 -233.621 857.553 -219.166C840.909 -207.769 837.303 -189.979 833.42 -171.633C829.259 -152.175 830.646 -132.995 842.851 -116.595C866.43 -84.9063 903.602 -81.8486 938.832 -91.0216C934.116 -82.6825 928.568 -74.8993 922.742 -67.3941C902.77 -42.6547 877.526 -21.5289 849.231 -7.63037C818.995 7.38007 784.32 12.9395 751.309 4.32239C747.98 3.48849 744.652 2.37662 741.045 0.986755C740.768 -13.7457 739.104 -28.2002 734.665 -42.0987C729.949 -57.6651 713.583 -93.5234 692.223 -75.1773C683.069 -67.3941 680.295 -47.3802 679.185 -35.9834C676.966 -12.3559 700.822 7.936 719.408 17.943C724.679 20.7227 730.227 23.2244 735.775 25.1702C735.775 28.2279 735.775 31.0076 735.775 34.0653C735.497 37.6789 735.22 41.2925 734.943 44.9062C734.665 46.296 734.665 47.6859 734.388 49.3537C731.614 57.4148 729.117 65.476 725.234 73.5371C712.751 99.6664 690.559 118.013 684.456 146.921C682.237 156.65 678.908 167.491 680.572 177.776C683.069 192.231 696.661 202.794 711.364 198.068C715.525 196.678 712.751 174.997 716.634 173.885C706.648 177.22 696.384 173.329 690.281 164.712C686.675 159.43 685.288 149.979 690.836 141.918C705.261 120.514 720.24 102.168 728.285 77.1508C733.556 60.7505 737.717 43.7943 739.658 26.2821C754.638 31.2856 770.727 33.2314 786.539 32.1195C837.581 29.0618 884.184 -3.18283 916.085 -41.8208C928.013 -56.5533 938.277 -74.0654 945.212 -92.9674C964.352 -98.5268 982.661 -107.7 997.64 -117.151C1044.8 -146.894 1081.69 -191.091 1103.61 -242.516C1106.94 -250.021 1105.55 -259.194 1108.88 -266.699C1085.3 -210.271 1043.41 -162.738 990.151 -133.273ZM685.843 -48.7701C691.946 -55.4414 700.822 -57.9431 709.977 -51.8277C722.182 -43.7666 727.453 -26.8103 731.059 -13.4677C732.169 -9.57614 733.001 -5.68454 733.556 -1.79297C712.751 -11.244 690.836 -27.6443 685.843 -48.7701ZM897.776 -112.147C869.204 -117.429 842.851 -136.609 837.303 -166.352C836.471 -170.243 835.084 -181.084 847.29 -191.369C858.94 -201.098 874.475 -205.824 889.732 -204.156C920.246 -200.264 941.883 -174.691 948.263 -145.782C949.928 -138.277 950.482 -130.771 950.482 -123.266C950.482 -121.042 950.482 -118.819 950.205 -116.317C950.205 -116.317 950.205 -116.317 950.205 -116.039C933.006 -111.036 915.53 -108.812 897.776 -112.147Z" fill="#0B0B2D"/>
<path d="M298.637 92.6348C287.541 110.147 283.38 131.273 280.606 151.565C276.999 178.25 286.154 204.657 305.849 222.725C328.873 243.851 356.059 244.129 385.74 245.241C410.984 246.075 446.768 256.916 444.272 288.604C444.826 280.543 448.433 272.482 448.988 264.421C450.652 242.183 430.679 227.451 410.984 223.003C386.85 217.722 361.606 223.837 337.75 214.942C319.164 207.993 303.075 193.816 293.643 176.304C288.095 166.019 285.321 154.622 284.767 143.225C284.489 140.168 284.489 137.388 284.767 134.33C283.657 138.222 284.212 137.666 285.599 132.663C288.373 127.381 290.592 122.1 293.921 117.096C298.082 110.425 294.476 99.0281 298.637 92.6348Z" fill="#0B0B2D"/>
<path d="M338.305 215.498C338.027 215.498 338.028 215.498 337.75 215.22C319.164 208.271 303.075 194.094 293.644 176.582C288.096 166.297 285.322 154.9 284.767 143.503C284.767 141.002 284.767 138.5 284.767 135.72C285.044 134.886 285.322 134.052 285.876 132.663C288.65 127.381 290.87 122.1 294.198 117.096C298.359 110.703 294.753 99.306 298.914 92.9127C287.818 110.425 283.657 131.551 280.883 151.843C277.277 178.528 286.431 204.935 306.127 223.003C318.61 234.4 332.202 239.681 346.904 242.461L338.305 215.498Z" fill="#0B0B2D"/>
<path d="M598.12 229.865C583.536 216.187 564.974 228.542 561.438 245.308C558.787 258.986 557.461 274.429 557.019 288.107C555.693 338.848 624.637 337.083 640.547 379C635.686 366.646 649.828 346.79 644.967 334.436C629.499 293.402 561.88 294.726 561.438 245.749C560.113 260.751 558.345 275.753 557.019 290.313C560.554 273.547 579.558 260.751 593.701 274.87C591.933 273.105 595.91 255.456 596.352 252.368C596.352 249.279 600.772 232.071 598.12 229.865Z" fill="#0B0B2D"/>
<path d="M680.077 557C660.131 557 639.947 554.238 619.525 548.715C599.579 543.652 582.719 534.446 568.947 521.098C555.649 508.211 549 490.03 549 466.556C549 451.827 551.612 437.098 556.836 422.369C562.06 407.64 551.901 433.888 559.5 421C565.674 409.953 608.127 468.397 619.525 455.509C631.398 442.621 644.458 430.424 658.706 418.917C672.953 407.41 687.676 397.974 702.873 390.61C718.071 382.785 732.318 378.873 745.616 378.873C748.465 378.873 750.365 380.484 751.315 383.706C752.74 386.928 755.114 389.69 758.439 391.991C759.863 392.451 761.051 392.911 762 393.372C763.425 393.372 764.85 393.832 766.275 394.753C768.649 395.673 769.837 397.054 769.837 398.895C769.837 401.196 768.412 402.347 765.562 402.347C762.238 402.347 759.151 401.887 756.301 400.966C753.927 399.585 751.077 398.895 747.753 398.895C738.73 398.895 728.281 400.966 716.408 405.109C705.01 408.791 695.037 412.703 686.489 416.846C668.917 425.131 653.007 436.638 638.759 451.367C624.987 466.095 596.729 372.199 588.181 390.61C580.107 409.021 576.07 427.892 576.07 447.224C576.07 469.317 582.244 486.578 594.592 499.005C607.415 511.893 623.325 520.868 642.321 525.931C661.793 530.994 681.027 533.526 700.024 533.526C720.445 533.526 742.529 530.994 766.275 525.931C790.496 520.868 814.241 513.274 837.512 503.148C861.258 493.022 882.629 480.594 901.626 465.865C920.623 451.136 935.82 434.106 947.218 414.775C959.091 395.443 965.028 374.04 965.028 350.566C965.028 337.218 960.991 325.481 952.917 315.355C944.844 305.229 934.158 296.023 920.86 287.738C908.038 279.453 894.502 271.168 880.255 262.883C866.007 254.598 852.235 245.853 838.937 236.648C826.114 227.442 815.666 217.086 807.593 205.579C799.519 194.072 795.482 180.494 795.482 164.845C795.482 146.894 800.944 129.633 811.867 113.063C822.79 96.0332 836.8 80.8441 853.897 67.4961C871.469 54.1481 889.991 43.5617 909.462 35.737C929.409 27.9123 948.168 24 965.74 24C978.088 24 989.011 26.7616 998.509 32.2849C1008.01 37.348 1012.76 46.7837 1012.76 60.5919C1012.76 66.1153 1012.04 72.0989 1010.62 78.5427L1012.04 79.9236C1013.47 78.5427 1016.08 75.3208 1019.88 70.2578C1024.15 64.7345 1028.19 59.6714 1031.99 55.0686C1036.27 50.4659 1038.88 48.1645 1039.83 48.1645C1041.25 48.1645 1041.96 48.8549 1041.96 50.2357C1041.96 50.696 1041.73 50.9261 1041.25 50.9261C1032.7 62.4331 1026.29 73.7099 1022.02 84.7565C1017.74 95.3428 1013.71 107.54 1009.91 121.348C1009.91 122.269 1009.2 122.729 1007.77 122.729C1005.87 122.729 1003.26 121.809 999.934 119.968C997.085 118.126 995.66 116.285 995.66 114.444C995.66 108 996.61 101.787 998.509 95.8031C1000.88 89.8195 1002.07 83.8359 1002.07 77.8523C1002.07 70.4879 999.459 64.9646 994.235 61.2824C989.486 57.6002 983.549 55.2988 976.426 54.3782C969.777 52.9974 963.365 52.307 957.191 52.307C944.844 52.307 931.071 54.3782 915.874 58.5207C901.151 62.6632 886.904 68.6468 873.131 76.4715C859.359 84.2962 847.961 93.962 838.937 105.469C829.914 116.516 825.402 128.943 825.402 142.751C825.402 154.258 829.201 164.384 836.8 173.13C844.399 181.875 853.422 189.469 863.87 195.913C874.318 201.897 884.054 207.42 893.078 212.483C907.325 219.848 922.285 228.823 937.957 239.409C954.105 249.996 967.64 262.193 978.563 276.001C989.961 289.81 995.66 305.689 995.66 323.64C995.66 352.637 989.011 379.333 975.713 403.728C962.416 427.662 944.606 449.295 922.285 468.627C899.964 487.498 875.031 503.378 847.486 516.266C819.94 529.614 791.683 539.74 762.713 546.644C733.743 553.548 706.198 557 680.077 557Z" fill="#0B0B2D"/>
<path d="M1144.58 199.365C1140.78 199.365 1134.84 197.984 1126.77 195.223C1119.17 192.001 1115.37 188.089 1115.37 183.486C1115.37 183.025 1115.37 182.795 1115.37 182.795C1115.85 182.335 1116.08 181.875 1116.08 181.414C1118.46 176.812 1123.68 174.05 1131.76 173.13C1140.31 172.209 1146.72 170.828 1150.99 168.987C1160.49 165.305 1169.75 162.313 1178.77 160.012C1187.8 157.71 1196.35 153.568 1204.42 147.584C1206.32 148.505 1207.27 149.425 1207.27 150.346C1207.27 152.187 1205.13 154.718 1200.86 157.94C1197.06 161.162 1194.45 163.924 1193.02 166.225C1191.12 168.987 1186.85 173.13 1180.2 178.653C1174.02 183.716 1167.38 188.549 1160.25 193.152C1153.13 197.294 1147.9 199.365 1144.58 199.365ZM1024.19 498.315C1016.59 498.315 1011.37 496.474 1008.52 492.791C1005.67 489.109 1004.24 483.816 1004.24 476.912C1004.24 461.723 1007.33 443.312 1013.5 421.679C1020.15 400.046 1027.51 378.183 1035.59 356.089C1043.66 333.536 1050.07 313.514 1054.82 296.023C1056.72 289.579 1061.23 285.207 1068.36 282.905C1075.95 280.144 1082.37 276.922 1087.59 273.24C1095.19 268.177 1103.26 264.034 1111.81 260.812C1120.36 257.13 1129.38 255.289 1138.88 255.289C1141.26 255.289 1142.68 255.749 1143.16 256.67C1144.1 257.59 1144.58 258.281 1144.58 258.741C1144.58 261.503 1142.92 262.883 1139.59 262.883C1132.94 262.883 1126.06 266.796 1118.93 274.62C1111.81 281.985 1104.69 291.651 1097.56 303.618C1090.44 315.585 1084.03 328.012 1078.33 340.9C1072.63 353.788 1067.64 365.755 1063.37 376.802C1059.09 387.388 1056.25 395.213 1054.82 400.276C1052.45 407.64 1050.07 416.386 1047.7 426.512C1045.32 436.177 1044.13 445.153 1044.13 453.438C1044.13 456.66 1044.61 460.572 1045.56 465.175C1046.51 469.317 1049.36 471.389 1054.11 471.389C1057.43 471.389 1060.99 470.238 1064.79 467.937C1075.24 461.953 1085.45 453.898 1095.43 443.772C1105.87 433.186 1115.37 421.909 1123.92 409.942C1132.94 397.514 1140.07 386.237 1145.29 376.111C1146.24 376.572 1146.72 377.492 1146.72 378.873C1146.72 381.635 1145.05 385.777 1141.73 391.301C1138.41 396.364 1134.61 401.887 1130.33 407.87C1126.06 413.854 1122.02 419.147 1118.22 423.75C1114.9 428.353 1113.24 431.114 1113.24 432.035C1112.76 435.717 1112.05 438.479 1111.1 440.32C1110.15 441.701 1108.72 444.232 1106.82 447.915C1101.12 453.438 1093.53 460.342 1084.03 468.627C1074.53 476.452 1064.56 483.356 1054.11 489.339C1043.66 495.323 1033.69 498.315 1024.19 498.315Z" fill="#0B0B2D"/>
</g>
<defs>
<clipPath id="clip0_718_6418">
<rect width="1385" height="557" fill="white"/>
</clipPath>
</defs>
</svg>
