<svg width="36" height="36" viewBox="0 0 36 36" fill="none" xmlns="http://www.w3.org/2000/svg">
<path d="M0 5.625C0 2.5184 2.5184 0 5.625 0H30.375C33.4816 0 36 2.5184 36 5.625V30.375C36 33.4816 33.4816 36 30.375 36H5.625C2.5184 36 0 33.4816 0 30.375V5.625Z" fill="black"/>
<path d="M16.3107 16.0878V15.3871C16.0706 15.355 15.8265 15.335 15.5745 15.335C12.5697 15.331 10.125 17.7777 10.125 20.789C10.125 22.6351 11.0452 24.2689 12.4536 25.258C11.5454 24.285 10.9892 22.9755 10.9892 21.5419C10.9892 18.5746 13.3659 16.1559 16.3107 16.0878Z" fill="#25F4EE"/>
<path d="M16.4423 24.0327C17.7827 24.0327 18.879 22.9635 18.927 21.6341L18.931 9.75284H21.0996C21.0556 9.50856 21.0316 9.25629 21.0316 9H18.0708L18.0667 20.8812C18.0188 22.2107 16.9224 23.2798 15.5821 23.2798C15.166 23.2798 14.7739 23.1757 14.4258 22.9915C14.8739 23.6202 15.6101 24.0327 16.4423 24.0327Z" fill="#25F4EE"/>
<path d="M25.1528 13.7855V13.1248C24.3246 13.1248 23.5564 12.8805 22.9082 12.4561C23.4843 13.1168 24.2646 13.5974 25.1528 13.7855Z" fill="#25F4EE"/>
<path d="M22.908 12.4559C22.2758 11.7311 21.8957 10.7861 21.8957 9.75293H21.1035C21.3075 10.8822 21.9797 11.8513 22.908 12.4559Z" fill="#FE2C55"/>
<path d="M15.5785 18.2945C14.2061 18.2945 13.0898 19.4117 13.0898 20.7852C13.0898 21.7423 13.634 22.5752 14.4262 22.9917C14.1301 22.5832 13.9541 22.0827 13.9541 21.5381C13.9541 20.1646 15.0704 19.0473 16.4428 19.0473C16.6988 19.0473 16.9469 19.0913 17.1789 19.1634V16.1361C16.9389 16.104 16.6948 16.084 16.4428 16.084C16.3987 16.084 16.3587 16.088 16.3147 16.088V18.4106C16.0786 18.3385 15.8346 18.2945 15.5785 18.2945Z" fill="#FE2C55"/>
<path d="M25.1526 13.7852V16.0877C23.6161 16.0877 22.1918 15.5952 21.0314 14.7622V20.7889C21.0314 23.7963 18.5868 26.247 15.578 26.247C14.4176 26.247 13.3374 25.8786 12.4531 25.2579C13.4494 26.3271 14.8698 26.9999 16.4422 26.9999C19.447 26.9999 21.8957 24.5531 21.8957 21.5418V15.5151C23.056 16.348 24.4803 16.8405 26.0168 16.8405V13.8773C25.7167 13.8773 25.4286 13.8452 25.1526 13.7852Z" fill="#FE2C55"/>
<path d="M21.031 20.7892V14.7625C22.1913 15.5954 23.6157 16.0879 25.1521 16.0879V13.7854C24.2639 13.5972 23.4836 13.1167 22.9075 12.4559C21.9792 11.8513 21.3111 10.8822 21.099 9.75293H18.9304L18.9264 21.6341C18.8784 22.9636 17.7821 24.0328 16.4418 24.0328C15.6095 24.0328 14.8773 23.6203 14.4212 22.9956C13.629 22.5752 13.0848 21.7463 13.0848 20.7892C13.0848 19.4157 14.2011 18.2984 15.5735 18.2984C15.8296 18.2984 16.0776 18.3424 16.3097 18.4145V16.0919C13.3649 16.156 10.9883 18.5747 10.9883 21.542C10.9883 22.9756 11.5444 24.2811 12.4527 25.2582C13.3369 25.8788 14.4172 26.2473 15.5775 26.2473C18.5823 26.2473 21.031 23.7965 21.031 20.7892Z" fill="white"/>
</svg>
