<svg width="36" height="36" viewBox="0 0 36 36" fill="none" xmlns="http://www.w3.org/2000/svg">
<path d="M30.375 0H5.625C2.5184 0 0 2.5184 0 5.625V30.375C0 33.4816 2.5184 36 5.625 36H30.375C33.4816 36 36 33.4816 36 30.375V5.625C36 2.5184 33.4816 0 30.375 0Z" fill="#F00073"/>
<path d="M17.9996 10.3496C20.4746 10.3496 20.8121 10.3496 21.8246 10.3496C22.7246 10.3496 23.1746 10.5746 23.5121 10.6871C23.9621 10.9121 24.2996 11.0246 24.6371 11.3621C24.9746 11.6996 25.1996 12.0371 25.3121 12.4871C25.4246 12.8246 25.5371 13.2746 25.6496 14.1746C25.6496 15.1871 25.6496 15.4121 25.6496 17.9996C25.6496 20.5871 25.6496 20.8121 25.6496 21.8246C25.6496 22.7246 25.4246 23.1746 25.3121 23.5121C25.0871 23.9621 24.9746 24.2996 24.6371 24.6371C24.2996 24.9746 23.9621 25.1996 23.5121 25.3121C23.1746 25.4246 22.7246 25.5371 21.8246 25.6496C20.8121 25.6496 20.5871 25.6496 17.9996 25.6496C15.4121 25.6496 15.1871 25.6496 14.1746 25.6496C13.2746 25.6496 12.8246 25.4246 12.4871 25.3121C12.0371 25.0871 11.6996 24.9746 11.3621 24.6371C11.0246 24.2996 10.7996 23.9621 10.6871 23.5121C10.5746 23.1746 10.4621 22.7246 10.3496 21.8246C10.3496 20.8121 10.3496 20.5871 10.3496 17.9996C10.3496 15.4121 10.3496 15.1871 10.3496 14.1746C10.3496 13.2746 10.5746 12.8246 10.6871 12.4871C10.9121 12.0371 11.0246 11.6996 11.3621 11.3621C11.6996 11.0246 12.0371 10.7996 12.4871 10.6871C12.8246 10.5746 13.2746 10.4621 14.1746 10.3496C15.1871 10.3496 15.5246 10.3496 17.9996 10.3496ZM17.9996 8.66211C15.4121 8.66211 15.1871 8.66211 14.1746 8.66211C13.1621 8.66211 12.4871 8.88711 11.9246 9.11211C11.3621 9.33711 10.7996 9.67461 10.2371 10.2371C9.67461 10.7996 9.44961 11.2496 9.11211 11.9246C8.88711 12.4871 8.77461 13.1621 8.66211 14.1746C8.66211 15.1871 8.66211 15.5246 8.66211 17.9996C8.66211 20.5871 8.66211 20.8121 8.66211 21.8246C8.66211 22.8371 8.88711 23.5121 9.11211 24.0746C9.33711 24.6371 9.67461 25.1996 10.2371 25.7621C10.7996 26.3246 11.2496 26.5496 11.9246 26.8871C12.4871 27.1121 13.1621 27.2246 14.1746 27.3371C15.1871 27.3371 15.5246 27.3371 17.9996 27.3371C20.4746 27.3371 20.8121 27.3371 21.8246 27.3371C22.8371 27.3371 23.5121 27.1121 24.0746 26.8871C24.6371 26.6621 25.1996 26.3246 25.7621 25.7621C26.3246 25.1996 26.5496 24.7496 26.8871 24.0746C27.1121 23.5121 27.2246 22.8371 27.3371 21.8246C27.3371 20.8121 27.3371 20.4746 27.3371 17.9996C27.3371 15.5246 27.3371 15.1871 27.3371 14.1746C27.3371 13.1621 27.1121 12.4871 26.8871 11.9246C26.6621 11.3621 26.3246 10.7996 25.7621 10.2371C25.1996 9.67461 24.7496 9.44961 24.0746 9.11211C23.5121 8.88711 22.8371 8.77461 21.8246 8.66211C20.8121 8.66211 20.5871 8.66211 17.9996 8.66211Z" fill="white"/>
<path d="M17.9996 13.1621C15.2996 13.1621 13.1621 15.2996 13.1621 17.9996C13.1621 20.6996 15.2996 22.8371 17.9996 22.8371C20.6996 22.8371 22.8371 20.6996 22.8371 17.9996C22.8371 15.2996 20.6996 13.1621 17.9996 13.1621ZM17.9996 21.1496C16.3121 21.1496 14.8496 19.7996 14.8496 17.9996C14.8496 16.3121 16.1996 14.8496 17.9996 14.8496C19.6871 14.8496 21.1496 16.1996 21.1496 17.9996C21.1496 19.6871 19.6871 21.1496 17.9996 21.1496Z" fill="white"/>
<path d="M22.9496 14.1746C23.5709 14.1746 24.0746 13.6709 24.0746 13.0496C24.0746 12.4283 23.5709 11.9246 22.9496 11.9246C22.3283 11.9246 21.8246 12.4283 21.8246 13.0496C21.8246 13.6709 22.3283 14.1746 22.9496 14.1746Z" fill="white"/>
</svg>
