<svg width="36" height="36" viewBox="0 0 36 36" fill="none" xmlns="http://www.w3.org/2000/svg">
<path d="M30.375 0H5.625C2.5184 0 0 2.5184 0 5.625V30.375C0 33.4816 2.5184 36 5.625 36H30.375C33.4816 36 36 33.4816 36 30.375V5.625C36 2.5184 33.4816 0 30.375 0Z" fill="#9397AA"/>
<mask id="mask0_1078_10431" style="mask-type:alpha" maskUnits="userSpaceOnUse" x="6" y="6" width="24" height="24">
<rect x="6" y="6" width="24" height="24" fill="#D9D9D9"/>
</mask>
<g mask="url(#mask0_1078_10431)">
<path d="M18 27.5C16.6974 27.5 15.4683 27.2503 14.3125 26.7509C13.1567 26.2516 12.1487 25.5718 11.2885 24.7115C10.4282 23.8512 9.7484 22.8432 9.24905 21.6875C8.74968 20.5317 8.5 19.3025 8.5 18C8.5 16.6872 8.74968 15.4554 9.24905 14.3048C9.7484 13.1542 10.4282 12.1487 11.2885 11.2885C12.1487 10.4282 13.1567 9.7484 14.3125 9.24905C15.4683 8.74968 16.6974 8.5 18 8.5C19.3128 8.5 20.5445 8.74968 21.6952 9.24905C22.8458 9.7484 23.8512 10.4282 24.7115 11.2885C25.5718 12.1487 26.2516 13.1542 26.7509 14.3048C27.2503 15.4554 27.5 16.6872 27.5 18C27.5 19.3025 27.2503 20.5317 26.7509 21.6875C26.2516 22.8432 25.5718 23.8512 24.7115 24.7115C23.8512 25.5718 22.8458 26.2516 21.6952 26.7509C20.5445 27.2503 19.3128 27.5 18 27.5ZM18 25.9788C18.5102 25.3019 18.9397 24.6192 19.2885 23.9307C19.6372 23.2423 19.9211 22.4897 20.1404 21.673H15.8596C16.0916 22.5153 16.3788 23.2807 16.7211 23.9692C17.0634 24.6577 17.4897 25.3275 18 25.9788ZM16.0635 25.7038C15.6801 25.1538 15.3359 24.5285 15.0308 23.8279C14.7256 23.1272 14.4885 22.4089 14.3192 21.673H10.9269C11.4551 22.7115 12.1634 23.584 13.0519 24.2904C13.9404 24.9968 14.9442 25.4679 16.0635 25.7038ZM19.9365 25.7038C21.0557 25.4679 22.0596 24.9968 22.9481 24.2904C23.8365 23.584 24.5449 22.7115 25.0731 21.673H21.6807C21.4794 22.4153 21.2262 23.1368 20.9211 23.8375C20.616 24.5381 20.2878 25.1602 19.9365 25.7038ZM10.2981 20.1731H14.0154C13.9526 19.8013 13.9071 19.4369 13.8789 19.0798C13.8507 18.7227 13.8366 18.3628 13.8366 18C13.8366 17.6372 13.8507 17.2772 13.8789 16.9202C13.9071 16.5631 13.9526 16.1987 14.0154 15.8269H10.2981C10.2019 16.1666 10.1282 16.5198 10.0769 16.8865C10.0256 17.2532 9.99998 17.6243 9.99998 18C9.99998 18.3756 10.0256 18.7468 10.0769 19.1135C10.1282 19.4801 10.2019 19.8333 10.2981 20.1731ZM15.5154 20.1731H20.4846C20.5474 19.8013 20.5929 19.4401 20.6212 19.0894C20.6494 18.7388 20.6635 18.3756 20.6635 18C20.6635 17.6243 20.6494 17.2612 20.6212 16.9106C20.5929 16.5599 20.5474 16.1987 20.4846 15.8269H15.5154C15.4525 16.1987 15.407 16.5599 15.3788 16.9106C15.3506 17.2612 15.3365 17.6243 15.3365 18C15.3365 18.3756 15.3506 18.7388 15.3788 19.0894C15.407 19.4401 15.4525 19.8013 15.5154 20.1731ZM21.9846 20.1731H25.7019C25.7981 19.8333 25.8718 19.4801 25.9231 19.1135C25.9743 18.7468 26 18.3756 26 18C26 17.6243 25.9743 17.2532 25.9231 16.8865C25.8718 16.5198 25.7981 16.1666 25.7019 15.8269H21.9846C22.0474 16.1987 22.0929 16.5631 22.1211 16.9202C22.1493 17.2772 22.1634 17.6372 22.1634 18C22.1634 18.3628 22.1493 18.7227 22.1211 19.0798C22.0929 19.4369 22.0474 19.8013 21.9846 20.1731ZM21.6807 14.3269H25.0731C24.5384 13.2756 23.8349 12.4032 22.9625 11.7096C22.09 11.016 21.0814 10.5416 19.9365 10.2865C20.3198 10.8686 20.6608 11.5051 20.9596 12.1961C21.2583 12.8872 21.4987 13.5974 21.6807 14.3269ZM15.8596 14.3269H20.1404C19.9083 13.491 19.6163 12.7208 19.2644 12.0163C18.9125 11.3118 18.491 10.6468 18 10.0211C17.5089 10.6468 17.0875 11.3118 16.7356 12.0163C16.3836 12.7208 16.0916 13.491 15.8596 14.3269ZM10.9269 14.3269H14.3192C14.5013 13.5974 14.7417 12.8872 15.0404 12.1961C15.3391 11.5051 15.6801 10.8686 16.0635 10.2865C14.9122 10.5416 13.9019 11.0176 13.0327 11.7144C12.1634 12.4112 11.4615 13.282 10.9269 14.3269Z" fill="white"/>
</g>
</svg>
