<svg width="36" height="36" viewBox="0 0 36 36" fill="none" xmlns="http://www.w3.org/2000/svg">
<path d="M30.375 0H5.625C2.5184 0 0 2.5184 0 5.625V30.375C0 33.4816 2.5184 36 5.625 36H30.375C33.4816 36 36 33.4816 36 30.375V5.625C36 2.5184 33.4816 0 30.375 0Z" fill="#FF0000"/>
<path d="M26.55 13.6127C26.325 12.8252 25.7625 12.2627 24.975 12.0377C23.625 11.7002 17.8875 11.7002 17.8875 11.7002C17.8875 11.7002 12.2625 11.7002 10.8 12.0377C10.0125 12.2627 9.45 12.8252 9.225 13.6127C9 15.0752 9 18.0002 9 18.0002C9 18.0002 9 20.9252 9.3375 22.3877C9.5625 23.1752 10.125 23.7377 10.9125 23.9627C12.2625 24.3002 18 24.3002 18 24.3002C18 24.3002 23.625 24.3002 25.0875 23.9627C25.875 23.7377 26.4375 23.1752 26.6625 22.3877C27 20.9252 27 18.0002 27 18.0002C27 18.0002 27 15.0752 26.55 13.6127ZM16.2 20.7002V15.3002L20.925 18.0002L16.2 20.7002Z" fill="white"/>
</svg>
