<svg width="44" height="44" viewBox="0 0 44 44" fill="none" xmlns="http://www.w3.org/2000/svg">
<rect width="44" height="44" rx="8" fill="#F7F8FC"/>
<mask id="mask0_178_10305" style="mask-type:alpha" maskUnits="userSpaceOnUse" x="4" y="4" width="36" height="36">
<rect x="4" y="4" width="36" height="36" fill="#D9D9D9"/>
</mask>
<g mask="url(#mask0_178_10305)">
<path d="M10 34V26.5H11.5V31.4384L16.9 26.0385L17.9616 27.1L12.5616 32.5H17.5V34H10ZM26.5 34V32.5H31.4384L26.0385 27.1L27.1 26.0385L32.5 31.4384V26.5H34V34H26.5ZM16.9 17.9615L11.5 12.5615V17.5H10V10H17.5V11.5H12.5616L17.9616 16.9L16.9 17.9615ZM27.1 17.9615L26.0385 16.9L31.4384 11.5H26.5V10H34V17.5H32.5V12.5615L27.1 17.9615Z" fill="#1C1B1F"/>
</g>
</svg>
