<svg width="46" height="46" viewBox="0 0 46 46" fill="none" xmlns="http://www.w3.org/2000/svg">
<rect width="46" height="46" rx="23" fill="#F7F8FC"/>
<path fill-rule="evenodd" clip-rule="evenodd" d="M32 22.9615C32 23.5351 31.5351 24 30.9615 24L15.0385 24C14.4649 24 14 23.5351 14 22.9615C14 22.388 14.4649 21.9231 15.0385 21.9231L30.9615 21.9231C31.5351 21.9231 32 22.388 32 22.9615Z" fill="#6768AB"/>
<path fill-rule="evenodd" clip-rule="evenodd" d="M22.9615 14C23.5351 14 24 14.4649 24 15.0385L24 30.9615C24 31.5351 23.5351 32 22.9615 32C22.388 32 21.9231 31.5351 21.9231 30.9615L21.9231 15.0385C21.9231 14.4649 22.388 14 22.9615 14Z" fill="#6768AB"/>
</svg>
