<svg width="35" height="36" viewBox="0 0 35 36" fill="none" xmlns="http://www.w3.org/2000/svg">
<path d="M1 17.9461C1 8.03475 -7.03474 0 -16.9461 0H-37C-48.2011 0 -53.8016 0 -58.0798 2.17987C-61.8431 4.09734 -64.9027 7.15695 -66.8201 10.9202C-69 15.1984 -69 20.7989 -69 32V130C-69 141.201 -69 146.802 -66.8201 151.08C-64.9027 154.843 -61.8431 157.903 -58.0798 159.82C-53.8016 162 -48.2011 162 -37 162H18C29.2011 162 34.8016 162 39.0798 159.82C42.8431 157.903 45.9027 154.843 47.8201 151.08C50 146.802 50 141.201 50 130V60.3922C50 56.211 50 54.1205 49.6885 52.3763C48.2161 44.1307 41.7615 37.6762 33.5159 36.2037C31.7718 35.8922 29.6812 35.8922 25.5 35.8922H18.9461C9.03474 35.8922 1 27.8575 1 17.9461Z" fill="white"/>
</svg>
