<svg width="70" height="92" viewBox="0 0 70 92" fill="none" xmlns="http://www.w3.org/2000/svg">
<g clip-path="url(#clip0_2836_14)">
<mask id="path-1-outside-1_2836_14" maskUnits="userSpaceOnUse" x="0" y="0" width="70" height="91" fill="black">
<rect fill="white" width="70" height="91"/>
<path d="M4.12 88L7 70H25.96L33.52 21.76L43.48 22.36L14.2 37.72L17.44 16.72L42.88 3.39999H58.6L48.04 70H65.68L62.8 88H4.12Z"/>
</mask>
<path d="M4.12 88L1.15768 87.526L0.601843 91H4.12V88ZM7 70V67H4.44184L4.03768 69.526L7 70ZM25.96 70V73H28.5265L28.9238 70.4645L25.96 70ZM33.52 21.76L33.7004 18.7654L30.9784 18.6014L30.5562 21.2955L33.52 21.76ZM43.48 22.36L44.8736 25.0166L54.4117 20.0131L43.6604 19.3654L43.48 22.36ZM14.2 37.72L11.2351 37.2626L10.3285 43.1387L15.5936 40.3766L14.2 37.72ZM17.44 16.72L16.0484 14.0623L14.7061 14.7651L14.4751 16.2626L17.44 16.72ZM42.88 3.39999V0.399995H42.1421L41.4884 0.742255L42.88 3.39999ZM58.6 3.39999L61.563 3.8698L62.1132 0.399995H58.6V3.39999ZM48.04 70L45.077 69.5302L44.5269 73H48.04V70ZM65.68 70L68.6423 70.474L69.1982 67H65.68V70ZM62.8 88V91H65.3582L65.7623 88.474L62.8 88ZM7.08232 88.474L9.96232 70.474L4.03768 69.526L1.15768 87.526L7.08232 88.474ZM7 73H25.96V67H7V73ZM28.9238 70.4645L36.4838 22.2245L30.5562 21.2955L22.9962 69.5355L28.9238 70.4645ZM33.3396 24.7546L43.2996 25.3546L43.6604 19.3654L33.7004 18.7654L33.3396 24.7546ZM42.0864 19.7034L12.8064 35.0634L15.5936 40.3766L44.8736 25.0166L42.0864 19.7034ZM17.1649 38.1774L20.4049 17.1774L14.4751 16.2626L11.2351 37.2626L17.1649 38.1774ZM18.8316 19.3777L44.2716 6.05773L41.4884 0.742255L16.0484 14.0623L18.8316 19.3777ZM42.88 6.39999H58.6V0.399995H42.88V6.39999ZM55.637 2.93019L45.077 69.5302L51.003 70.4698L61.563 3.8698L55.637 2.93019ZM48.04 73H65.68V67H48.04V73ZM62.7177 69.526L59.8377 87.526L65.7623 88.474L68.6423 70.474L62.7177 69.526ZM62.8 85H4.12V91H62.8V85Z" fill="#D75078" mask="url(#path-1-outside-1_2836_14)"/>
</g>
<defs>
<clipPath id="clip0_2836_14">
<rect width="70" height="92" fill="white"/>
</clipPath>
</defs>
</svg>
