<svg width="151" height="94" viewBox="0 0 151 94" fill="none" xmlns="http://www.w3.org/2000/svg">
<g clip-path="url(#clip0_2836_14)">
<mask id="path-1-outside-1_2836_14" maskUnits="userSpaceOnUse" x="0" y="0" width="151" height="94" fill="black">
<rect fill="white" width="151" height="94"/>
<path d="M4.12 89L7 71H25.96L33.52 22.76L43.48 23.36L14.2 38.72L17.44 17.72L42.88 4.39999H58.6L48.04 71H65.68L62.8 89H4.12ZM108.713 90.32C97.4331 90.32 89.5531 86.28 85.0731 78.2C80.6731 70.12 79.5931 58.8 81.8331 44.24C84.1531 30.08 88.3931 19.68 94.5531 13.04C100.793 6.4 108.953 3.08 119.033 3.08C129.913 3.08 137.673 6.88 142.313 14.48C147.033 22.08 148.233 33.44 145.913 48.56C143.673 62.64 139.313 73.12 132.833 80C126.353 86.88 118.313 90.32 108.713 90.32ZM110.153 72.68C113.833 72.68 116.913 70.68 119.393 66.68C121.873 62.6 123.793 56.16 125.153 47.36C126.273 40.48 126.713 35.12 126.473 31.28C126.233 27.36 125.353 24.6 123.833 23C122.313 21.4 120.233 20.6 117.593 20.6C113.913 20.6 110.833 22.52 108.353 26.36C105.953 30.12 104.073 36.44 102.713 45.32C101.593 52.12 101.153 57.56 101.393 61.64C101.633 65.64 102.513 68.48 104.033 70.16C105.553 71.84 107.593 72.68 110.153 72.68Z"/>
</mask>
<path d="M4.12 89L1.15768 88.526L0.601843 92H4.12V89ZM7 71V68H4.44184L4.03768 70.526L7 71ZM25.96 71V74H28.5265L28.9238 71.4645L25.96 71ZM33.52 22.76L33.7004 19.7654L30.9784 19.6014L30.5562 22.2955L33.52 22.76ZM43.48 23.36L44.8736 26.0166L54.4117 21.0131L43.6604 20.3654L43.48 23.36ZM14.2 38.72L11.2351 38.2626L10.3285 44.1387L15.5936 41.3766L14.2 38.72ZM17.44 17.72L16.0484 15.0623L14.7061 15.7651L14.4751 17.2626L17.44 17.72ZM42.88 4.39999V1.39999H42.1421L41.4884 1.74225L42.88 4.39999ZM58.6 4.39999L61.563 4.8698L62.1132 1.39999H58.6V4.39999ZM48.04 71L45.077 70.5302L44.5269 74H48.04V71ZM65.68 71L68.6423 71.474L69.1982 68H65.68V71ZM62.8 89V92H65.3582L65.7623 89.474L62.8 89ZM7.08232 89.474L9.96232 71.474L4.03768 70.526L1.15768 88.526L7.08232 89.474ZM7 74H25.96V68H7V74ZM28.9238 71.4645L36.4838 23.2245L30.5562 22.2955L22.9962 70.5355L28.9238 71.4645ZM33.3396 25.7546L43.2996 26.3546L43.6604 20.3654L33.7004 19.7654L33.3396 25.7546ZM42.0864 20.7034L12.8064 36.0634L15.5936 41.3766L44.8736 26.0166L42.0864 20.7034ZM17.1649 39.1774L20.4049 18.1774L14.4751 17.2626L11.2351 38.2626L17.1649 39.1774ZM18.8316 20.3777L44.2716 7.05773L41.4884 1.74225L16.0484 15.0623L18.8316 20.3777ZM42.88 7.39999H58.6V1.39999H42.88V7.39999ZM55.637 3.93019L45.077 70.5302L51.003 71.4698L61.563 4.8698L55.637 3.93019ZM48.04 74H65.68V68H48.04V74ZM62.7177 70.526L59.8377 88.526L65.7623 89.474L68.6423 71.474L62.7177 70.526ZM62.8 86H4.12V92H62.8V86ZM85.0731 78.2L82.4384 79.6347L82.4439 79.6447L82.4494 79.6547L85.0731 78.2ZM81.8331 44.24L78.8726 43.7549L78.8702 43.7694L78.868 43.7838L81.8331 44.24ZM94.5531 13.04L92.367 10.9855L92.3604 10.9926L92.3538 10.9997L94.5531 13.04ZM142.313 14.48L139.753 16.0433L139.759 16.053L139.765 16.0628L142.313 14.48ZM145.913 48.56L148.876 49.0313L148.877 49.0232L148.878 49.015L145.913 48.56ZM132.833 80L135.017 82.0569L135.017 82.0569L132.833 80ZM119.393 66.68L121.943 68.2608L121.95 68.2496L121.957 68.2382L119.393 66.68ZM125.153 47.36L122.192 46.878L122.19 46.8899L122.188 46.9018L125.153 47.36ZM126.473 31.28L123.479 31.4633L123.479 31.4671L126.473 31.28ZM123.833 23L121.658 25.0662L121.658 25.0662L123.833 23ZM108.353 26.36L105.833 24.7324L105.829 24.7391L105.824 24.7459L108.353 26.36ZM102.713 45.32L105.673 45.8075L105.676 45.7909L105.679 45.7742L102.713 45.32ZM101.393 61.64L98.3983 61.8162L98.3985 61.8197L101.393 61.64ZM108.713 87.32C98.2385 87.32 91.523 83.646 87.6968 76.7453L82.4494 79.6547C87.5833 88.914 96.6277 93.32 108.713 93.32V87.32ZM87.7078 76.7653C83.761 69.5176 82.6024 58.9688 84.7982 44.6962L78.868 43.7838C76.5838 58.6312 77.5852 70.7224 82.4384 79.6347L87.7078 76.7653ZM84.7937 44.7251C87.0694 30.8351 91.1649 21.1033 96.7524 15.0803L92.3538 10.9997C85.6214 18.2567 81.2368 29.3249 78.8726 43.7549L84.7937 44.7251ZM96.7393 15.0944C102.349 9.12533 109.684 6.08 119.033 6.08V0.0799975C108.223 0.0799975 99.2374 3.67467 92.367 10.9855L96.7393 15.0944ZM119.033 6.08C129.137 6.08 135.784 9.54371 139.753 16.0433L144.874 12.9167C139.562 4.21628 130.689 0.0799975 119.033 0.0799975V6.08ZM139.765 16.0628C143.919 22.7515 145.23 33.233 142.948 48.105L148.878 49.015C151.236 33.647 150.148 21.4085 144.862 12.8972L139.765 16.0628ZM142.95 48.0887C140.76 61.8577 136.556 71.6722 130.649 77.9431L135.017 82.0569C142.071 74.5678 146.586 63.4223 148.876 49.0313L142.95 48.0887ZM130.649 77.9431C124.746 84.2106 117.501 87.32 108.713 87.32V93.32C119.125 93.32 127.96 89.5494 135.017 82.0569L130.649 77.9431ZM110.153 75.68C115.163 75.68 119.09 72.8626 121.943 68.2608L116.843 65.0992C114.737 68.4974 112.503 69.68 110.153 69.68V75.68ZM121.957 68.2382C124.749 63.644 126.741 56.7295 128.118 47.8182L122.188 46.9018C120.846 55.5905 118.997 61.556 116.83 65.1218L121.957 68.2382ZM128.114 47.842C129.246 40.8883 129.728 35.2679 129.467 31.0929L123.479 31.4671C123.698 34.9721 123.3 40.0717 122.192 46.878L128.114 47.842ZM129.468 31.0967C129.215 26.9644 128.271 23.3153 126.008 20.9337L121.658 25.0662C122.436 25.8847 123.252 27.7556 123.479 31.4633L129.468 31.0967ZM126.008 20.9338C123.812 18.622 120.881 17.6 117.593 17.6V23.6C119.585 23.6 120.814 24.178 121.658 25.0662L126.008 20.9338ZM117.593 17.6C112.642 17.6 108.713 20.2736 105.833 24.7324L110.873 27.9876C112.954 24.7664 115.185 23.6 117.593 23.6V17.6ZM105.824 24.7459C103.07 29.0611 101.12 35.9074 99.7477 44.8658L105.679 45.7742C107.027 36.9726 108.836 31.1789 110.882 27.9741L105.824 24.7459ZM99.753 44.8324C98.6179 51.7243 98.1394 57.4146 98.3983 61.8162L104.388 61.4638C104.167 57.7054 104.568 52.5157 105.673 45.8075L99.753 44.8324ZM98.3985 61.8197C98.6513 66.0329 99.5931 69.7241 101.809 72.1727L106.258 68.1473C105.433 67.2358 104.615 65.2471 104.388 61.4603L98.3985 61.8197ZM101.809 72.1727C103.974 74.5665 106.867 75.68 110.153 75.68V69.68C108.319 69.68 107.132 69.1135 106.258 68.1473L101.809 72.1727Z" fill="#D75078" mask="url(#path-1-outside-1_2836_14)"/>
</g>
<defs>
<clipPath id="clip0_2836_14">
<rect width="151" height="94" fill="white"/>
</clipPath>
</defs>
</svg>
