<svg width="77" height="94" viewBox="0 0 77 94" fill="none" xmlns="http://www.w3.org/2000/svg">
<g clip-path="url(#clip0_2836_14)">
<mask id="path-1-outside-1_2836_14" maskUnits="userSpaceOnUse" x="0" y="0" width="77" height="94" fill="black">
<rect fill="white" width="77" height="94"/>
<path d="M28.56 90.32C23.92 90.32 19.48 89.68 15.24 88.4C11 87.04 7.32 84.96 4.2 82.16L11.64 65.84C14.2 68 17 69.6 20.04 70.64C23.16 71.68 26.36 72.2 29.64 72.2C35.72 72.2 40.6 70.36 44.28 66.68C47.96 63 50.36 57.4 51.48 49.88L52.44 43.64H54.36C52.52 48.76 49.68 52.76 45.84 55.64C42.08 58.52 37.48 59.96 32.04 59.96C27.32 59.96 23.16 58.76 19.56 56.36C16.04 53.88 13.44 50.4 11.76 45.92C10.16 41.44 9.8 36.16 10.68 30.08C11.64 24.16 13.64 19.2 16.68 15.2C19.72 11.12 23.52 8.08 28.08 6.07999C32.72 4.08 37.8 3.08 43.32 3.08C51.08 3.08 57.36 4.92 62.16 8.6C66.96 12.2 70.2 17.4 71.88 24.2C73.56 30.92 73.68 38.96 72.24 48.32C70.8 57.6 68.04 65.36 63.96 71.6C59.96 77.84 54.92 82.52 48.84 85.64C42.76 88.76 36 90.32 28.56 90.32ZM39.6 43.16C42.96 43.16 45.64 42.12 47.64 40.04C49.72 37.96 51 35.24 51.48 31.88C52.04 28.2 51.48 25.28 49.8 23.12C48.2 20.96 45.76 19.88 42.48 19.88C39.04 19.88 36.32 20.92 34.32 23C32.4 25 31.2 27.72 30.72 31.16C30.16 34.84 30.68 37.76 32.28 39.92C33.96 42.08 36.4 43.16 39.6 43.16Z"/>
</mask>
<path d="M15.24 88.4L14.3237 91.2566L14.3483 91.2645L14.373 91.272L15.24 88.4ZM4.2 82.16L1.47028 80.9156L0.556126 82.9208L2.19627 84.3927L4.2 82.16ZM11.64 65.84L13.5746 63.5471L10.5512 60.9961L8.91028 64.5956L11.64 65.84ZM20.04 70.64L19.0689 73.4785L19.0801 73.4823L19.0913 73.486L20.04 70.64ZM51.48 49.88L48.5149 49.4238L48.5138 49.4309L48.5127 49.4381L51.48 49.88ZM52.44 43.64V40.64H49.8662L49.4749 43.1838L52.44 43.64ZM54.36 43.64L57.1832 44.6546L58.626 40.64H54.36V43.64ZM45.84 55.64L44.04 53.24L44.0278 53.2491L44.0158 53.2584L45.84 55.64ZM19.56 56.36L17.8321 58.8124L17.8637 58.8347L17.8959 58.8561L19.56 56.36ZM11.76 45.92L8.93478 46.929L8.94272 46.9513L8.95101 46.9734L11.76 45.92ZM10.68 30.08L7.71868 29.5998L7.7146 29.625L7.71094 29.6503L10.68 30.08ZM16.68 15.2L19.0685 17.0152L19.0771 17.0039L19.0856 16.9924L16.68 15.2ZM28.08 6.07999L26.8925 3.32502L26.8838 3.3288L26.875 3.33263L28.08 6.07999ZM62.16 8.6L60.3347 10.9808L60.3473 10.9905L60.36 11L62.16 8.6ZM71.88 24.2L68.9676 24.9195L68.9696 24.9276L71.88 24.2ZM72.24 48.32L75.2045 48.78L75.2051 48.7762L72.24 48.32ZM63.96 71.6L61.4491 69.9583L61.4417 69.9696L61.4344 69.981L63.96 71.6ZM48.84 85.64L47.4703 82.9709L48.84 85.64ZM47.64 40.04L45.5187 37.9187L45.4979 37.9395L45.4775 37.9607L47.64 40.04ZM51.48 31.88L48.5141 31.4287L48.5121 31.4422L48.5102 31.4557L51.48 31.88ZM49.8 23.12L47.3893 24.9057L47.4103 24.934L47.4319 24.9618L49.8 23.12ZM34.32 23L32.1575 20.9207L32.1558 20.9224L34.32 23ZM30.72 31.16L33.6859 31.6113L33.6886 31.593L33.6912 31.5746L30.72 31.16ZM32.28 39.92L29.8693 41.7057L29.8903 41.734L29.9119 41.7618L32.28 39.92ZM28.56 87.32C24.1997 87.32 20.0527 86.7192 16.107 85.528L14.373 91.272C18.9073 92.6408 23.6403 93.32 28.56 93.32V87.32ZM16.1563 85.5434C12.2932 84.3043 8.98992 82.4277 6.20373 79.9273L2.19627 84.3927C5.65008 87.4923 9.7068 89.7757 14.3237 91.2566L16.1563 85.5434ZM6.92972 83.4044L14.3697 67.0844L8.91028 64.5956L1.47028 80.9156L6.92972 83.4044ZM9.70539 68.1329C12.5377 70.5226 15.6618 72.3129 19.0689 73.4785L21.0111 67.8015C18.3382 66.8871 15.8623 65.4774 13.5746 63.5471L9.70539 68.1329ZM19.0913 73.486C22.5164 74.6277 26.0367 75.2 29.64 75.2V69.2C26.6833 69.2 23.8036 68.7323 20.9887 67.7939L19.0913 73.486ZM29.64 75.2C36.3712 75.2 42.0642 73.1385 46.4013 68.8013L42.1587 64.5587C39.1358 67.5815 35.0688 69.2 29.64 69.2V75.2ZM46.4013 68.8013C50.7026 64.5001 53.2744 58.1968 54.4473 50.3219L48.5127 49.4381C47.4456 56.6032 45.2174 61.4999 42.1587 64.5587L46.4013 68.8013ZM54.4451 50.3362L55.4051 44.0962L49.4749 43.1838L48.5149 49.4238L54.4451 50.3362ZM52.44 46.64H54.36V40.64H52.44V46.64ZM51.5368 42.6254C49.8678 47.2695 47.3502 50.7574 44.04 53.24L47.64 58.04C52.0098 54.7626 55.1722 50.2505 57.1832 44.6546L51.5368 42.6254ZM44.0158 53.2584C40.8552 55.6792 36.9229 56.96 32.04 56.96V62.96C38.0371 62.96 43.3048 61.3608 47.6642 58.0216L44.0158 53.2584ZM32.04 56.96C27.8561 56.96 24.2865 55.9055 21.2241 53.8638L17.8959 58.8561C22.0335 61.6145 26.7839 62.96 32.04 62.96V56.96ZM21.2879 53.9076C18.3147 51.8128 16.0618 48.8476 14.569 44.8666L8.95101 46.9734C10.8182 51.9524 13.7653 55.9472 17.8321 58.8124L21.2879 53.9076ZM14.5852 44.911C13.1907 41.0064 12.8193 36.2425 13.6491 30.5097L7.71094 29.6503C6.78068 36.0775 7.12928 41.8736 8.93478 46.929L14.5852 44.911ZM13.6413 30.5602C14.5378 25.0318 16.3785 20.5548 19.0685 17.0152L14.2915 13.3847C10.9015 17.8452 8.74219 23.2882 7.71868 29.5998L13.6413 30.5602ZM19.0856 16.9924C21.8221 13.3199 25.212 10.6138 29.285 8.82736L26.875 3.33263C21.828 5.54622 17.618 8.92009 14.2744 13.4076L19.0856 16.9924ZM29.2675 8.83497C33.499 7.01104 38.1703 6.08 43.32 6.08V0.0799975C37.4297 0.0799975 31.941 1.14896 26.8925 3.32502L29.2675 8.83497ZM43.32 6.08C50.6085 6.08 56.1906 7.80365 60.3347 10.9808L63.9853 6.21918C58.5294 2.03635 51.5515 0.0799975 43.32 0.0799975V6.08ZM60.36 11C64.5166 14.1174 67.4244 18.6733 68.9676 24.9195L74.7924 23.4805C72.9756 16.1267 69.4034 10.2826 63.96 6.2L60.36 11ZM68.9696 24.9276C70.5243 31.1465 70.6751 38.7624 69.2749 47.8638L75.2051 48.7762C76.6849 39.1576 76.5957 30.6935 74.7904 23.4724L68.9696 24.9276ZM69.2755 47.86C67.8845 56.8243 65.2432 64.1554 61.4491 69.9583L66.4709 73.2417C70.8368 66.5646 73.7155 58.3757 75.2045 48.78L69.2755 47.86ZM61.4344 69.981C57.6953 75.814 53.0396 80.113 47.4703 82.9709L50.2097 88.3091C56.8004 84.927 62.2247 79.866 66.4856 73.219L61.4344 69.981ZM47.4703 82.9709C41.8509 85.8546 35.5668 87.32 28.56 87.32V93.32C36.4332 93.32 43.6691 91.6654 50.2097 88.3091L47.4703 82.9709ZM39.6 46.16C43.6302 46.16 47.1432 44.885 49.8025 42.1193L45.4775 37.9607C44.1368 39.355 42.2898 40.16 39.6 40.16V46.16ZM49.7613 42.1613C52.3687 39.5539 53.8928 36.2039 54.4499 32.3043L48.5102 31.4557C48.1073 34.276 47.0713 36.3661 45.5187 37.9187L49.7613 42.1613ZM54.4459 32.3313C55.0836 28.1407 54.5153 24.296 52.1681 21.2782L47.4319 24.9618C48.4447 26.264 48.9964 28.2593 48.5141 31.4287L54.4459 32.3313ZM52.2107 21.3343C49.9184 18.2398 46.476 16.88 42.48 16.88V22.88C45.044 22.88 46.4816 23.6802 47.3893 24.9057L52.2107 21.3343ZM42.48 16.88C38.3932 16.88 34.8306 18.1407 32.1575 20.9207L36.4825 25.0793C37.8094 23.6993 39.6868 22.88 42.48 22.88V16.88ZM32.1558 20.9224C29.6987 23.4819 28.2938 26.8397 27.7488 30.7454L33.6912 31.5746C34.1062 28.6003 35.1013 26.518 36.4842 25.0776L32.1558 20.9224ZM27.7541 30.7087C27.1211 34.8685 27.635 38.6893 29.8693 41.7057L34.6907 38.1343C33.725 36.8307 33.1989 34.8115 33.6859 31.6113L27.7541 30.7087ZM29.9119 41.7618C32.2606 44.7815 35.6508 46.16 39.6 46.16V40.16C37.1492 40.16 35.6594 39.3785 34.6481 38.0782L29.9119 41.7618Z" fill="#D75078" mask="url(#path-1-outside-1_2836_14)"/>
</g>
<defs>
<clipPath id="clip0_2836_14">
<rect width="77" height="94" fill="white"/>
</clipPath>
</defs>
</svg>
