<svg width="78" height="92" viewBox="0 0 78 92" fill="none" xmlns="http://www.w3.org/2000/svg">
<g clip-path="url(#clip0_2836_14)">
<mask id="path-1-outside-1_2836_14" maskUnits="userSpaceOnUse" x="0" y="0" width="78" height="91" fill="black">
<rect fill="white" width="78" height="91"/>
<path d="M36.6 88L38.76 73.72H3.72L6.12 58.36L53.04 3.39999H71.04L62.52 57.28H73.56L70.92 73.72H59.88L57.6 88H36.6ZM41.4 57.28L45.84 29.56H49.32L21.72 62.32L22.08 57.28H41.4Z"/>
</mask>
<path d="M36.6 88L33.6337 87.5513L33.1121 91H36.6V88ZM38.76 73.72L41.7263 74.1687L42.2479 70.72H38.76V73.72ZM3.72 73.72L0.755964 73.2569L0.21485 76.72H3.72V73.72ZM6.12 58.36L3.83837 56.4121L3.28705 57.0579L3.15596 57.8969L6.12 58.36ZM53.04 3.39999V0.399995H51.6566L50.7584 1.45214L53.04 3.39999ZM71.04 3.39999L74.0032 3.86856L74.5517 0.399995H71.04V3.39999ZM62.52 57.28L59.5568 56.8114L59.0083 60.28H62.52V57.28ZM73.56 57.28L76.5221 57.7557L77.0802 54.28H73.56V57.28ZM70.92 73.72V76.72H73.4767L73.8821 74.1957L70.92 73.72ZM59.88 73.72V70.72H57.321L56.9175 73.247L59.88 73.72ZM57.6 88V91H60.159L60.5625 88.473L57.6 88ZM41.4 57.28V60.28H43.9577L44.3622 57.7545L41.4 57.28ZM45.84 29.56V26.56H43.2823L42.8778 29.0855L45.84 29.56ZM49.32 29.56L51.6143 31.4929L55.7702 26.56H49.32V29.56ZM21.72 62.32L18.7276 62.1063L18.0703 71.3081L24.0143 64.2529L21.72 62.32ZM22.08 57.28V54.28H19.2866L19.0876 57.0663L22.08 57.28ZM39.5663 88.4487L41.7263 74.1687L35.7937 73.2713L33.6337 87.5513L39.5663 88.4487ZM38.76 70.72H3.72V76.72H38.76V70.72ZM6.68404 74.1831L9.08404 58.8231L3.15596 57.8969L0.755964 73.2569L6.68404 74.1831ZM8.40163 60.3079L55.3216 5.34785L50.7584 1.45214L3.83837 56.4121L8.40163 60.3079ZM53.04 6.39999H71.04V0.399995H53.04V6.39999ZM68.0768 2.93143L59.5568 56.8114L65.4832 57.7486L74.0032 3.86856L68.0768 2.93143ZM62.52 60.28H73.56V54.28H62.52V60.28ZM70.5979 56.8043L67.958 73.2443L73.8821 74.1957L76.5221 57.7557L70.5979 56.8043ZM70.92 70.72H59.88V76.72H70.92V70.72ZM56.9175 73.247L54.6375 87.527L60.5625 88.473L62.8425 74.193L56.9175 73.247ZM57.6 85H36.6V91H57.6V85ZM44.3622 57.7545L48.8022 30.0345L42.8778 29.0855L38.4378 56.8055L44.3622 57.7545ZM45.84 32.56H49.32V26.56H45.84V32.56ZM47.0257 27.6271L19.4257 60.3871L24.0143 64.2529L51.6143 31.4929L47.0257 27.6271ZM24.7124 62.5337L25.0724 57.4937L19.0876 57.0663L18.7276 62.1063L24.7124 62.5337ZM22.08 60.28H41.4V54.28H22.08V60.28Z" fill="#D75078" mask="url(#path-1-outside-1_2836_14)"/>
</g>
<defs>
<clipPath id="clip0_2836_14">
<rect width="78" height="92" fill="white"/>
</clipPath>
</defs>
</svg>
