<svg width="78" height="94" viewBox="0 0 78 94" fill="none" xmlns="http://www.w3.org/2000/svg">
<g clip-path="url(#clip0_2836_14)">
<mask id="path-1-outside-1_2836_14" maskUnits="userSpaceOnUse" x="0" y="0" width="78" height="94" fill="black">
<rect fill="white" width="78" height="94"/>
<path d="M34.76 90.32C23.72 90.32 15.52 87.92 10.16 83.12C4.8 78.24 2.76 71.76 4.04 63.68C4.92 58.08 7.44 53.52 11.6 50C15.84 46.4 20.8 44.28 26.48 43.64L25.88 47.12C21 46.08 17.32 43.52 14.84 39.44C12.36 35.28 11.56 30.48 12.44 25.04C13.56 17.92 17.12 12.48 23.12 8.72C29.12 4.96 36.92 3.08 46.52 3.08C52.84 3.08 58.16 4.12 62.48 6.19999C66.88 8.2 70.08 11.04 72.08 14.72C74.08 18.32 74.72 22.56 74 27.44C73.12 32.96 70.84 37.48 67.16 41C63.56 44.52 59.24 46.68 54.2 47.48L54.8 44.12C58.4 44.68 61.4 46.04 63.8 48.2C66.28 50.28 68.08 52.92 69.2 56.12C70.32 59.32 70.56 62.92 69.92 66.92C68.64 74.6 64.84 80.44 58.52 84.44C52.28 88.36 44.36 90.32 34.76 90.32ZM35.6 73.76C39.84 73.76 43.2 73 45.68 71.48C48.24 69.88 49.76 67.48 50.24 64.28C50.72 61.16 49.96 58.76 47.96 57.08C46.04 55.4 42.92 54.56 38.6 54.56C34.28 54.56 30.88 55.32 28.4 56.84C26 58.36 24.52 60.68 23.96 63.8C23.48 66.92 24.2 69.36 26.12 71.12C28.12 72.88 31.28 73.76 35.6 73.76ZM41.36 37.88C44.88 37.88 47.68 37.12 49.76 35.6C51.92 34.08 53.2 31.88 53.6 29C54.08 26.2 53.52 23.96 51.92 22.28C50.32 20.52 47.76 19.64 44.24 19.64C40.72 19.64 37.92 20.44 35.84 22.04C33.84 23.56 32.6 25.64 32.12 28.28C31.72 31.16 32.28 33.48 33.8 35.24C35.4 37 37.92 37.88 41.36 37.88Z"/>
</mask>
<path d="M10.16 83.12L8.14033 85.3383L8.14945 85.3466L8.15864 85.3549L10.16 83.12ZM4.04 63.68L7.00305 64.1494L7.00363 64.1457L4.04 63.68ZM11.6 50L13.5378 52.2902L13.5417 52.2869L11.6 50ZM26.48 43.64L29.4364 44.1497L30.1154 40.2114L26.1441 40.6589L26.48 43.64ZM25.88 47.12L25.2547 50.0541L28.3063 50.7044L28.8364 47.6297L25.88 47.12ZM14.84 39.44L12.2632 40.9762L12.2698 40.9872L12.2764 40.9982L14.84 39.44ZM12.44 25.04L15.4015 25.5191L15.4036 25.5062L12.44 25.04ZM23.12 8.72L24.713 11.2621L24.713 11.2621L23.12 8.72ZM62.48 6.19999L61.1786 8.903L61.2084 8.91738L61.2386 8.93109L62.48 6.19999ZM72.08 14.72L69.4441 16.1525L69.4508 16.1648L69.4575 16.1769L72.08 14.72ZM74 27.44L76.9626 27.9123L76.9653 27.8951L76.9679 27.8779L74 27.44ZM67.16 41L65.0863 38.8321L65.0744 38.8435L65.0627 38.855L67.16 41ZM54.2 47.48L51.2467 46.9526L50.5054 51.104L54.6703 50.4429L54.2 47.48ZM54.8 44.12L55.2611 41.1556L52.3624 40.7047L51.8467 43.5926L54.8 44.12ZM63.8 48.2L61.7931 50.4299L61.832 50.4649L61.8722 50.4986L63.8 48.2ZM69.2 56.12L72.0316 55.1289L72.0316 55.1289L69.2 56.12ZM69.92 66.92L72.8792 67.4132L72.8808 67.4036L72.8823 67.394L69.92 66.92ZM58.52 84.44L60.1159 86.9803L60.1244 86.9749L58.52 84.44ZM45.68 71.48L47.2477 74.0378L47.2589 74.0309L47.27 74.024L45.68 71.48ZM50.24 64.28L47.2749 63.8238L47.2732 63.835L50.24 64.28ZM47.96 57.08L45.9845 59.3377L46.0073 59.3577L46.0304 59.3771L47.96 57.08ZM28.4 56.84L26.8323 54.2822L26.8135 54.2937L26.7948 54.3055L28.4 56.84ZM23.96 63.8L21.0072 63.27L21.0006 63.3068L20.9949 63.3438L23.96 63.8ZM26.12 71.12L24.0928 73.3315L24.1153 73.352L24.1381 73.3721L26.12 71.12ZM49.76 35.6L48.0335 33.1466L48.0116 33.162L47.99 33.1778L49.76 35.6ZM53.6 29L50.6431 28.4931L50.6351 28.5401L50.6285 28.5873L53.6 29ZM51.92 22.28L49.7002 24.298L49.7236 24.3238L49.7476 24.349L51.92 22.28ZM35.84 22.04L37.6552 24.4285L37.6622 24.4232L37.6691 24.4179L35.84 22.04ZM32.12 28.28L29.1684 27.7433L29.1572 27.8051L29.1485 27.8673L32.12 28.28ZM33.8 35.24L31.5295 37.2009L31.5545 37.2298L31.5802 37.258L33.8 35.24ZM34.76 87.32C24.0783 87.32 16.7418 84.9871 12.1614 80.8851L8.15864 85.3549C14.2982 90.8529 23.3617 93.32 34.76 93.32V87.32ZM12.1797 80.9017C7.67266 76.7983 5.85723 71.3824 7.00305 64.1494L1.07695 63.2106C-0.337227 72.1376 1.92734 79.6817 8.14033 85.3383L12.1797 80.9017ZM7.00363 64.1457C7.77673 59.226 9.95139 55.3248 13.5378 52.2902L9.66217 47.7098C4.92861 51.7152 2.06328 56.934 1.07637 63.2143L7.00363 64.1457ZM13.5417 52.2869C17.3141 49.0839 21.7109 47.1963 26.8159 46.6211L26.1441 40.6589C19.8891 41.3636 14.3659 43.7161 9.65831 47.7131L13.5417 52.2869ZM23.5236 43.1303L22.9236 46.6103L28.8364 47.6297L29.4364 44.1497L23.5236 43.1303ZM26.5053 44.1859C22.3923 43.3094 19.4332 41.2208 17.4036 37.8818L12.2764 40.9982C15.2068 45.8191 19.6077 48.8506 25.2547 50.0541L26.5053 44.1859ZM17.4168 37.9038C15.3474 34.4325 14.6176 30.3647 15.4015 25.5191L9.4785 24.5609C8.50235 30.5953 9.37261 36.1275 12.2632 40.9762L17.4168 37.9038ZM15.4036 25.5062C16.3914 19.2262 19.4637 14.5516 24.713 11.2621L21.527 6.17791C14.7763 10.4083 10.7286 16.6138 9.47644 24.5738L15.4036 25.5062ZM24.713 11.2621C30.0942 7.88992 37.2894 6.08 46.52 6.08V0.0799975C36.5507 0.0799975 28.1458 2.03008 21.527 6.17791L24.713 11.2621ZM46.52 6.08C52.5266 6.08 57.3723 7.07038 61.1786 8.903L63.7814 3.49699C58.9477 1.16961 53.1534 0.0799975 46.52 0.0799975V6.08ZM61.2386 8.93109C65.1402 10.7046 67.802 13.131 69.4441 16.1525L74.7159 13.2875C72.358 8.94903 68.6198 5.69544 63.7214 3.46889L61.2386 8.93109ZM69.4575 16.1769C71.0775 19.0929 71.6755 22.6414 71.0321 27.0021L76.9679 27.8779C77.7645 22.4786 77.0825 17.5471 74.7025 13.2631L69.4575 16.1769ZM71.0374 26.9677C70.2499 31.9074 68.2461 35.8097 65.0863 38.8321L69.2337 43.1679C73.4339 39.1503 75.9901 34.0126 76.9626 27.9123L71.0374 26.9677ZM65.0627 38.855C61.9136 41.9341 58.1646 43.8131 53.7297 44.5171L54.6703 50.4429C60.3154 49.5469 65.2064 47.1059 69.2574 43.145L65.0627 38.855ZM57.1533 48.0074L57.7533 44.6474L51.8467 43.5926L51.2467 46.9526L57.1533 48.0074ZM54.3389 47.0843C57.4395 47.5667 59.8801 48.7082 61.7931 50.4299L65.8069 45.9701C62.9199 43.3718 59.3605 41.7933 55.2611 41.1556L54.3389 47.0843ZM61.8722 50.4986C63.9188 52.2151 65.4178 54.395 66.3684 57.111L72.0316 55.1289C70.7422 51.445 68.6412 48.3449 65.7278 45.9014L61.8722 50.4986ZM66.3684 57.111C67.2947 59.7576 67.5343 62.8422 66.9577 66.446L72.8823 67.394C73.5857 62.9978 73.3453 58.8824 72.0316 55.1289L66.3684 57.111ZM66.9608 66.4268C65.8147 73.3036 62.4811 78.3826 56.9156 81.9051L60.1244 86.9749C67.1989 82.4974 71.4653 75.8964 72.8792 67.4132L66.9608 66.4268ZM56.9242 81.8997C51.2869 85.441 43.9633 87.32 34.76 87.32V93.32C44.7567 93.32 53.2731 91.279 60.1158 86.9803L56.9242 81.8997ZM35.6 76.76C40.1551 76.76 44.1273 75.9503 47.2477 74.0378L44.1123 68.9222C42.2727 70.0497 39.525 70.76 35.6 70.76V76.76ZM47.27 74.024C50.6323 71.9226 52.6073 68.7215 53.2068 64.725L47.2732 63.835C46.9127 66.2385 45.8477 67.8374 44.09 68.936L47.27 74.024ZM53.2051 64.7362C53.8057 60.8325 52.8695 57.286 49.8896 54.7829L46.0304 59.3771C47.0505 60.234 47.6343 61.4875 47.2749 63.8238L53.2051 64.7362ZM49.9355 54.8223C47.1988 52.4277 43.1825 51.56 38.6 51.56V57.56C42.6575 57.56 44.8812 58.3723 45.9845 59.3377L49.9355 54.8223ZM38.6 51.56C33.9775 51.56 29.9599 52.3653 26.8323 54.2822L29.9677 59.3978C31.8001 58.2747 34.5825 57.56 38.6 57.56V51.56ZM26.7948 54.3055C23.5982 56.3301 21.6966 59.4289 21.0072 63.27L26.9128 64.33C27.3434 61.9311 28.4018 60.3899 30.0052 59.3745L26.7948 54.3055ZM20.9949 63.3438C20.3995 67.2137 21.2717 70.7454 24.0928 73.3315L28.1472 68.9085C27.1283 67.9746 26.5605 66.6263 26.9251 64.2562L20.9949 63.3438ZM24.1381 73.3721C26.938 75.836 30.9765 76.76 35.6 76.76V70.76C31.5835 70.76 29.302 69.924 28.1019 68.8679L24.1381 73.3721ZM41.36 40.88C45.2876 40.88 48.778 40.0333 51.5301 38.0222L47.99 33.1778C46.582 34.2067 44.4725 34.88 41.36 34.88V40.88ZM51.4865 38.0534C54.3989 36.004 56.0699 33.0238 56.5715 29.4127L50.6285 28.5873C50.3301 30.7362 49.4411 32.156 48.0335 33.1466L51.4865 38.0534ZM56.5569 29.5069C57.1568 26.0071 56.4946 22.7333 54.0924 20.211L49.7476 24.349C50.5454 25.1867 51.0032 26.3929 50.6431 28.4931L56.5569 29.5069ZM54.1398 20.262C51.7445 17.6272 48.1962 16.64 44.24 16.64V22.64C47.3239 22.64 48.8955 23.4128 49.7002 24.298L54.1398 20.262ZM44.24 16.64C40.2829 16.64 36.7691 17.5404 34.0109 19.6621L37.6691 24.4179C39.0709 23.3396 41.1571 22.64 44.24 22.64V16.64ZM34.0248 19.6515C31.3849 21.6578 29.7725 24.4207 29.1684 27.7433L35.0716 28.8166C35.4275 26.8593 36.2951 25.4622 37.6552 24.4285L34.0248 19.6515ZM29.1485 27.8673C28.6618 31.3715 29.3088 34.6295 31.5295 37.2009L36.0705 33.2791C35.2512 32.3305 34.7782 30.9485 35.0915 28.6927L29.1485 27.8673ZM31.5802 37.258C33.9639 39.8801 37.4586 40.88 41.36 40.88V34.88C38.3814 34.88 36.8361 34.1199 36.0198 33.222L31.5802 37.258Z" fill="#D75078" mask="url(#path-1-outside-1_2836_14)"/>
</g>
<defs>
<clipPath id="clip0_2836_14">
<rect width="78" height="94" fill="white"/>
</clipPath>
</defs>
</svg>
