<svg width="85" height="92" viewBox="0 0 85 92" fill="none" xmlns="http://www.w3.org/2000/svg">
<g clip-path="url(#clip0_2836_14)">
<mask id="path-1-outside-1_2836_14" maskUnits="userSpaceOnUse" x="0" y="0" width="85" height="91" fill="black">
<rect fill="white" width="85" height="91"/>
<path d="M5.96 88L57.68 15.04L57.32 21.76H15.32L18.32 3.39999H81.08L78.44 19.96L30.8 88H5.96Z"/>
</mask>
<path d="M5.96 88L3.51256 86.2651L0.156044 91H5.96V88ZM57.68 15.04L60.6757 15.2005L61.2305 4.84389L55.2326 13.305L57.68 15.04ZM57.32 21.76V24.76H60.1636L60.3157 21.9205L57.32 21.76ZM15.32 21.76L12.3593 21.2762L11.79 24.76H15.32V21.76ZM18.32 3.39999V0.399995H15.7704L15.3593 2.91621L18.32 3.39999ZM81.08 3.39999L84.0426 3.87229L84.5961 0.399995H81.08V3.39999ZM78.44 19.96L80.8975 21.6807L81.2938 21.1147L81.4026 20.4323L78.44 19.96ZM30.8 88V91H32.3617L33.2575 89.7207L30.8 88ZM8.40744 89.7349L60.1274 16.7749L55.2326 13.305L3.51256 86.2651L8.40744 89.7349ZM54.6843 14.8795L54.3243 21.5995L60.3157 21.9205L60.6757 15.2005L54.6843 14.8795ZM57.32 18.76H15.32V24.76H57.32V18.76ZM18.2807 22.2438L21.2807 3.88378L15.3593 2.91621L12.3593 21.2762L18.2807 22.2438ZM18.32 6.39999H81.08V0.399995H18.32V6.39999ZM78.1174 2.9277L75.4774 19.4877L81.4026 20.4323L84.0426 3.87229L78.1174 2.9277ZM75.9825 18.2393L28.3425 86.2793L33.2575 89.7207L80.8975 21.6807L75.9825 18.2393ZM30.8 85H5.96V91H30.8V85Z" fill="#D75078" mask="url(#path-1-outside-1_2836_14)"/>
</g>
<defs>
<clipPath id="clip0_2836_14">
<rect width="85" height="92" fill="white"/>
</clipPath>
</defs>
</svg>
