<svg width="76" height="94" viewBox="0 0 76 94" fill="none" xmlns="http://www.w3.org/2000/svg">
<g clip-path="url(#clip0_2836_14)">
<mask id="path-1-outside-1_2836_14" maskUnits="userSpaceOnUse" x="0" y="0" width="76" height="94" fill="black">
<rect fill="white" width="76" height="94"/>
<path d="M33.72 90.32C27.72 90.32 22.04 89.52 16.68 87.92C11.4 86.24 7.32 84 4.44 81.2L11.76 64.88C14.88 67.36 18.28 69.2 21.96 70.4C25.72 71.6 29.68 72.2 33.84 72.2C38.08 72.2 41.4 71.56 43.8 70.28C46.28 69 47.72 66.84 48.12 63.8C49 57.96 45.76 55.04 38.4 55.04H22.92L25.68 37.76H38.4C41.84 37.76 44.68 37.12 46.92 35.84C49.16 34.56 50.48 32.56 50.88 29.84C51.36 27.12 50.72 25 48.96 23.48C47.2 21.96 44.48 21.2 40.8 21.2C36.88 21.2 33.08 21.8 29.4 23C25.8 24.2 22.28 26.04 18.84 28.52L12.48 12.32C16.64 9.35999 21.48 7.07999 27 5.48C32.52 3.88 38.12 3.08 43.8 3.08C54.28 3.08 61.96 5.32 66.84 9.8C71.72 14.2 73.56 20.12 72.36 27.56C71.64 32.28 69.6 36.24 66.24 39.44C62.96 42.64 58.84 44.84 53.88 46.04L54.12 44.36C59.16 45.16 63.08 47.52 65.88 51.44C68.68 55.28 69.6 60.12 68.64 65.96C67.44 74.04 63.72 80.12 57.48 84.2C51.24 88.28 43.32 90.32 33.72 90.32Z"/>
</mask>
<path d="M16.68 87.92L15.7704 90.7788L15.7961 90.7869L15.8219 90.7947L16.68 87.92ZM4.44 81.2L1.70273 79.9723L0.84362 81.8876L2.34876 83.351L4.44 81.2ZM11.76 64.88L13.6267 62.5315L10.6033 60.1283L9.02273 63.6523L11.76 64.88ZM21.96 70.4L21.0299 73.2522L21.0389 73.2551L21.0479 73.258L21.96 70.4ZM43.8 70.28L42.4241 67.6141L42.4061 67.6234L42.3882 67.6329L43.8 70.28ZM48.12 63.8L45.1535 63.353L45.1493 63.3808L45.1456 63.4086L48.12 63.8ZM22.92 55.04L19.9576 54.5668L19.4028 58.04H22.92V55.04ZM25.68 37.76V34.76H23.1211L22.7176 37.2868L25.68 37.76ZM50.88 29.84L47.9257 29.3186L47.9182 29.361L47.9119 29.4035L50.88 29.84ZM48.96 23.48L46.9991 25.7505L46.9991 25.7505L48.96 23.48ZM29.4 23L28.4699 20.1478L28.4606 20.1508L28.4513 20.1539L29.4 23ZM18.84 28.52L16.0475 29.6163L17.4597 33.2134L20.5944 30.9535L18.84 28.52ZM12.48 12.32L10.7407 9.87562L8.83094 11.2345L9.68749 13.4163L12.48 12.32ZM27 5.48L26.1648 2.5986L26.1648 2.5986L27 5.48ZM66.84 9.8L64.8112 12.01L64.8211 12.0191L64.8311 12.0281L66.84 9.8ZM72.36 27.56L69.3983 27.0823L69.3962 27.0949L69.3943 27.1076L72.36 27.56ZM66.24 39.44L64.171 37.2676L64.158 37.28L64.145 37.2927L66.24 39.44ZM53.88 46.04L50.9102 45.6157L50.2843 49.9965L54.5855 48.9559L53.88 46.04ZM54.12 44.36L54.5903 41.3971L51.5811 40.9194L51.1502 43.9357L54.12 44.36ZM65.88 51.44L63.4388 53.1837L63.4473 53.1957L63.456 53.2075L65.88 51.44ZM68.64 65.96L65.6797 65.4734L65.676 65.4963L65.6726 65.5193L68.64 65.96ZM57.48 84.2L59.1218 86.7109L59.1218 86.7109L57.48 84.2ZM33.72 87.32C27.9895 87.32 22.6002 86.5564 17.5381 85.0453L15.8219 90.7947C21.4798 92.4836 27.4505 93.32 33.72 93.32V87.32ZM17.5896 85.0612C12.5941 83.4717 8.97566 81.4255 6.53124 79.049L2.34876 83.351C5.66434 86.5745 10.2059 89.0082 15.7704 90.7788L17.5896 85.0612ZM7.17727 82.4277L14.4973 66.1077L9.02273 63.6523L1.70273 79.9723L7.17727 82.4277ZM9.89327 67.2285C13.2846 69.9241 17.0001 71.9381 21.0299 73.2522L22.8901 67.5478C19.5599 66.4619 16.4754 64.7959 13.6267 62.5315L9.89327 67.2285ZM21.0479 73.258C25.1184 74.5571 29.3872 75.2 33.84 75.2V69.2C29.9728 69.2 26.3216 68.6429 22.8721 67.542L21.0479 73.258ZM33.84 75.2C38.3231 75.2 42.2006 74.533 45.2118 72.9271L42.3882 67.6329C40.5994 68.587 37.8369 69.2 33.84 69.2V75.2ZM45.1759 72.9459C48.6253 71.1655 50.581 68.093 51.0944 64.1914L45.1456 63.4086C44.859 65.587 43.9347 66.8345 42.4241 67.6141L45.1759 72.9459ZM51.0865 64.247C51.618 60.7201 50.9783 57.3626 48.3584 55.0015C45.9158 52.8001 42.3494 52.04 38.4 52.04V58.04C41.8106 58.04 43.5442 58.7399 44.3416 59.4585C44.9617 60.0174 45.502 61.0399 45.1535 63.353L51.0865 64.247ZM38.4 52.04H22.92V58.04H38.4V52.04ZM25.8825 55.5132L28.6425 38.2332L22.7176 37.2868L19.9576 54.5668L25.8825 55.5132ZM25.68 40.76H38.4V34.76H25.68V40.76ZM38.4 40.76C42.194 40.76 45.5886 40.056 48.4084 38.4447L45.4316 33.2353C43.7714 34.184 41.486 34.76 38.4 34.76V40.76ZM48.4084 38.4447C51.5072 36.674 53.3242 33.839 53.8481 30.2765L47.9119 29.4035C47.6358 31.281 46.8128 32.446 45.4316 33.2353L48.4084 38.4447ZM53.8344 30.3614C54.4574 26.8307 53.6428 23.5603 50.9209 21.2095L46.9991 25.7505C47.7972 26.4397 48.2626 27.4093 47.9257 29.3186L53.8344 30.3614ZM50.9209 21.2095C48.3763 19.0119 44.8029 18.2 40.8 18.2V24.2C44.1571 24.2 46.0237 24.9081 46.9991 25.7505L50.9209 21.2095ZM40.8 18.2C36.5682 18.2 32.4541 18.8486 28.4699 20.1478L30.3301 25.8522C33.7059 24.7514 37.1918 24.2 40.8 24.2V18.2ZM28.4513 20.1539C24.5318 21.4604 20.7432 23.4496 17.0856 26.0865L20.5944 30.9535C23.8168 28.6304 27.0682 26.9395 30.3487 25.846L28.4513 20.1539ZM21.6325 27.4237L15.2725 11.2237L9.68749 13.4163L16.0475 29.6163L21.6325 27.4237ZM14.2193 14.7644C18.0724 12.0227 22.5987 9.87922 27.8352 8.36139L26.1648 2.5986C20.3613 4.28077 15.2076 6.69728 10.7407 9.87562L14.2193 14.7644ZM27.8352 8.36139C33.087 6.83913 38.406 6.08 43.8 6.08V0.0799975C37.834 0.0799975 31.953 0.920867 26.1648 2.5986L27.8352 8.36139ZM43.8 6.08C53.9462 6.08 60.7301 8.26334 64.8112 12.01L68.8688 7.59004C63.1899 2.37665 54.6138 0.0799975 43.8 0.0799975V6.08ZM64.8311 12.0281C68.8333 15.6366 70.4641 20.4744 69.3983 27.0823L75.3217 28.0377C76.6559 19.7656 74.6067 12.7634 68.8489 7.57193L64.8311 12.0281ZM69.3943 27.1076C68.7714 31.1913 67.0351 34.5399 64.171 37.2676L68.309 41.6124C72.1649 37.9401 74.5086 33.3687 75.3257 28.0124L69.3943 27.1076ZM64.145 37.2927C61.2934 40.0747 57.6718 42.0361 53.1745 43.1241L54.5855 48.9559C60.0082 47.6439 64.6266 45.2053 68.335 41.5873L64.145 37.2927ZM56.8499 46.4643L57.0899 44.7843L51.1502 43.9357L50.9102 45.6157L56.8499 46.4643ZM53.6497 47.3229C57.9484 48.0052 61.1359 49.9597 63.4388 53.1837L68.3212 49.6963C65.0241 45.0803 60.3717 42.3148 54.5903 41.3971L53.6497 47.3229ZM63.456 53.2075C65.6722 56.2469 66.5433 60.22 65.6797 65.4734L71.6003 66.4466C72.6567 60.02 71.6878 54.3131 68.304 49.6725L63.456 53.2075ZM65.6726 65.5193C64.5849 72.8425 61.2874 78.1262 55.8383 81.6891L59.1218 86.7109C66.1526 82.1138 70.2951 75.2375 71.6075 66.4007L65.6726 65.5193ZM55.8383 81.6891C50.2089 85.3698 42.9029 87.32 33.72 87.32V93.32C43.7371 93.32 52.2711 91.1902 59.1218 86.7109L55.8383 81.6891Z" fill="#D75078" mask="url(#path-1-outside-1_2836_14)"/>
</g>
<defs>
<clipPath id="clip0_2836_14">
<rect width="76" height="94" fill="white"/>
</clipPath>
</defs>
</svg>
