<svg width="74" height="93" viewBox="0 0 74 93" fill="none" xmlns="http://www.w3.org/2000/svg">
<g clip-path="url(#clip0_2836_14)">
<mask id="path-1-outside-1_2836_14" maskUnits="userSpaceOnUse" x="0" y="0" width="74" height="92" fill="black">
<rect fill="white" width="74" height="92"/>
<path d="M4.36 89L6.88 72.8L37 45.8C40.6 42.52 43.24 39.76 44.92 37.52C46.6 35.2 47.64 32.92 48.04 30.68C48.52 27.48 47.84 25.12 46 23.6C44.16 22 41.4 21.2 37.72 21.2C34.44 21.2 31.04 21.76 27.52 22.88C24 23.92 20.4 25.76 16.72 28.4L10.36 12.32C14.52 9.44 19.4 7.2 25 5.59999C30.6 3.92 36.16 3.08 41.68 3.08C48.8 3.08 54.6 4.2 59.08 6.44C63.64 8.68 66.8 11.8 68.56 15.8C70.4 19.8 70.88 24.48 70 29.84C69.2 34.96 67.2 39.64 64 43.88C60.8 48.12 56.52 52.52 51.16 57.08L28.24 76.64L28.36 71H66.4L63.52 89H4.36Z"/>
</mask>
<path d="M4.36 89L1.39565 88.5389L0.857254 92H4.36V89ZM6.88 72.8L4.87754 70.5661L4.08023 71.2809L3.91565 72.3389L6.88 72.8ZM37 45.8L39.0025 48.0339L39.0115 48.0258L39.0205 48.0176L37 45.8ZM44.92 37.52L47.32 39.32L47.3351 39.2999L47.3498 39.2795L44.92 37.52ZM48.04 30.68L50.9933 31.2074L51.0006 31.1663L51.0068 31.125L48.04 30.68ZM46 23.6L44.0315 25.8638L44.0601 25.8887L44.0894 25.9129L46 23.6ZM27.52 22.88L28.37 25.7571L28.3999 25.7482L28.4296 25.7388L27.52 22.88ZM16.72 28.4L13.9303 29.5034L15.3445 33.0789L18.4687 30.8376L16.72 28.4ZM10.36 12.32L8.65237 9.85342L6.69441 11.2089L7.57028 13.4234L10.36 12.32ZM25 5.59999L25.8242 8.48457L25.8431 8.47914L25.862 8.47347L25 5.59999ZM59.08 6.44L57.7384 9.12328L57.7478 9.128L57.7573 9.13266L59.08 6.44ZM68.56 15.8L65.8141 17.0082L65.8241 17.031L65.8345 17.0537L68.56 15.8ZM70 29.84L67.0396 29.354L67.0378 29.3654L67.036 29.3769L70 29.84ZM64 43.88L66.3946 45.6872L66.3946 45.6872L64 43.88ZM51.16 57.08L49.2161 54.795L49.2126 54.798L51.16 57.08ZM28.24 76.64L25.2407 76.5762L25.0984 83.265L30.1875 78.922L28.24 76.64ZM28.36 71V68H25.4232L25.3607 70.9362L28.36 71ZM66.4 71L69.3623 71.474L69.9182 68H66.4V71ZM63.52 89V92H66.0782L66.4823 89.474L63.52 89ZM7.32435 89.4611L9.84435 73.2611L3.91565 72.3389L1.39565 88.5389L7.32435 89.4611ZM8.88247 75.0339L39.0025 48.0339L34.9975 43.5661L4.87754 70.5661L8.88247 75.0339ZM39.0205 48.0176C42.6739 44.6889 45.4737 41.7817 47.32 39.32L42.52 35.72C41.0063 37.7383 38.5261 40.3511 34.9795 43.5824L39.0205 48.0176ZM47.3498 39.2795C49.2282 36.6856 50.496 33.9921 50.9933 31.2074L45.0867 30.1526C44.784 31.8479 43.9718 33.7144 42.4902 35.7605L47.3498 39.2795ZM51.0068 31.125C51.5806 27.2999 50.8409 23.7077 47.9106 21.2871L44.0894 25.9129C44.8391 26.5323 45.4594 27.6601 45.0732 30.235L51.0068 31.125ZM47.9685 21.3362C45.3634 19.0709 41.7676 18.2 37.72 18.2V24.2C41.0324 24.2 42.9566 24.9291 44.0315 25.8638L47.9685 21.3362ZM37.72 18.2C34.0951 18.2 30.3879 18.8193 26.6104 20.0212L28.4296 25.7388C31.6921 24.7007 34.7849 24.2 37.72 24.2V18.2ZM26.67 20.0029C22.7626 21.1574 18.8627 23.1707 14.9713 25.9624L18.4687 30.8376C21.9373 28.3493 25.2374 26.6826 28.37 25.7571L26.67 20.0029ZM19.5097 27.2966L13.1497 11.2166L7.57028 13.4234L13.9303 29.5034L19.5097 27.2966ZM12.0676 14.7866C15.9207 12.1191 20.4927 10.0078 25.8242 8.48457L24.1758 2.71542C18.3073 4.39216 13.1193 6.76091 8.65237 9.85342L12.0676 14.7866ZM25.862 8.47347C31.1989 6.8724 36.4688 6.08 41.68 6.08V0.0799975C35.8512 0.0799975 30.0011 0.967588 24.138 2.72651L25.862 8.47347ZM41.68 6.08C48.5177 6.08 53.8127 7.16046 57.7384 9.12328L60.4216 3.75672C55.3873 1.23953 49.0823 0.0799975 41.68 0.0799975V6.08ZM57.7573 9.13266C61.7915 11.1144 64.384 13.7581 65.8141 17.0082L71.3059 14.5918C69.216 9.84191 65.4885 6.24561 60.4027 3.74733L57.7573 9.13266ZM65.8345 17.0537C67.3715 20.395 67.8455 24.4454 67.0396 29.354L72.9604 30.326C73.9145 24.5146 73.4285 19.205 71.2855 14.5463L65.8345 17.0537ZM67.036 29.3769C66.3142 33.9962 64.5156 38.2168 61.6054 42.0728L66.3946 45.6872C69.8844 41.0632 72.0858 35.9238 72.964 30.3031L67.036 29.3769ZM61.6054 42.0728C58.5724 46.0916 54.4593 50.3344 49.2161 54.795L53.1039 59.365C58.5807 54.7056 63.0276 50.1484 66.3946 45.6872L61.6054 42.0728ZM49.2126 54.798L26.2926 74.358L30.1875 78.922L53.1075 59.362L49.2126 54.798ZM31.2393 76.7038L31.3593 71.0638L25.3607 70.9362L25.2407 76.5762L31.2393 76.7038ZM28.36 74H66.4V68H28.36V74ZM63.4377 70.526L60.5577 88.526L66.4823 89.474L69.3623 71.474L63.4377 70.526ZM63.52 86H4.36V92H63.52V86Z" fill="#D75078" mask="url(#path-1-outside-1_2836_14)"/>
</g>
<defs>
<clipPath id="clip0_2836_14">
<rect width="74" height="93" fill="white"/>
</clipPath>
</defs>
</svg>
