<svg width="77" height="95" viewBox="0 0 77 95" fill="none" xmlns="http://www.w3.org/2000/svg">
<g clip-path="url(#clip0_2836_14)">
<mask id="path-1-outside-1_2836_14" maskUnits="userSpaceOnUse" x="0" y="1" width="77" height="94" fill="black">
<rect fill="white" y="1" width="77" height="94"/>
<path d="M33.52 91.32C25.84 91.32 19.56 89.52 14.68 85.92C9.88 82.24 6.6 77.04 4.84 70.32C3.16 63.52 3.08 55.44 4.6 46.08C6.04 36.72 8.76 28.96 12.76 22.8C16.84 16.56 21.88 11.88 27.88 8.75999C33.96 5.64 40.72 4.08 48.16 4.08C52.88 4.08 57.36 4.72 61.6 5.99999C65.84 7.28 69.52 9.36 72.64 12.24L65.2 28.56C62.56 26.4 59.72 24.8 56.68 23.76C53.64 22.72 50.48 22.2 47.2 22.2C41.12 22.2 36.24 24.04 32.56 27.72C28.96 31.32 26.56 36.92 25.36 44.52L24.28 50.76H22.48C24.32 45.64 27.16 41.64 31 38.76C34.84 35.88 39.44 34.44 44.8 34.44C49.52 34.44 53.64 35.68 57.16 38.16C60.76 40.56 63.36 44 64.96 48.48C66.64 52.88 67 58.12 66.04 64.2C65.08 70.12 63.08 75.12 60.04 79.2C57 83.28 53.2 86.32 48.64 88.32C44.08 90.32 39.04 91.32 33.52 91.32ZM34.36 74.52C37.8 74.52 40.48 73.48 42.4 71.4C44.32 69.32 45.56 66.6 46.12 63.24C46.68 59.48 46.12 56.52 44.44 54.36C42.84 52.2 40.4 51.12 37.12 51.12C33.84 51.12 31.16 52.2 29.08 54.36C27.08 56.44 25.8 59.12 25.24 62.4C24.68 66.16 25.24 69.12 26.92 71.28C28.6 73.44 31.08 74.52 34.36 74.52Z"/>
</mask>
<path d="M14.68 85.92L12.8547 88.3008L12.8767 88.3177L12.8991 88.3342L14.68 85.92ZM4.84 70.32L1.92757 71.0395L1.93258 71.0598L1.93788 71.0801L4.84 70.32ZM4.6 46.08L7.56121 46.5609L7.56321 46.5485L7.56512 46.5362L4.6 46.08ZM12.76 22.8L10.2491 21.1582L10.2439 21.1662L12.76 22.8ZM27.88 8.75999L26.5103 6.09091L26.5031 6.09461L26.4959 6.09834L27.88 8.75999ZM61.6 5.99999L62.467 3.12801L62.467 3.12801L61.6 5.99999ZM72.64 12.24L75.3697 13.4844L76.2705 11.5085L74.6748 10.0356L72.64 12.24ZM65.2 28.56L63.3003 30.8819L66.3143 33.3479L67.9297 29.8044L65.2 28.56ZM56.68 23.76L57.6511 20.9215L57.6511 20.9215L56.68 23.76ZM32.56 27.72L30.4387 25.5987L30.4387 25.5987L32.56 27.72ZM25.36 44.52L28.3161 45.0316L28.3198 45.0098L28.3233 44.9879L25.36 44.52ZM24.28 50.76V53.76H26.8054L27.2361 51.2716L24.28 50.76ZM22.48 50.76L19.6568 49.7454L18.214 53.76H22.48V50.76ZM31 38.76L32.8 41.16L32.8 41.16L31 38.76ZM57.16 38.16L55.4321 40.6124L55.4637 40.6347L55.4959 40.6561L57.16 38.16ZM64.96 48.48L62.1348 49.489L62.1457 49.5197L62.1573 49.5501L64.96 48.48ZM66.04 64.2L69.0013 64.6802L69.0033 64.6679L66.04 64.2ZM60.04 79.2L57.6344 77.4076L57.6344 77.4076L60.04 79.2ZM48.64 88.32L47.435 85.5726L48.64 88.32ZM42.4 71.4L40.1956 69.3652L40.1956 69.3652L42.4 71.4ZM46.12 63.24L49.0792 63.7332L49.0835 63.7076L49.0873 63.6819L46.12 63.24ZM44.44 54.36L42.0293 56.1457L42.0503 56.174L42.0719 56.2018L44.44 54.36ZM29.08 54.36L26.919 52.2791L26.9175 52.2807L29.08 54.36ZM25.24 62.4L22.2828 61.8951L22.2774 61.9265L22.2727 61.9581L25.24 62.4ZM26.92 71.28L24.5519 73.1218L24.5519 73.1218L26.92 71.28ZM33.52 88.32C26.3087 88.32 20.7019 86.6344 16.4609 83.5058L12.8991 88.3342C18.4181 92.4056 25.3713 94.32 33.52 94.32V88.32ZM16.5053 83.5392C12.3111 80.3236 9.35948 75.7353 7.74212 69.5599L1.93788 71.0801C3.84052 78.3447 7.4489 84.1564 12.8547 88.3008L16.5053 83.5392ZM7.75243 69.6005C6.19727 63.3058 6.08445 55.6546 7.56121 46.5609L1.63879 45.5991C0.0755465 55.2254 0.122726 63.7342 1.92757 71.0395L7.75243 69.6005ZM7.56512 46.5362C8.95847 37.4794 11.5641 30.1502 15.2761 24.4338L10.2439 21.1662C5.95588 27.7698 3.12153 35.9606 1.63489 45.6238L7.56512 46.5362ZM15.2709 24.4417C19.0986 18.5876 23.7667 14.2803 29.2641 11.4216L26.4959 6.09834C19.9933 9.4797 14.5814 14.5324 10.2491 21.1583L15.2709 24.4417ZM29.2497 11.4291C34.8691 8.54543 41.1532 7.08 48.16 7.08V1.08C40.2868 1.08 33.0509 2.73456 26.5103 6.09091L29.2497 11.4291ZM48.16 7.08C52.6056 7.08 56.7921 7.68226 60.733 8.87198L62.467 3.12801C57.9279 1.75773 53.1544 1.08 48.16 1.08V7.08ZM60.733 8.87198C64.5575 10.0265 67.8334 11.8858 70.6052 14.4444L74.6748 10.0356C71.2066 6.83417 67.1225 4.53346 62.467 3.12801L60.733 8.87198ZM69.9103 10.9956L62.4703 27.3156L67.9297 29.8044L75.3697 13.4844L69.9103 10.9956ZM67.0997 26.2381C64.2006 23.8661 61.0493 22.084 57.6511 20.9215L55.7089 26.5985C58.3907 27.5159 60.9194 28.9339 63.3003 30.8819L67.0997 26.2381ZM57.6511 20.9215C54.2919 19.7723 50.8034 19.2 47.2 19.2V25.2C50.1566 25.2 52.9881 25.6677 55.7089 26.5985L57.6511 20.9215ZM47.2 19.2C40.4688 19.2 34.7758 21.2615 30.4387 25.5987L34.6813 29.8413C37.7042 26.8185 41.7712 25.2 47.2 25.2V19.2ZM30.4387 25.5987C26.2139 29.8235 23.6479 36.1282 22.3967 44.0521L28.3233 44.9879C29.4721 37.7118 31.7061 32.8165 34.6813 29.8413L30.4387 25.5987ZM22.404 44.0084L21.3239 50.2484L27.2361 51.2716L28.3161 45.0316L22.404 44.0084ZM24.28 47.76H22.48V53.76H24.28V47.76ZM25.3032 51.7746C26.9722 47.1305 29.4898 43.6426 32.8 41.16L29.2 36.36C24.8302 39.6373 21.6678 44.1495 19.6568 49.7454L25.3032 51.7746ZM32.8 41.16C36.0605 38.7147 40.0095 37.44 44.8 37.44V31.44C38.8705 31.44 33.6195 33.0453 29.2 36.36L32.8 41.16ZM44.8 37.44C48.9638 37.44 52.4666 38.5231 55.4321 40.6124L58.8879 35.7076C54.8134 32.8369 50.0762 31.44 44.8 31.44V37.44ZM55.4959 40.6561C58.5053 42.6624 60.729 45.5529 62.1348 49.489L67.7852 47.471C65.991 42.4471 63.0147 38.4576 58.8241 35.6638L55.4959 40.6561ZM62.1573 49.5501C63.6014 53.3322 63.9794 58.0153 63.0767 63.7321L69.0033 64.6679C70.0206 58.2247 69.6786 52.4278 67.7627 47.4099L62.1573 49.5501ZM63.0787 63.7198C62.1821 69.2489 60.3391 73.7775 57.6344 77.4076L62.4457 80.9924C65.8209 76.4625 67.9779 70.9911 69.0013 64.6802L63.0787 63.7198ZM57.6344 77.4076C54.898 81.0801 51.508 83.7862 47.435 85.5726L49.845 91.0674C54.892 88.8538 59.1021 85.4799 62.4457 80.9924L57.6344 77.4076ZM47.435 85.5726C43.2943 87.3888 38.6705 88.32 33.52 88.32V94.32C39.4095 94.32 44.8657 93.2512 49.845 91.0674L47.435 85.5726ZM34.36 77.52C38.4427 77.52 41.9967 76.2598 44.6044 73.4348L40.1956 69.3652C38.9633 70.7002 37.1573 71.52 34.36 71.52V77.52ZM44.6044 73.4348C46.9952 70.8448 48.4429 67.551 49.0792 63.7332L43.1608 62.7468C42.6771 65.649 41.6448 67.7952 40.1956 69.3652L44.6044 73.4348ZM49.0873 63.6819C49.7199 59.4345 49.1623 55.545 46.8081 52.5182L42.0719 56.2018C43.0778 57.495 43.6401 59.5255 43.1527 62.7981L49.0873 63.6819ZM46.8507 52.5743C44.5584 49.4798 41.116 48.12 37.12 48.12V54.12C39.684 54.12 41.1216 54.9202 42.0293 56.1457L46.8507 52.5743ZM37.12 48.12C33.1094 48.12 29.6207 49.4735 26.919 52.2791L31.241 56.4409C32.6993 54.9265 34.5706 54.12 37.12 54.12V48.12ZM26.9175 52.2807C24.4397 54.8576 22.928 58.1159 22.2828 61.8951L28.1972 62.9049C28.672 60.1241 29.7203 58.0224 31.2425 56.4393L26.9175 52.2807ZM22.2727 61.9581C21.6401 66.2055 22.1977 70.095 24.5519 73.1218L29.2881 69.4382C28.2823 68.145 27.7199 66.1145 28.2073 62.8419L22.2727 61.9581ZM24.5519 73.1218C26.9155 76.1607 30.3597 77.52 34.36 77.52V71.52C31.8003 71.52 30.2845 70.7193 29.2881 69.4382L24.5519 73.1218Z" fill="#D75078" mask="url(#path-1-outside-1_2836_14)"/>
</g>
<defs>
<clipPath id="clip0_2836_14">
<rect width="77" height="95" fill="white"/>
</clipPath>
</defs>
</svg>
