<svg width="76" height="93" viewBox="0 0 76 93" fill="none" xmlns="http://www.w3.org/2000/svg">
<g clip-path="url(#clip0_2836_14)">
<mask id="path-1-outside-1_2836_14" maskUnits="userSpaceOnUse" x="0" y="0" width="76" height="93" fill="black">
<rect fill="white" width="76" height="93"/>
<path d="M32.4 89.32C28.72 89.32 25.04 88.92 21.36 88.12C17.68 87.4 14.36 86.36 11.4 85C8.44 83.64 6 82.04 4.08 80.2L11.28 63.88C14.48 66.28 17.88 68.12 21.48 69.4C25.16 70.6 28.92 71.2 32.76 71.2C36.84 71.2 40.16 70.36 42.72 68.68C45.28 67 46.76 64.64 47.16 61.6C47.72 58.16 47 55.52 45 53.68C43.08 51.76 40.28 50.8 36.6 50.8C33.96 50.8 31.44 51.28 29.04 52.24C26.64 53.12 24.28 54.48 21.96 56.32H8.28L16.68 3.39999H72.12L69.12 21.28H34.32L31.44 40.24H26.4C28.72 38 31.4 36.28 34.44 35.08C37.56 33.88 41.16 33.28 45.24 33.28C50.36 33.28 54.8 34.44 58.56 36.76C62.32 39.08 65.08 42.44 66.84 46.84C68.6 51.24 69 56.52 68.04 62.68C67.24 67.88 65.32 72.48 62.28 76.48C59.32 80.48 55.32 83.64 50.28 85.96C45.24 88.2 39.28 89.32 32.4 89.32Z"/>
</mask>
<path d="M21.36 88.12L21.9973 85.1885L21.9667 85.1818L21.936 85.1758L21.36 88.12ZM11.4 85L12.6525 82.274L12.6525 82.274L11.4 85ZM4.08 80.2L1.33525 78.9891L0.48696 80.9119L2.00428 82.366L4.08 80.2ZM11.28 63.88L13.08 61.48L10.0593 59.2145L8.53525 62.6691L11.28 63.88ZM21.48 69.4L20.475 72.2266L20.5123 72.2399L20.5499 72.2522L21.48 69.4ZM42.72 68.68L41.074 66.1719L41.074 66.1719L42.72 68.68ZM47.16 61.6L44.199 61.118L44.1916 61.1632L44.1856 61.2086L47.16 61.6ZM45 53.68L42.8787 55.8013L42.9229 55.8455L42.9688 55.8878L45 53.68ZM29.04 52.24L30.0728 55.0566L30.1137 55.0416L30.1542 55.0254L29.04 52.24ZM21.96 56.32V59.32H23.0052L23.8242 58.6705L21.96 56.32ZM8.28 56.32L5.31709 55.8497L4.76625 59.32H8.28V56.32ZM16.68 3.39999V0.399995H14.1186L13.7171 2.92969L16.68 3.39999ZM72.12 3.39999L75.0786 3.89641L75.6653 0.399995H72.12V3.39999ZM69.12 21.28V24.28H71.6586L72.0786 21.7764L69.12 21.28ZM34.32 21.28V18.28H31.7413L31.354 20.8295L34.32 21.28ZM31.44 40.24V43.24H34.0187L34.406 40.6905L31.44 40.24ZM26.4 40.24L24.3162 38.0818L18.9738 43.24H26.4V40.24ZM34.44 35.08L33.3631 32.28L33.3508 32.2847L33.3385 32.2895L34.44 35.08ZM58.56 36.76L56.9847 39.3131L56.9847 39.3131L58.56 36.76ZM68.04 62.68L65.0758 62.218L65.0749 62.2238L68.04 62.68ZM62.28 76.48L59.8915 74.6648L59.8799 74.68L59.8685 74.6955L62.28 76.48ZM50.28 85.96L51.4984 88.7014L51.5165 88.6934L51.5344 88.6851L50.28 85.96ZM32.4 86.32C28.9392 86.32 25.4728 85.944 21.9973 85.1885L20.7227 91.0515C24.6072 91.896 28.5008 92.32 32.4 92.32V86.32ZM21.936 85.1758C18.4551 84.4948 15.3669 83.5211 12.6525 82.274L10.1475 87.726C13.3531 89.1989 16.9049 90.3052 20.784 91.0642L21.936 85.1758ZM12.6525 82.274C9.93032 81.0232 7.78713 79.5975 6.15572 78.034L2.00428 82.366C4.21287 84.4825 6.94968 86.2568 10.1475 87.726L12.6525 82.274ZM6.82475 81.4109L14.0248 65.0909L8.53525 62.6691L1.33525 78.9891L6.82475 81.4109ZM9.48 66.28C12.9106 68.8529 16.5769 70.8406 20.475 72.2266L22.485 66.5734C19.1831 65.3994 16.0494 63.7071 13.08 61.48L9.48 66.28ZM20.5499 72.2522C24.5278 73.5493 28.6016 74.2 32.76 74.2V68.2C29.2384 68.2 25.7922 67.6507 22.4101 66.5478L20.5499 72.2522ZM32.76 74.2C37.2346 74.2 41.179 73.2796 44.366 71.1881L41.074 66.1719C39.141 67.4404 36.4454 68.2 32.76 68.2V74.2ZM44.366 71.1881C47.6567 69.0286 49.6207 65.8952 50.1344 61.9914L44.1856 61.2086C43.8993 63.3848 42.9033 64.9714 41.074 66.1719L44.366 71.1881ZM50.121 62.082C50.7916 57.9629 49.9825 54.1874 47.0312 51.4722L42.9688 55.8878C44.0175 56.8526 44.6484 58.3571 44.199 61.118L50.121 62.082ZM47.1213 51.5587C44.4622 48.8995 40.7853 47.8 36.6 47.8V53.8C39.7747 53.8 41.6978 54.6205 42.8787 55.8013L47.1213 51.5587ZM36.6 47.8C33.5867 47.8 30.6878 48.3498 27.9258 49.4546L30.1542 55.0254C32.1922 54.2102 34.3333 53.8 36.6 53.8V47.8ZM28.0072 49.4234C25.2638 50.4293 22.6275 51.9616 20.0958 53.9695L23.8242 58.6705C25.9325 56.9984 28.0162 55.8107 30.0728 55.0566L28.0072 49.4234ZM21.96 53.32H8.28V59.32H21.96V53.32ZM11.2429 56.7903L19.6429 3.8703L13.7171 2.92969L5.31709 55.8497L11.2429 56.7903ZM16.68 6.39999H72.12V0.399995H16.68V6.39999ZM69.1614 2.90358L66.1614 20.7836L72.0786 21.7764L75.0786 3.89641L69.1614 2.90358ZM69.12 18.28H34.32V24.28H69.12V18.28ZM31.354 20.8295L28.474 39.7895L34.406 40.6905L37.286 21.7305L31.354 20.8295ZM31.44 37.24H26.4V43.24H31.44V37.24ZM28.4838 42.3982C30.5171 40.435 32.8621 38.9281 35.5415 37.8705L33.3385 32.2895C29.9379 33.6319 26.9229 35.565 24.3162 38.0818L28.4838 42.3982ZM35.5169 37.88C38.2267 36.8378 41.4495 36.28 45.24 36.28V30.28C40.8705 30.28 36.8933 30.9222 33.3631 32.28L35.5169 37.88ZM45.24 36.28C49.8936 36.28 53.7693 37.3292 56.9847 39.3131L60.1353 34.2069C55.8307 31.5508 50.8264 30.28 45.24 30.28V36.28ZM56.9847 39.3131C60.1568 41.2704 62.5149 44.1051 64.0546 47.9542L69.6254 45.7258C67.6451 40.7749 64.4832 36.8896 60.1353 34.2069L56.9847 39.3131ZM64.0546 47.9542C65.5611 51.7204 65.9784 56.4265 65.0758 62.218L71.0042 63.142C72.0217 56.6135 71.639 50.7596 69.6254 45.7258L64.0546 47.9542ZM65.0749 62.2238C64.3472 66.954 62.6147 71.0817 59.8915 74.6648L64.6685 78.2952C68.0254 73.8783 70.1328 68.806 71.0051 63.1362L65.0749 62.2238ZM59.8685 74.6955C57.2422 78.2445 53.6606 81.1013 49.0256 83.2349L51.5344 88.6851C56.9794 86.1787 61.3978 82.7155 64.6915 78.2645L59.8685 74.6955ZM49.0616 83.2186C44.4876 85.2514 38.961 86.32 32.4 86.32V92.32C39.599 92.32 45.9924 91.1486 51.4984 88.7014L49.0616 83.2186Z" fill="#D75078" mask="url(#path-1-outside-1_2836_14)"/>
</g>
<defs>
<clipPath id="clip0_2836_14">
<rect width="76" height="93" fill="white"/>
</clipPath>
</defs>
</svg>
