<svg version="1.1" xmlns="http://www.w3.org/2000/svg" xmlns:xlink="http://www.w3.org/1999/xlink">

    <symbol viewBox="0 0 96 24" id="logo-left">
        <path d="M91.0003 15.016C91.0831 15.0101 91.1659 15.0265 91.2403 15.0634C91.3148 15.1004 91.3781 15.1567 91.4238 15.2264C91.5128 15.3668 91.5587 15.5305 91.5558 15.6971V18.7036C91.5669 19.172 91.4885 19.6382 91.3248 20.0767C91.194 20.4343 90.9854 20.7578 90.7143 21.0235C90.4561 21.2733 90.1462 21.4624 89.8068 21.5772C89.4526 21.698 89.0808 21.7579 88.7069 21.7544C88.4153 21.7601 88.1255 21.7074 87.8544 21.5994C87.6112 21.4997 87.3932 21.3464 87.2164 21.1509C87.04 20.95 86.907 20.7143 86.8259 20.4588C86.7306 20.1735 86.6841 19.8739 86.6884 19.5729C86.6905 19.1354 86.7783 18.7026 86.9469 18.2994C87.1307 17.8616 87.3853 17.4575 87.7004 17.1034C88.0562 16.7003 88.4587 16.3415 88.8994 16.0348C89.4068 15.6831 89.9464 15.3809 90.5108 15.1323C90.6578 15.0646 90.8167 15.027 90.9783 15.0216M86.6884 7.13706C86.0215 7.26352 85.3754 7.48344 84.769 7.79041C84.2807 8.02912 83.855 8.37999 83.5261 8.81474C83.2932 9.13988 83.1459 9.51906 83.0978 9.91696C83.0497 10.3149 83.1025 10.7185 83.2511 11.0904C83.3553 11.3305 83.5112 11.5442 83.7076 11.7161C83.8959 11.8783 84.1147 12.0007 84.351 12.076C84.5928 12.1536 84.8452 12.1928 85.099 12.1922C85.34 12.2061 85.5812 12.1706 85.8081 12.0878C86.035 12.005 86.2428 11.8766 86.4189 11.7105C86.7439 11.3697 86.952 10.9331 87.0129 10.4647C87.0449 10.2867 87.1163 10.1183 87.2219 9.97194C87.3407 9.8048 87.49 9.66198 87.6619 9.55114C87.8602 9.42068 88.0772 9.32171 88.3054 9.25768C88.5729 9.17697 88.8511 9.13777 89.1303 9.14141C89.7173 9.10603 90.299 9.27193 90.7803 9.61205C90.976 9.77067 91.1315 9.97391 91.2338 10.205C91.3362 10.436 91.3824 10.6883 91.3688 10.9409C91.3753 11.2795 91.2877 11.6132 91.1158 11.9043C90.9104 12.2247 90.6406 12.4982 90.3238 12.7072C89.8904 13.0143 89.4302 13.2812 88.9489 13.5045C88.3989 13.7647 87.7114 14.0582 86.9249 14.3848C86.1267 14.7036 85.3606 15.0985 84.637 15.5642C84.1052 15.904 83.627 16.3221 83.2181 16.8044C82.8933 17.1891 82.6484 17.6352 82.4976 18.1167C82.3609 18.5708 82.2923 19.043 82.2941 19.5175C82.2829 20.1743 82.4241 20.8246 82.7066 21.4167C82.987 21.9749 83.3986 22.4558 83.9055 22.8175C84.4815 23.2223 85.1266 23.517 85.8085 23.6868C86.6392 23.8958 87.4932 23.9963 88.3494 23.9858C88.8626 23.9918 89.3751 23.9435 89.8783 23.8418C90.2614 23.7624 90.6382 23.655 91.0058 23.5207C91.3248 23.4044 91.5943 23.2992 91.8197 23.2051C91.9916 23.1204 92.1787 23.0714 92.3697 23.0611C92.5107 23.0616 92.6505 23.0879 92.7822 23.1386L93.2057 23.3214C93.3542 23.3823 93.5247 23.4432 93.7062 23.4985C93.9233 23.5558 94.1473 23.5819 94.3716 23.5761C94.596 23.5799 94.8194 23.5443 95.0316 23.4709C95.2197 23.4122 95.3952 23.3183 95.5486 23.194C95.6939 23.0687 95.8087 22.9115 95.8841 22.7345C95.9603 22.56 95.9997 22.3714 95.9996 22.1808C96.0033 22.0049 95.9811 21.8295 95.9336 21.6603C95.8896 21.5163 95.8401 21.3724 95.7906 21.2173C95.7411 21.0623 95.6971 20.8962 95.6531 20.7024C95.609 20.4558 95.5887 20.2055 95.5926 19.9549V13.0172C95.6003 12.205 95.4682 11.3976 95.2021 10.6308C94.9494 9.9066 94.5421 9.24699 94.0087 8.69847C93.4338 8.12728 92.7461 7.68399 91.9902 7.3973C91.076 7.06297 90.1083 6.90153 89.1358 6.92112C88.3164 6.91578 87.4985 6.99183 86.6939 7.14813M74.0059 23.5761C74.4245 23.5807 74.8402 23.5075 75.2324 23.3601C75.5787 23.2321 75.8911 23.0256 76.1453 22.7566C76.8394 22.0151 77.4568 21.2044 77.9878 20.337C78.5541 19.4085 79.031 18.4277 79.4122 17.408C79.8176 16.3209 80.1268 15.2 80.3362 14.0582C80.5589 12.8456 80.6694 11.6148 80.6662 10.3817C80.6825 9.81525 80.5891 9.25106 80.3912 8.7206C80.2392 8.31969 80.005 7.95556 79.7037 7.65199C79.4446 7.40066 79.1325 7.2114 78.7907 7.0983C78.4845 6.99181 78.1632 6.93573 77.8393 6.9322C77.5872 6.93199 77.3373 6.97893 77.1023 7.07062C76.8642 7.15776 76.6455 7.29135 76.4588 7.46374C76.2519 7.65324 76.0879 7.88529 75.9778 8.14417C75.8678 8.40305 75.8142 8.68271 75.8208 8.96423C75.8191 9.3079 75.8505 9.65094 75.9143 9.98855C75.9721 10.293 76.0455 10.5943 76.1343 10.8911C76.2223 11.1845 76.3213 11.478 76.4258 11.7659C76.5384 12.0727 76.6357 12.385 76.7173 12.7016C76.8126 13.0663 76.8879 13.436 76.9428 13.809C77.0059 14.2602 77.0353 14.7155 77.0308 15.1711C77.0275 15.5437 76.9851 15.9148 76.9043 16.2785C76.8186 16.6944 76.7085 17.1049 76.5743 17.5076C76.4391 17.9185 76.2812 18.3215 76.1013 18.7147C75.9409 19.0699 75.7572 19.4139 75.5514 19.7445C75.3843 20.0088 75.1868 20.2523 74.9629 20.4699C74.8215 20.6296 74.6247 20.7287 74.4129 20.7467C74.2768 20.7469 74.1434 20.7085 74.0279 20.636C73.9016 20.5509 73.813 20.4199 73.7804 20.2705L70.904 10.2543C70.7068 9.40357 70.2603 8.63202 69.6226 8.03958C69.0397 7.56181 68.306 7.31035 67.5547 7.33086C67.3388 7.32725 67.1242 7.36482 66.9222 7.44159C66.7565 7.50245 66.605 7.59664 66.4767 7.71843C66.3627 7.82751 66.276 7.96224 66.2237 8.11156C66.1699 8.25106 66.1419 8.3993 66.1412 8.54896C66.138 8.78488 66.1695 9.01998 66.2347 9.24661C66.2936 9.44642 66.369 9.64089 66.4602 9.82798L66.7462 10.3817C66.8569 10.6138 66.9489 10.8545 67.0212 11.1015L70.1066 22.1254C70.1994 22.5714 70.4544 22.9663 70.8215 23.2328C71.1956 23.4717 71.6327 23.5914 72.0755 23.5761H74.0059ZM59.525 15.016C59.6077 15.0101 59.6906 15.0265 59.765 15.0634C59.8395 15.1004 59.9028 15.1567 59.9484 15.2264C60.0332 15.3684 60.077 15.5314 60.0749 15.6971V18.7036C60.0877 19.1716 60.0112 19.6378 59.8494 20.0767C59.7167 20.4346 59.5063 20.7581 59.2335 21.0235C58.9772 21.273 58.6691 21.4621 58.3315 21.5772C57.9772 21.6976 57.6054 21.7575 57.2315 21.7544C56.94 21.7601 56.6502 21.7074 56.3791 21.5994C56.135 21.5012 55.9167 21.3478 55.7411 21.1509C55.5646 20.95 55.4317 20.7143 55.3506 20.4588C55.2553 20.1735 55.2088 19.8739 55.2131 19.5729C55.2123 19.1351 55.3003 18.7018 55.4716 18.2994C55.6534 17.8618 55.9062 17.4576 56.2196 17.1034C56.5774 16.7003 56.9817 16.3415 57.424 16.0348C57.9308 15.682 58.4705 15.3797 59.0355 15.1323C59.1825 15.0646 59.3414 15.027 59.503 15.0216M55.2076 7.13706C54.5426 7.26437 53.8985 7.48426 53.2937 7.79041C52.8047 8.03047 52.3774 8.38103 52.0452 8.81474C51.752 9.20496 51.5953 9.68197 51.5998 10.1713C51.5927 10.4868 51.6527 10.8002 51.7757 11.0904C51.878 11.3301 52.0321 11.5438 52.2267 11.7161C52.417 11.8784 52.6377 12.0008 52.8757 12.076C53.1157 12.1531 53.3662 12.1924 53.6182 12.1922C53.86 12.2066 54.1022 12.1712 54.33 12.0884C54.5579 12.0056 54.7666 11.8771 54.9436 11.7105C55.2685 11.3697 55.4767 10.9331 55.5376 10.4647C55.5661 10.2857 55.6379 10.1165 55.7466 9.97194C55.8632 9.80487 56.0107 9.66199 56.1811 9.55114C56.3808 9.41969 56.5998 9.32066 56.8301 9.25768C57.0976 9.17697 57.3758 9.13777 57.655 9.14141C58.2423 9.10335 58.8248 9.2695 59.305 9.61205C59.5024 9.76949 59.6594 9.97236 59.7628 10.2036C59.8662 10.4348 59.9128 10.6877 59.8989 10.9409C59.9029 11.2792 59.8155 11.6122 59.646 11.9043C59.4374 12.2221 59.1682 12.495 58.854 12.7072C58.4177 13.0096 57.9558 13.2727 57.4735 13.4934C56.9236 13.7536 56.2361 14.0471 55.4496 14.3738C54.6502 14.6938 53.8823 15.0886 53.1562 15.5531C52.626 15.893 52.1495 16.311 51.7427 16.7934C51.4181 17.179 51.1715 17.6247 51.0168 18.1056C50.8845 18.5606 50.8178 19.0324 50.8188 19.5064C50.8076 20.1632 50.9488 20.8135 51.2313 21.4056C51.5112 21.9625 51.9207 22.443 52.4247 22.8064C53.0033 23.2102 53.6499 23.5048 54.3331 23.6757C55.162 23.8848 56.0142 23.9853 56.8686 23.9747C57.3818 23.981 57.8943 23.9327 58.3975 23.8307C58.7825 23.752 59.1612 23.6446 59.5305 23.5096C59.8494 23.3952 60.1189 23.29 60.3389 23.194C60.5196 23.1069 60.7162 23.0579 60.9164 23.05C61.0556 23.0506 61.1936 23.0769 61.3234 23.1276L61.7469 23.3103C61.9009 23.3712 62.0659 23.4321 62.2529 23.4875C62.4681 23.5444 62.6903 23.5705 62.9128 23.565C63.1372 23.5688 63.3606 23.5332 63.5728 23.4598C63.7623 23.3938 63.9377 23.2924 64.0898 23.1608C64.2312 23.0307 64.3443 22.8725 64.4219 22.6962C64.4995 22.5199 64.54 22.3293 64.5408 22.1365C64.5445 21.9606 64.5222 21.7852 64.4748 21.616C64.4308 21.472 64.3813 21.3281 64.3318 21.1731C64.2823 21.018 64.2383 20.8519 64.1943 20.6581C64.1502 20.4115 64.1299 20.1612 64.1338 19.9106V13.0172C64.1383 12.2053 64.0062 11.3984 63.7433 10.6308C63.4887 9.90626 63.0794 9.24667 62.5443 8.69847C61.9713 8.12491 61.2831 7.68128 60.5259 7.3973C59.6136 7.0629 58.6477 6.90145 57.677 6.92112C56.8558 6.91578 56.036 6.99182 55.2296 7.14813M35.0509 16.511C35.0394 17.3779 35.1242 18.2433 35.3039 19.0912C35.4463 19.7737 35.6813 20.4332 36.0023 21.0512C36.2769 21.5707 36.6356 22.0404 37.0638 22.441C37.4587 22.8063 37.9054 23.1104 38.3892 23.3435C38.8676 23.5745 39.3743 23.7402 39.8962 23.8363C40.4202 23.9359 40.9523 23.986 41.4856 23.9858C42.3332 23.9992 43.1782 23.8873 43.9935 23.6536C44.6746 23.4571 45.318 23.1463 45.8965 22.7345C46.4252 22.351 46.8847 21.879 47.2549 21.3392C47.6224 20.794 47.9199 20.2043 48.1404 19.584C48.3712 18.9348 48.5334 18.263 48.6244 17.5796C48.7334 16.8723 48.7922 16.1581 48.8004 15.4424C48.8006 14.7402 48.7509 14.0389 48.6519 13.3439C48.5598 12.6659 48.4033 11.9984 48.1844 11.3506C47.9738 10.7314 47.6894 10.1402 47.3374 9.5899C46.9883 9.05122 46.5513 8.57576 46.045 8.18354C45.5053 7.77325 44.9011 7.45695 44.2575 7.24781C43.5051 7.01037 42.7196 6.89632 41.9311 6.91005C41.7462 6.91168 41.562 6.9321 41.3811 6.97096C41.1995 7.00688 41.0249 7.07232 40.8642 7.16474C40.7134 7.24864 40.5836 7.36606 40.4847 7.50804C40.3818 7.67349 40.3318 7.86678 40.3417 8.06173C40.3394 8.19167 40.3599 8.32097 40.4022 8.44376C40.4396 8.56295 40.4993 8.67385 40.5782 8.77045C40.6548 8.86511 40.7504 8.94245 40.8587 8.99745C40.9793 9.05969 41.1136 9.09017 41.2491 9.08604H41.4141H41.5516C41.8563 9.08427 42.1547 9.17286 42.4096 9.34075C42.6872 9.52481 42.9264 9.7618 43.1136 10.0384C43.3416 10.3634 43.5265 10.7171 43.6635 11.0904C43.8261 11.5193 43.9566 11.9597 44.054 12.4082C44.1604 12.9017 44.2393 13.4008 44.2905 13.9031C44.3458 14.4291 44.3734 14.9577 44.373 15.4867C44.3733 16.2664 44.32 17.0453 44.2135 17.8177C44.1247 18.5073 43.9548 19.1838 43.7075 19.8331C43.504 20.3695 43.1847 20.8536 42.7726 21.2506C42.3855 21.6151 41.8726 21.8137 41.3426 21.8043C40.9529 21.8256 40.5668 21.7187 40.2427 21.4997C39.9523 21.2867 39.7181 21.0054 39.5607 20.6803C39.3798 20.3089 39.2591 19.9107 39.2032 19.5009C39.1359 19.0334 39.1028 18.5615 39.1042 18.089V4.47383C39.1098 3.91483 39.0489 3.35717 38.9227 2.81276C38.8159 2.35707 38.6297 1.92404 38.3727 1.53375C38.145 1.19149 37.8396 0.908709 37.4818 0.708756C37.102 0.509329 36.6781 0.41025 36.2498 0.420827C36.0291 0.417502 35.8094 0.453108 35.6008 0.526029C35.4153 0.593337 35.2437 0.69472 35.0949 0.825026C34.9531 0.955428 34.8406 1.1147 34.7648 1.29227C34.6889 1.46983 34.6514 1.66161 34.6549 1.85488C34.6498 2.02493 34.6702 2.19479 34.7154 2.35874C34.7557 2.50269 34.7997 2.64665 34.8474 2.79061C34.9045 2.95195 34.9522 3.1165 34.9904 3.2834C35.0393 3.51444 35.0614 3.7504 35.0564 3.98658L35.0509 16.511ZM27.2302 15.016C27.3131 15.0089 27.3964 15.0247 27.471 15.0618C27.5457 15.0989 27.6088 15.1558 27.6536 15.2264C27.7426 15.3668 27.7885 15.5305 27.7856 15.6971V18.7036C27.7984 19.1716 27.7219 19.6378 27.5601 20.0767C27.4275 20.4346 27.217 20.7581 26.9442 21.0235C26.6879 21.273 26.3798 21.4621 26.0422 21.5772C25.6879 21.6976 25.3161 21.7575 24.9422 21.7544C24.6507 21.7601 24.3609 21.7074 24.0898 21.5994C23.8457 21.5012 23.6274 21.3478 23.4518 21.1509C23.2753 20.95 23.1424 20.7143 23.0613 20.4588C22.966 20.1735 22.9195 19.8739 22.9238 19.5729C22.923 19.1351 23.011 18.7018 23.1823 18.2994C23.3641 17.8618 23.6168 17.4576 23.9303 17.1034C24.2881 16.7003 24.6924 16.3415 25.1347 16.0348C25.6415 15.682 26.1812 15.3797 26.7462 15.1323C26.8915 15.0653 27.0485 15.0277 27.2082 15.0216M22.9513 7.13706C22.2863 7.26437 21.6422 7.48426 21.0374 7.79041C20.5475 8.02909 20.12 8.37989 19.7889 8.81474C19.4957 9.20496 19.339 9.68197 19.3435 10.1713C19.3364 10.4868 19.3964 10.8002 19.5194 11.0904C19.6217 11.3301 19.7758 11.5438 19.9704 11.7161C20.1607 11.8784 20.3814 12.0008 20.6194 12.076C20.8594 12.1531 21.1099 12.1924 21.3619 12.1922C21.6037 12.2066 21.8459 12.1712 22.0737 12.0884C22.3016 12.0056 22.5104 11.8771 22.6873 11.7105C23.0122 11.3697 23.2204 10.9331 23.2813 10.4647C23.311 10.287 23.3806 10.1185 23.4848 9.97194C23.605 9.80607 23.7541 9.6635 23.9248 9.55114C24.1245 9.41969 24.3435 9.32066 24.5738 9.25768C24.8413 9.17697 25.1195 9.13777 25.3987 9.14141C25.986 9.10335 26.5685 9.2695 27.0487 9.61205C27.2461 9.76949 27.4031 9.97236 27.5065 10.2036C27.6099 10.4348 27.6566 10.6877 27.6426 10.9409C27.6466 11.2792 27.5592 11.6122 27.3897 11.9043C27.1811 12.2221 26.9119 12.495 26.5977 12.7072C26.1414 13.0179 25.6571 13.2849 25.1512 13.5045C24.6013 13.7647 23.9193 14.0582 23.1328 14.3848C22.3334 14.7049 21.5655 15.0997 20.8394 15.5642C20.3076 15.904 19.8293 16.3221 19.4205 16.8044C19.0977 17.1905 18.853 17.6362 18.7 18.1167C18.5677 18.5717 18.501 19.0434 18.502 19.5175C18.4908 20.1743 18.632 20.8246 18.9145 21.4167C19.193 21.9745 19.6027 22.4554 20.1079 22.8175C20.6865 23.2213 21.3331 23.5159 22.0164 23.6868C22.8452 23.8958 23.6974 23.9963 24.5518 23.9858C25.065 23.9921 25.5775 23.9438 26.0807 23.8418C26.4657 23.7631 26.8444 23.6557 27.2137 23.5207C27.5326 23.4063 27.8021 23.3011 28.0221 23.2051C28.1944 23.1215 28.3812 23.0726 28.5721 23.0611C28.7113 23.0617 28.8493 23.088 28.9791 23.1386L29.4026 23.3214C29.5566 23.3823 29.7216 23.4432 29.9086 23.4985C30.1238 23.5555 30.346 23.5816 30.5685 23.5761C30.7929 23.5799 31.0163 23.5443 31.2285 23.4709C31.418 23.4049 31.5934 23.3035 31.7455 23.1719C31.8876 23.0448 32.0002 22.888 32.0755 22.7123C32.1517 22.5378 32.1911 22.3493 32.191 22.1586C32.1935 21.9832 32.1732 21.8082 32.1305 21.6382C32.0865 21.4942 32.037 21.3502 31.9875 21.1952C31.931 21.0266 31.8851 20.8546 31.85 20.6803C31.8059 20.4337 31.7856 20.1833 31.7895 19.9328V13.0172C31.794 12.2053 31.6619 11.3984 31.399 10.6308C31.1444 9.90626 30.7351 9.24667 30.2 8.69847C29.627 8.12491 28.9388 7.68128 28.1816 7.3973C27.2693 7.0629 26.3034 6.90145 25.3327 6.92112C24.5339 6.91643 23.7365 6.98875 22.9513 7.13706ZM2.34358 23.9415C2.49355 23.9251 2.64235 23.8992 2.78907 23.864L3.23455 23.7699C3.38855 23.7366 3.57004 23.7034 3.78453 23.6757C3.99902 23.648 4.25201 23.6204 4.5435 23.5982C4.83499 23.5761 5.20348 23.565 5.64346 23.565C6.08345 23.565 6.45743 23.565 6.92491 23.6314L8.37686 23.7754L9.9223 23.9138C10.4723 23.9526 10.9728 23.9747 11.4952 23.9747C12.4644 23.9983 13.4297 23.8445 14.3441 23.5207C15.0629 23.2644 15.7231 22.8652 16.2856 22.3469C16.7672 21.8927 17.1428 21.3368 17.3855 20.719C17.6151 20.1394 17.7345 19.5214 17.7375 18.8974C17.7459 18.4721 17.6731 18.0492 17.523 17.6516C17.4027 17.3112 17.2157 16.9987 16.973 16.7325C16.7344 16.4929 16.4501 16.3045 16.1371 16.1788C15.8178 16.0464 15.4758 15.9787 15.1306 15.9795C14.8185 15.9753 14.5085 16.0317 14.2176 16.1456C13.956 16.2445 13.7166 16.3951 13.5137 16.5885C13.3187 16.7767 13.1667 17.0053 13.0682 17.2585C12.9604 17.5276 12.9062 17.8154 12.9087 18.1056C12.9068 18.2773 12.9271 18.4486 12.9692 18.615C13.0132 18.7645 13.0572 18.9029 13.1067 19.0358C13.1562 19.1687 13.2057 19.3016 13.2497 19.4456C13.2956 19.6038 13.3178 19.768 13.3157 19.9328C13.3139 20.1505 13.2671 20.3655 13.1782 20.564C13.0773 20.7935 12.9225 20.9949 12.7272 21.1509C12.4862 21.3447 12.2123 21.4929 11.9187 21.5883C11.522 21.7128 11.1077 21.7708 10.6923 21.76C10.3898 21.76 10.0983 21.76 9.81781 21.7157C9.53732 21.6714 9.26783 21.6437 8.97634 21.5938C8.68485 21.544 8.42636 21.4831 8.11837 21.4222L7.2109 21.2118C7.1285 21.1958 7.04884 21.1678 6.97441 21.1287C6.87975 21.0881 6.79242 21.032 6.71592 20.9627C6.63337 20.8894 6.56284 20.8034 6.50693 20.708C6.44872 20.6013 6.42021 20.4808 6.42443 20.3591C6.42523 20.2696 6.4363 20.1804 6.45743 20.0934C6.4883 19.9875 6.53073 19.8853 6.58393 19.7888L15.1416 4.08624C15.2691 3.84551 15.4163 3.61587 15.5816 3.39967C15.7246 3.20588 15.8511 3.0287 15.9666 2.84598C16.0815 2.67326 16.1757 2.48739 16.2471 2.2923C16.3222 2.07918 16.3576 1.85392 16.3516 1.62786C16.352 1.46597 16.326 1.30511 16.2746 1.1517C16.2254 1.00376 16.1404 0.870518 16.0271 0.764111C15.8988 0.649147 15.7493 0.560722 15.5871 0.503877C15.3737 0.436391 15.1507 0.404603 14.9271 0.40976C14.1351 0.40976 13.3982 0.409751 12.7272 0.348845C12.0562 0.28794 11.3907 0.260255 10.7473 0.210423L8.78934 0.0664759C8.12937 0.0221809 7.4254 1.91515e-05 6.67193 1.91515e-05C6.09189 -0.00105895 5.51266 0.0433821 4.93949 0.132916C4.40038 0.216096 3.87012 0.349556 3.35555 0.531572C2.88032 0.699041 2.42623 0.922029 2.0026 1.19599C1.60106 1.45281 1.24274 1.77243 0.941139 2.14281C0.639576 2.50998 0.404963 2.928 0.248164 3.37752C0.0778233 3.86658 -0.0059466 4.38195 0.000670685 4.90016C-0.00807541 5.30314 0.0688066 5.70334 0.226164 6.07398C0.353354 6.37808 0.540447 6.65309 0.776144 6.88237C1.00412 7.09233 1.27153 7.25423 1.56261 7.35854C1.83649 7.45593 2.12463 7.50647 2.41508 7.50804C2.69147 7.51035 2.96639 7.46733 3.22905 7.38069C3.48606 7.30169 3.72653 7.17595 3.93853 7.00971C4.14454 6.848 4.31182 6.64174 4.42801 6.40619C4.55664 6.15279 4.62089 5.87126 4.615 5.58674C4.61754 5.43643 4.59523 5.28673 4.549 5.14378C4.50501 5.01644 4.46101 4.89463 4.41151 4.78389C4.36201 4.67315 4.31251 4.55689 4.27401 4.44615C4.23259 4.32315 4.21214 4.19397 4.21352 4.0641C4.20478 3.77199 4.27512 3.48298 4.41701 3.22803C4.55389 3.00198 4.74245 2.81214 4.96699 2.67434C5.20403 2.52089 5.46678 2.41207 5.74246 2.35319C6.04152 2.28156 6.34802 2.24625 6.65543 2.24801C7.20911 2.25096 7.76137 2.30469 8.30536 2.40856C8.86584 2.51081 9.4175 2.65707 9.9553 2.84598C10.0582 2.89082 10.153 2.95256 10.2358 3.02869C10.2872 3.08507 10.3265 3.15158 10.3511 3.22401C10.3757 3.29644 10.3851 3.37322 10.3788 3.4495C10.3743 3.5698 10.354 3.68897 10.3183 3.80387C10.2691 3.9665 10.2008 4.12263 10.1148 4.26896L1.22713 20.6415C1.109 20.8437 0.9805 21.0396 0.842143 21.2284C0.725305 21.3829 0.616977 21.5437 0.517653 21.7101C0.426089 21.8609 0.354009 22.0227 0.303161 22.1918C0.244589 22.3818 0.216733 22.5799 0.220663 22.7787C0.215354 22.9504 0.25164 23.1207 0.326382 23.2751C0.401124 23.4294 0.512074 23.5631 0.649647 23.6646C0.996342 23.9042 1.41227 24.0211 1.8321 23.9969C2.01598 23.9988 2.19976 23.9877 2.38208 23.9636" />
    </symbol>

    <symbol viewBox="0 0 46 33" id="logo-right">
        <path d="M1.87299 29.0687C1.65128 29.0687 1.44342 28.908 1.24943 28.5868C1.08314 28.2655 1 28.0112 1 27.8238C1 27.6364 1.08314 27.4357 1.24943 27.2215C1.41571 27.0073 1.58199 26.8735 1.74828 26.8199C1.85913 26.6861 2.08085 26.5255 2.41341 26.3381C2.74598 26.1507 3.09241 25.9767 3.45269 25.8161C3.81297 25.6554 4.0624 25.5751 4.20097 25.5751C4.22868 25.5751 4.24254 25.5885 4.24254 25.6153C4.27025 25.6153 4.28411 25.6153 4.28411 25.6153L4.32568 25.6554C4.32568 25.6822 4.22868 25.8027 4.03468 26.0168C3.8684 26.2042 3.75754 26.3247 3.70212 26.3782C3.56355 26.5656 3.43883 26.7798 3.32798 27.0207C3.24484 27.2617 3.17555 27.5026 3.12012 27.7435C3.03698 27.9845 2.88455 28.2655 2.66284 28.5868C2.46884 28.908 2.20556 29.0687 1.87299 29.0687Z" stroke="none" />
        <path d="M14.2355 32C13.0715 32 11.8937 31.8394 10.702 31.5181C9.53797 31.2237 8.55413 30.6883 7.75042 29.9119C6.97443 29.1624 6.58643 28.1049 6.58643 26.7396C6.58643 25.883 6.73886 25.0263 7.04371 24.1697C7.34857 23.313 7.72271 22.5099 8.16613 21.7604C8.52641 21.1179 9.03912 20.4218 9.70426 19.6723C10.3971 18.9227 11.1592 18.2133 11.9907 17.544C12.8221 16.8748 13.6812 16.326 14.5681 15.8977C15.4549 15.4426 16.2863 15.215 17.0623 15.215C17.2286 15.215 17.3395 15.3087 17.3949 15.4961C17.478 15.6835 17.6166 15.8441 17.8106 15.978C17.8937 16.0048 17.963 16.0315 18.0185 16.0583C18.1016 16.0583 18.1847 16.0851 18.2679 16.1386C18.4065 16.1921 18.4757 16.2725 18.4757 16.3795C18.4757 16.5134 18.3926 16.5803 18.2263 16.5803C18.0323 16.5803 17.8522 16.5535 17.6859 16.5C17.5473 16.4197 17.381 16.3795 17.187 16.3795C16.6605 16.3795 16.0508 16.5 15.3579 16.7409C14.6928 16.9551 14.1108 17.1826 13.6119 17.4236C12.5865 17.9054 11.6581 18.5747 10.8267 19.4313C10.023 20.288 9.37169 21.2517 8.87284 22.3225C8.4017 23.3934 8.16613 24.4909 8.16613 25.6153C8.16613 26.9003 8.52641 27.9041 9.24698 28.6269C9.99525 29.3765 10.9237 29.8985 12.0322 30.193C13.1685 30.4875 14.2909 30.6347 15.3995 30.6347C16.5912 30.6347 17.8799 30.4875 19.2656 30.193C20.679 29.8985 22.0647 29.4568 23.4227 28.8679C24.8084 28.2789 26.0555 27.5561 27.1641 26.6995C28.2726 25.8428 29.1595 24.8523 29.8246 23.728C30.5175 22.6036 30.8639 21.3588 30.8639 19.9935C30.8639 19.2172 30.6283 18.5345 30.1572 17.9456C29.6861 17.3566 29.0625 16.8212 28.2865 16.3394C27.5382 15.8575 26.7484 15.3756 25.917 14.8938C25.0855 14.4119 24.2818 13.9033 23.5058 13.3679C22.7576 12.8325 22.1479 12.2301 21.6767 11.5609C21.2056 10.8916 20.97 10.1019 20.97 9.19171C20.97 8.14767 21.2887 7.14378 21.9261 6.18005C22.5636 5.18955 23.3811 4.30613 24.3788 3.52979C25.4042 2.75345 26.4851 2.13774 27.6214 1.68264C28.7854 1.22755 29.8801 1 30.9055 1C31.626 1 32.2635 1.16062 32.8177 1.48186C33.372 1.77634 33.6492 2.32513 33.6492 3.12824C33.6492 3.44948 33.6076 3.7975 33.5245 4.17228L33.6076 4.25259C33.6907 4.17228 33.8432 3.98489 34.0649 3.69041C34.3143 3.36917 34.5499 3.0747 34.7716 2.80699C35.021 2.53929 35.1734 2.40544 35.2289 2.40544C35.312 2.40544 35.3536 2.44559 35.3536 2.52591C35.3536 2.55268 35.3397 2.56606 35.312 2.56606C34.8132 3.23532 34.439 3.89119 34.1896 4.53368C33.9402 5.1494 33.7046 5.85881 33.4829 6.66192C33.4829 6.71546 33.4413 6.74223 33.3582 6.74223C33.2473 6.74223 33.0949 6.68869 32.9009 6.58161C32.7346 6.47452 32.6515 6.36744 32.6515 6.26036C32.6515 5.88558 32.7069 5.52418 32.8177 5.17616C32.9563 4.82815 33.0256 4.48014 33.0256 4.13212C33.0256 3.7038 32.8732 3.38256 32.5683 3.16839C32.2912 2.95423 31.9448 2.82038 31.529 2.76684C31.141 2.68653 30.7669 2.64637 30.4066 2.64637C29.6861 2.64637 28.8824 2.76684 27.9955 3.00777C27.1364 3.24871 26.305 3.59672 25.5012 4.05181C24.6975 4.50691 24.0324 5.06908 23.5058 5.73834C22.9793 6.38083 22.716 7.10363 22.716 7.90674C22.716 8.57599 22.9377 9.16494 23.3811 9.67357C23.8245 10.1822 24.3511 10.6239 24.9608 10.9987C25.5705 11.3467 26.1387 11.668 26.6652 11.9624C27.4967 12.3908 28.3696 12.9128 29.2842 13.5285C30.2265 14.1442 31.0163 14.8536 31.6538 15.6567C32.3189 16.4598 32.6515 17.3834 32.6515 18.4275C32.6515 20.114 32.2635 21.6667 31.4875 23.0855C30.7115 24.4775 29.6722 25.7358 28.3696 26.8601C27.0671 27.9577 25.6121 28.8813 24.0047 29.6308C22.3973 30.4072 20.7483 30.9961 19.0577 31.3977C17.3672 31.7992 15.7598 32 14.2355 32Z" stroke="none" />
        <path d="M41.3418 11.1995C41.12 11.1995 40.7736 11.1192 40.3025 10.9585C39.8591 10.7712 39.6373 10.5436 39.6373 10.2759C39.6373 10.2491 39.6373 10.2358 39.6373 10.2358C39.6651 10.209 39.6789 10.1822 39.6789 10.1554C39.8175 9.88774 40.1223 9.72712 40.5935 9.67357C41.0923 9.62003 41.4665 9.53972 41.7159 9.43264C42.2702 9.21848 42.8106 9.04447 43.3372 8.91062C43.8637 8.77677 44.3626 8.53584 44.8337 8.18782C44.9446 8.24136 45 8.2949 45 8.34844C45 8.45553 44.8753 8.60276 44.6259 8.79016C44.4042 8.97755 44.2517 9.13817 44.1686 9.27202C44.0577 9.43264 43.8083 9.67358 43.4203 9.99482C43.06 10.2893 42.672 10.5704 42.2563 10.8381C41.8406 11.079 41.5357 11.1995 41.3418 11.1995ZM34.3162 28.5868C33.8728 28.5868 33.568 28.4797 33.4017 28.2655C33.2354 28.0514 33.1523 27.7435 33.1523 27.342C33.1523 26.4585 33.3324 25.3877 33.6927 24.1295C34.0807 22.8713 34.5103 21.5997 34.9814 20.3148C35.4525 19.003 35.8267 17.8385 36.1038 16.8212C36.2147 16.4465 36.4779 16.1921 36.8937 16.0583C37.3371 15.8977 37.7112 15.7103 38.0161 15.4961C38.4595 15.2016 38.9306 14.9607 39.4295 14.7733C39.9283 14.5592 40.4549 14.4521 41.0092 14.4521C41.1478 14.4521 41.2309 14.4788 41.2586 14.5324C41.314 14.5859 41.3418 14.6261 41.3418 14.6529C41.3418 14.8135 41.2448 14.8938 41.0508 14.8938C40.6628 14.8938 40.2609 15.1213 39.8452 15.5764C39.4295 16.0047 39.0138 16.5669 38.5981 17.263C38.1824 17.959 37.8082 18.6818 37.4756 19.4313C37.1431 20.1809 36.8521 20.8769 36.6027 21.5194C36.3532 22.1351 36.1869 22.5902 36.1038 22.8847C35.9652 23.313 35.8267 23.8217 35.6881 24.4106C35.5495 24.9728 35.4802 25.4948 35.4802 25.9767C35.4802 26.1641 35.5079 26.3916 35.5634 26.6593C35.6188 26.9003 35.7851 27.0207 36.0622 27.0207C36.2562 27.0207 36.4641 26.9538 36.6858 26.8199C37.2955 26.4719 37.8914 26.0035 38.4734 25.4145C39.0831 24.7988 39.6373 24.1429 40.1362 23.4469C40.6628 22.7241 41.0785 22.0682 41.3833 21.4793C41.4388 21.506 41.4665 21.5596 41.4665 21.6399C41.4665 21.8005 41.3695 22.0415 41.1755 22.3627C40.9815 22.6572 40.7598 22.9784 40.5103 23.3264C40.2609 23.6744 40.0253 23.9823 39.8036 24.25C39.6096 24.5177 39.5126 24.6783 39.5126 24.7319C39.4849 24.946 39.4433 25.1066 39.3879 25.2137C39.3325 25.294 39.2493 25.4413 39.1385 25.6554C38.8059 25.9767 38.3625 26.3782 37.8082 26.8601C37.2539 27.3152 36.6719 27.7168 36.0622 28.0648C35.4525 28.4128 34.8705 28.5868 34.3162 28.5868Z" stroke="none" />
        <path d="M1.87299 29.0687C1.65128 29.0687 1.44342 28.908 1.24943 28.5868C1.08314 28.2655 1 28.0112 1 27.8238C1 27.6364 1.08314 27.4357 1.24943 27.2215C1.41571 27.0073 1.58199 26.8735 1.74828 26.8199C1.85913 26.6861 2.08085 26.5255 2.41341 26.3381C2.74598 26.1507 3.09241 25.9767 3.45269 25.8161C3.81297 25.6554 4.0624 25.5751 4.20097 25.5751C4.22868 25.5751 4.24254 25.5885 4.24254 25.6153C4.27025 25.6153 4.28411 25.6153 4.28411 25.6153L4.32568 25.6554C4.32568 25.6822 4.22868 25.8027 4.03468 26.0168C3.8684 26.2042 3.75754 26.3247 3.70212 26.3782C3.56355 26.5656 3.43883 26.7798 3.32798 27.0207C3.24484 27.2617 3.17555 27.5026 3.12012 27.7435C3.03698 27.9845 2.88455 28.2655 2.66284 28.5868C2.46884 28.908 2.20556 29.0687 1.87299 29.0687Z" stroke-width="0.4" fill="none" />
        <path d="M14.2355 32C13.0715 32 11.8937 31.8394 10.702 31.5181C9.53797 31.2237 8.55413 30.6883 7.75042 29.9119C6.97443 29.1624 6.58643 28.1049 6.58643 26.7396C6.58643 25.883 6.73886 25.0263 7.04371 24.1697C7.34857 23.313 7.72271 22.5099 8.16613 21.7604C8.52641 21.1179 9.03912 20.4218 9.70426 19.6723C10.3971 18.9227 11.1592 18.2133 11.9907 17.544C12.8221 16.8748 13.6812 16.326 14.5681 15.8977C15.4549 15.4426 16.2863 15.215 17.0623 15.215C17.2286 15.215 17.3395 15.3087 17.3949 15.4961C17.478 15.6835 17.6166 15.8441 17.8106 15.978C17.8937 16.0048 17.963 16.0315 18.0185 16.0583C18.1016 16.0583 18.1847 16.0851 18.2679 16.1386C18.4065 16.1921 18.4757 16.2725 18.4757 16.3795C18.4757 16.5134 18.3926 16.5803 18.2263 16.5803C18.0323 16.5803 17.8522 16.5535 17.6859 16.5C17.5473 16.4197 17.381 16.3795 17.187 16.3795C16.6605 16.3795 16.0508 16.5 15.3579 16.7409C14.6928 16.9551 14.1108 17.1826 13.6119 17.4236C12.5865 17.9054 11.6581 18.5747 10.8267 19.4313C10.023 20.288 9.37169 21.2517 8.87284 22.3225C8.4017 23.3934 8.16613 24.4909 8.16613 25.6153C8.16613 26.9003 8.52641 27.9041 9.24698 28.6269C9.99525 29.3765 10.9237 29.8985 12.0322 30.193C13.1685 30.4875 14.2909 30.6347 15.3995 30.6347C16.5912 30.6347 17.8799 30.4875 19.2656 30.193C20.679 29.8985 22.0647 29.4568 23.4227 28.8679C24.8084 28.2789 26.0555 27.5561 27.1641 26.6995C28.2726 25.8428 29.1595 24.8523 29.8246 23.728C30.5175 22.6036 30.8639 21.3588 30.8639 19.9935C30.8639 19.2172 30.6283 18.5345 30.1572 17.9456C29.6861 17.3566 29.0625 16.8212 28.2865 16.3394C27.5382 15.8575 26.7484 15.3756 25.917 14.8938C25.0855 14.4119 24.2818 13.9033 23.5058 13.3679C22.7576 12.8325 22.1479 12.2301 21.6767 11.5609C21.2056 10.8916 20.97 10.1019 20.97 9.19171C20.97 8.14767 21.2887 7.14378 21.9261 6.18005C22.5636 5.18955 23.3811 4.30613 24.3788 3.52979C25.4042 2.75345 26.4851 2.13774 27.6214 1.68264C28.7854 1.22755 29.8801 1 30.9055 1C31.626 1 32.2635 1.16062 32.8177 1.48186C33.372 1.77634 33.6492 2.32513 33.6492 3.12824C33.6492 3.44948 33.6076 3.7975 33.5245 4.17228L33.6076 4.25259C33.6907 4.17228 33.8432 3.98489 34.0649 3.69041C34.3143 3.36917 34.5499 3.0747 34.7716 2.80699C35.021 2.53929 35.1734 2.40544 35.2289 2.40544C35.312 2.40544 35.3536 2.44559 35.3536 2.52591C35.3536 2.55268 35.3397 2.56606 35.312 2.56606C34.8132 3.23532 34.439 3.89119 34.1896 4.53368C33.9402 5.1494 33.7046 5.85881 33.4829 6.66192C33.4829 6.71546 33.4413 6.74223 33.3582 6.74223C33.2473 6.74223 33.0949 6.68869 32.9009 6.58161C32.7346 6.47452 32.6515 6.36744 32.6515 6.26036C32.6515 5.88558 32.7069 5.52418 32.8177 5.17616C32.9563 4.82815 33.0256 4.48014 33.0256 4.13212C33.0256 3.7038 32.8732 3.38256 32.5683 3.16839C32.2912 2.95423 31.9448 2.82038 31.529 2.76684C31.141 2.68653 30.7669 2.64637 30.4066 2.64637C29.6861 2.64637 28.8824 2.76684 27.9955 3.00777C27.1364 3.24871 26.305 3.59672 25.5012 4.05181C24.6975 4.50691 24.0324 5.06908 23.5058 5.73834C22.9793 6.38083 22.716 7.10363 22.716 7.90674C22.716 8.57599 22.9377 9.16494 23.3811 9.67357C23.8245 10.1822 24.3511 10.6239 24.9608 10.9987C25.5705 11.3467 26.1387 11.668 26.6652 11.9624C27.4967 12.3908 28.3696 12.9128 29.2842 13.5285C30.2265 14.1442 31.0163 14.8536 31.6538 15.6567C32.3189 16.4598 32.6515 17.3834 32.6515 18.4275C32.6515 20.114 32.2635 21.6667 31.4875 23.0855C30.7115 24.4775 29.6722 25.7358 28.3696 26.8601C27.0671 27.9577 25.6121 28.8813 24.0047 29.6308C22.3973 30.4072 20.7483 30.9961 19.0577 31.3977C17.3672 31.7992 15.7598 32 14.2355 32Z" stroke-width="0.4" fill="none" />
        <path d="M41.3418 11.1995C41.12 11.1995 40.7736 11.1192 40.3025 10.9585C39.8591 10.7712 39.6373 10.5436 39.6373 10.2759C39.6373 10.2491 39.6373 10.2358 39.6373 10.2358C39.6651 10.209 39.6789 10.1822 39.6789 10.1554C39.8175 9.88774 40.1223 9.72712 40.5935 9.67357C41.0923 9.62003 41.4665 9.53972 41.7159 9.43264C42.2702 9.21848 42.8106 9.04447 43.3372 8.91062C43.8637 8.77677 44.3626 8.53584 44.8337 8.18782C44.9446 8.24136 45 8.2949 45 8.34844C45 8.45553 44.8753 8.60276 44.6259 8.79016C44.4042 8.97755 44.2517 9.13817 44.1686 9.27202C44.0577 9.43264 43.8083 9.67358 43.4203 9.99482C43.06 10.2893 42.672 10.5704 42.2563 10.8381C41.8406 11.079 41.5357 11.1995 41.3418 11.1995ZM34.3162 28.5868C33.8728 28.5868 33.568 28.4797 33.4017 28.2655C33.2354 28.0514 33.1523 27.7435 33.1523 27.342C33.1523 26.4585 33.3324 25.3877 33.6927 24.1295C34.0807 22.8713 34.5103 21.5997 34.9814 20.3148C35.4525 19.003 35.8267 17.8385 36.1038 16.8212C36.2147 16.4465 36.4779 16.1921 36.8937 16.0583C37.3371 15.8977 37.7112 15.7103 38.0161 15.4961C38.4595 15.2016 38.9306 14.9607 39.4295 14.7733C39.9283 14.5592 40.4549 14.4521 41.0092 14.4521C41.1478 14.4521 41.2309 14.4788 41.2586 14.5324C41.314 14.5859 41.3418 14.6261 41.3418 14.6529C41.3418 14.8135 41.2448 14.8938 41.0508 14.8938C40.6628 14.8938 40.2609 15.1213 39.8452 15.5764C39.4295 16.0047 39.0138 16.5669 38.5981 17.263C38.1824 17.959 37.8082 18.6818 37.4756 19.4313C37.1431 20.1809 36.8521 20.8769 36.6027 21.5194C36.3532 22.1351 36.1869 22.5902 36.1038 22.8847C35.9652 23.313 35.8267 23.8217 35.6881 24.4106C35.5495 24.9728 35.4802 25.4948 35.4802 25.9767C35.4802 26.1641 35.5079 26.3916 35.5634 26.6593C35.6188 26.9003 35.7851 27.0207 36.0622 27.0207C36.2562 27.0207 36.4641 26.9538 36.6858 26.8199C37.2955 26.4719 37.8914 26.0035 38.4734 25.4145C39.0831 24.7988 39.6373 24.1429 40.1362 23.4469C40.6628 22.7241 41.0785 22.0682 41.3833 21.4793C41.4388 21.506 41.4665 21.5596 41.4665 21.6399C41.4665 21.8005 41.3695 22.0415 41.1755 22.3627C40.9815 22.6572 40.7598 22.9784 40.5103 23.3264C40.2609 23.6744 40.0253 23.9823 39.8036 24.25C39.6096 24.5177 39.5126 24.6783 39.5126 24.7319C39.4849 24.946 39.4433 25.1066 39.3879 25.2137C39.3325 25.294 39.2493 25.4413 39.1385 25.6554C38.8059 25.9767 38.3625 26.3782 37.8082 26.8601C37.2539 27.3152 36.6719 27.7168 36.0622 28.0648C35.4525 28.4128 34.8705 28.5868 34.3162 28.5868Z" stroke-width="0.4" fill="none" />
    </symbol>

    <symbol viewBox="0 0 11 13" id="header-location">
        <path d="M5.08387 12.8857C5.08387 12.8857 5.08414 12.8859 5.41667 12.4583L5.7492 12.8859C5.5536 13.038 5.27946 13.0379 5.08387 12.8857Z" />
        <path fill-rule="evenodd" clip-rule="evenodd" d="M5.41667 3.25C4.22005 3.25 3.25 4.22005 3.25 5.41667C3.25 6.61326 4.22005 7.58333 5.41667 7.58333C6.61326 7.58333 7.58333 6.61326 7.58333 5.41667C7.58333 4.22005 6.61326 3.25 5.41667 3.25ZM4.33333 5.41667C4.33333 4.81836 4.81834 4.33333 5.41667 4.33333C6.01499 4.33333 6.5 4.81836 6.5 5.41667C6.5 6.01499 6.01499 6.5 5.41667 6.5C4.81834 6.5 4.33333 6.01499 4.33333 5.41667Z" />
        <path fill-rule="evenodd" clip-rule="evenodd" d="M5.08387 12.8857L5.41667 12.4583C5.7492 12.8859 5.7492 12.8859 5.7492 12.8859L5.75082 12.8847L5.75418 12.882L5.76604 12.8727C5.77622 12.8646 5.7909 12.853 5.80981 12.8379C5.84751 12.8078 5.90205 12.7637 5.97095 12.7068C6.1087 12.5931 6.30419 12.428 6.53824 12.2199C7.00559 11.8045 7.63029 11.2147 8.25679 10.5186C8.88171 9.82426 9.51876 9.01279 10.002 8.1536C10.4825 7.29939 10.8333 6.35879 10.8333 5.41667C10.8333 3.98008 10.2626 2.60233 9.24685 1.5865C8.231 0.570684 6.85327 0 5.41667 0C3.98008 0 2.60233 0.570684 1.5865 1.5865C0.570684 2.60233 0 3.98008 0 5.41667C0 6.35879 0.350794 7.29939 0.83128 8.1536C1.31459 9.01279 1.95164 9.82426 2.57655 10.5186C3.20303 11.2147 3.82775 11.8045 4.29509 12.2199C4.52915 12.428 4.72463 12.5931 4.86238 12.7068C4.93128 12.7637 4.98582 12.8078 5.02352 12.8379C5.04243 12.853 5.05711 12.8646 5.06729 12.8727L5.07915 12.882L5.08251 12.8847L5.08387 12.8857ZM2.35254 2.35254C3.1652 1.53988 4.2674 1.08333 5.41667 1.08333C6.56592 1.08333 7.66816 1.53988 8.48082 2.35254C9.29343 3.1652 9.75 4.2674 9.75 5.41667C9.75 6.09955 9.49141 6.85165 9.05786 7.62244C8.62707 8.38825 8.04537 9.13407 7.45155 9.79387C6.85929 10.4519 6.26524 11.0132 5.81853 11.4103C5.66453 11.5471 5.52852 11.6641 5.41667 11.7584C5.30481 11.6641 5.1688 11.5471 5.0148 11.4103C4.56809 11.0132 3.97405 10.4519 3.38178 9.79387C2.78794 9.13407 2.20625 8.38825 1.77549 7.62244C1.34191 6.85165 1.08333 6.09955 1.08333 5.41667C1.08333 4.2674 1.53988 3.1652 2.35254 2.35254Z" />
    </symbol>

    <symbol viewBox="0 0 9 7" id="menu-arrow">
        <path fill-rule="evenodd" clip-rule="evenodd" d="M0.659114 2.56197C0.292463 2.18604 0.292463 1.58633 0.659114 1.2104C1.03895 0.82096 1.66503 0.82096 2.04487 1.2104L3.78412 2.99364C4.17656 3.39601 4.82344 3.39601 5.21588 2.99364L6.95513 1.2104C7.33497 0.82096 7.96105 0.82096 8.34089 1.2104C8.70754 1.58633 8.70754 2.18604 8.34089 2.56197L5.21588 5.76601C4.82344 6.16838 4.17656 6.16838 3.78412 5.76601L0.659114 2.56197Z" />
    </symbol>

    <symbol viewBox="0 0 19 20" id="header-search">
        <path fill-rule="evenodd" clip-rule="evenodd" d="M8.61911 1.85039C5.08235 1.85039 2.1834 4.78676 2.1834 8.44867C2.1834 12.1106 5.08235 15.0469 8.61911 15.0469C12.1559 15.0469 15.0548 12.1106 15.0548 8.44867C15.0548 4.78676 12.1559 1.85039 8.61911 1.85039ZM0.483398 8.44867C0.483398 3.88344 4.1083 0.150391 8.61911 0.150391C13.1299 0.150391 16.7548 3.88344 16.7548 8.44867C16.7548 10.5961 15.9527 12.5594 14.6337 14.0367L18.9387 18.4037L17.7281 19.5971L13.3758 15.1822C12.0402 16.166 10.3986 16.7469 8.61911 16.7469C4.1083 16.7469 0.483398 13.0139 0.483398 8.44867Z" />
    </symbol>

    <symbol viewBox="0 0 18 23" id="header-user">
        <path d="M15.3327 11.6523C15.2564 11.574 15.166 11.5119 15.0665 11.4698C14.967 11.4276 14.8605 11.4061 14.753 11.4065C14.6455 11.4068 14.5391 11.4291 14.4399 11.472C14.3408 11.515 14.2507 11.5776 14.175 11.6565C14.0992 11.7354 14.0393 11.829 13.9985 11.9319C13.9577 12.0347 13.9369 12.1449 13.9373 12.2561C13.9376 12.3672 13.9592 12.4773 14.0007 12.5798C14.0422 12.6824 14.1028 12.7755 14.1791 12.8538C14.8714 13.5622 15.4209 14.4056 15.7959 15.3352C16.1709 16.2648 16.3639 17.262 16.3636 18.2692C16.3636 19.3015 13.4918 20.8077 9.00001 20.8077C4.50821 20.8077 1.63641 19.3015 1.63641 18.2692C1.63511 17.2687 1.82448 16.2776 2.1937 15.3528C2.56292 14.4279 3.10475 13.5874 3.78822 12.8792C3.9406 12.7207 4.02614 12.5062 4.02614 12.2827C4.02614 12.0591 3.9406 11.8447 3.78822 11.6862C3.63492 11.5286 3.42755 11.4401 3.2114 11.4401C2.99525 11.4401 2.78788 11.5286 2.63458 11.6862C1.79604 12.5485 1.13137 13.5745 0.679131 14.7045C0.226888 15.8346 -0.00393308 17.0462 5.07007e-05 18.2692C5.07007e-05 21.0192 4.63912 22.5 9.00001 22.5C13.3609 22.5 18 21.0192 18 18.2692C18.0031 17.0383 17.7688 15.8191 17.3108 14.6829C16.8529 13.5467 16.1804 12.5164 15.3327 11.6523Z" />
        <path d="M9.00001 12.3462C10.1328 12.3462 11.2401 11.9988 12.1819 11.3479C13.1237 10.6971 13.8578 9.77204 14.2913 8.68974C14.7248 7.60744 14.8382 6.41651 14.6172 5.26754C14.3962 4.11858 13.8508 3.06319 13.0498 2.23483C12.2488 1.40647 11.2283 0.842356 10.1173 0.613813C9.00636 0.38527 7.8548 0.502566 6.80829 0.95087C5.76177 1.39917 4.8673 2.15835 4.23798 3.13239C3.60866 4.10644 3.27276 5.25161 3.27276 6.42308C3.27276 7.99398 3.87617 9.50054 4.95023 10.6113C6.0243 11.7221 7.48105 12.3462 9.00001 12.3462ZM9.00001 2.19231C9.80911 2.19231 10.6 2.44044 11.2728 2.90532C11.9455 3.37021 12.4699 4.03096 12.7795 4.80403C13.0891 5.57711 13.1701 6.42777 13.0123 7.24846C12.8544 8.06915 12.4648 8.823 11.8927 9.41469C11.3206 10.0064 10.5917 10.4093 9.7981 10.5726C9.00455 10.7358 8.18201 10.652 7.43449 10.3318C6.68698 10.0116 6.04807 9.46932 5.59856 8.77357C5.14905 8.07782 4.90912 7.25985 4.90912 6.42308C4.90912 5.30101 5.34012 4.2249 6.10731 3.43147C6.8745 2.63805 7.91504 2.19231 9.00001 2.19231Z" />
    </symbol>

    <symbol viewBox="0 0 26 26" id="footer-social-facebook">
        <path fill-rule="evenodd" clip-rule="evenodd" d="M12.9503 25.9999L12.962 26H12.958L12.9503 25.9999ZM13.042 26H13.038L13.0497 25.9999L13.042 26ZM12.9106 25.9997L12.9232 25.9998H12.916L12.9106 25.9997ZM13.084 25.9998H13.0768L13.0894 25.9997L13.084 25.9998ZM12.8723 25.9994L12.8807 25.9995L12.874 25.9994H12.8723ZM13.126 25.9994L13.1193 25.9995L13.1277 25.9994H13.126ZM13.1679 25.999L13.165 25.999L13.1763 25.9989L13.1679 25.999ZM12.8237 25.9989L12.835 25.999L12.8321 25.999L12.8237 25.9989ZM13.2098 25.9984L13.203 25.9985L13.2169 25.9983L13.2098 25.9984ZM12.7831 25.9983L12.797 25.9985L12.7902 25.9984L12.7831 25.9983ZM13.2517 25.9977L13.2424 25.9978L13.2553 25.9976L13.2517 25.9977ZM12.7447 25.9976L12.7576 25.9978L12.7483 25.9977L12.7447 25.9976ZM12.6971 25.9966L12.7085 25.9969L12.7065 25.9968L12.6971 25.9966ZM13.2935 25.9968L13.2915 25.9969L13.3029 25.9966L13.2935 25.9968ZM12.6553 25.9955L12.671 25.9959L12.6647 25.9958L12.6553 25.9955ZM13.3353 25.9958L13.329 25.9959L13.3447 25.9955L13.3353 25.9958ZM13.3771 25.9947L13.3669 25.995L13.3829 25.9945L13.3771 25.9947ZM12.6171 25.9945L12.6331 25.995L12.6229 25.9947L12.6171 25.9945ZM12.5805 25.9934L12.5919 25.9938L12.5812 25.9934L12.5713 25.9931L12.5805 25.9934ZM13.4188 25.9934L13.4081 25.9938L13.4195 25.9934L13.4287 25.9931L13.4188 25.9934ZM13.4605 25.992L13.4548 25.9922L13.4724 25.9916L13.4605 25.992ZM12.5276 25.9916L12.5452 25.9922L12.5395 25.992L12.5276 25.9916ZM12.4896 25.9902L12.508 25.9909L12.4978 25.9905L12.4896 25.9902ZM13.5022 25.9905L13.492 25.9909L13.5104 25.9902L13.5022 25.9905ZM12.4523 25.9887L12.4702 25.9894L12.4562 25.9889L12.4523 25.9887ZM13.5438 25.9889L13.5298 25.9894L13.5477 25.9887L13.5438 25.9889ZM12.4 25.9864L12.4193 25.9873L12.4145 25.9871L12.4 25.9864ZM13.5855 25.9871L13.5807 25.9873L13.6 25.9864L13.5855 25.9871ZM12.3624 25.9847L12.3824 25.9856L12.373 25.9852L12.3624 25.9847ZM13.627 25.9852L13.6176 25.9856L13.6376 25.9847L13.627 25.9852ZM12.3255 25.9828L12.3456 25.9838L12.3315 25.9831L12.3255 25.9828ZM13.6685 25.9831L13.6544 25.9838L13.6745 25.9828L13.6685 25.9831ZM13.7101 25.981L13.6917 25.9819L13.708 25.9811L13.7272 25.98L13.7101 25.981ZM12.292 25.9811L12.3083 25.9819L12.2899 25.981L12.2728 25.98L12.292 25.9811ZM13.7515 25.9786L13.7434 25.9791L13.764 25.9779L13.7515 25.9786ZM12.236 25.9779L12.2566 25.9791L12.2485 25.9786L12.236 25.9779ZM12.1993 25.9757L12.2199 25.9769L12.2071 25.9762L12.1993 25.9757ZM13.7929 25.9762L13.7801 25.9769L13.8007 25.9757L13.7929 25.9762ZM12.1643 25.9735L12.1829 25.9747L12.1656 25.9736L12.1482 25.9725L12.1643 25.9735ZM13.8344 25.9736L13.8171 25.9747L13.8357 25.9735L13.8518 25.9725L13.8344 25.9736ZM13.8757 25.971L13.8695 25.9714L13.8892 25.97L13.8757 25.971ZM12.1108 25.97L12.1305 25.9714L12.1243 25.971L12.1108 25.97ZM12.0742 25.9675L12.0935 25.9689L12.0829 25.9682L12.0742 25.9675ZM13.9171 25.9682L13.9065 25.9689L13.9258 25.9675L13.9171 25.9682ZM12.0377 25.9649L12.0554 25.9662L12.0417 25.9652L12.0377 25.9649ZM13.9583 25.9652L13.9446 25.9662L13.9623 25.9649L13.9583 25.9652ZM11.9886 25.9612L12.0041 25.9624L12.0004 25.9621L11.9886 25.9612ZM13.9996 25.9621L13.9959 25.9624L14.0114 25.9612L13.9996 25.9621ZM14.0408 25.9589L14.0334 25.9595L14.0492 25.9582L14.0408 25.9589ZM11.9508 25.9582L11.9666 25.9595L11.9592 25.9589L11.9508 25.9582ZM11.914 25.9552L11.9274 25.9563L11.918 25.9556L11.914 25.9552ZM14.082 25.9556L14.0726 25.9563L14.086 25.9552L14.082 25.9556ZM11.8735 25.9518L11.8775 25.9522L11.8768 25.9521L11.8735 25.9518ZM14.1232 25.9521L14.1225 25.9522L14.1265 25.9518L14.1232 25.9521ZM14.1643 25.9485L14.1607 25.9488L14.1698 25.948L14.1643 25.9485ZM11.8302 25.948L11.8393 25.9488L11.8357 25.9485L11.8302 25.948ZM11.7921 25.9445L11.7989 25.9452L11.7947 25.9448L11.7921 25.9445ZM14.2053 25.9448L14.2011 25.9452L14.2079 25.9445L14.2053 25.9448ZM10.9688 25.842C4.75724 24.8656 0 19.484 0 13C0 5.82513 5.82512 0 13 0C20.1749 0 26 5.82513 26 13C26 19.484 21.2428 24.8656 15.0312 25.842V16.7578H18.0604L18.6367 13H15.0312V10.5615C15.0312 9.53339 15.5349 8.53127 17.1498 8.53127H18.7891V5.33204C18.7891 5.33204 17.3014 5.07814 15.879 5.07814C12.9096 5.07814 10.9688 6.87783 10.9688 10.136V13H7.66797V16.7578H10.9688V25.842Z" />
    </symbol>

    <symbol viewBox="0 0 26 26" id="footer-social-instagram">
        <path fill-rule="evenodd" clip-rule="evenodd" d="M13 0C20.1749 0 26 5.82512 26 13C26 20.1749 20.1749 26 13 26C5.82512 26 0 20.1749 0 13C0 5.82512 5.82512 0 13 0ZM13 4.875C10.7934 4.875 10.5167 4.88434 9.65006 4.9239C8.78526 4.96336 8.19462 5.10072 7.67777 5.30156C7.1435 5.50921 6.69038 5.78703 6.23868 6.23873C5.78698 6.69043 5.50916 7.14355 5.30151 7.67782C5.10067 8.19462 4.96336 8.78526 4.92385 9.65006C4.88434 10.5167 4.875 10.7934 4.875 13C4.875 15.2066 4.88434 15.4833 4.92385 16.3499C4.96336 17.2147 5.10067 17.8054 5.30151 18.3222C5.50916 18.8564 5.78698 19.3096 6.23868 19.7613C6.69038 20.213 7.1435 20.4908 7.67777 20.6985C8.19462 20.8993 8.78526 21.0366 9.65006 21.0761C10.5167 21.1157 10.7934 21.125 13 21.125C15.2066 21.125 15.4833 21.1157 16.3499 21.0761C17.2147 21.0366 17.8054 20.8993 18.3222 20.6985C18.8564 20.4908 19.3096 20.213 19.7613 19.7613C20.213 19.3096 20.4908 18.8564 20.6985 18.3222C20.8993 17.8054 21.0366 17.2147 21.0761 16.3499C21.1157 15.4833 21.125 15.2066 21.125 13C21.125 10.7934 21.1157 10.5167 21.0761 9.65006C21.0366 8.78526 20.8993 8.19462 20.6985 7.67782C20.4908 7.14355 20.213 6.69043 19.7613 6.23873C19.3096 5.78703 18.8564 5.50921 18.3222 5.30156C17.8054 5.10072 17.2147 4.96336 16.3499 4.9239C15.4833 4.88434 15.2066 4.875 13 4.875ZM13 6.33897C15.1695 6.33897 15.4264 6.34725 16.2832 6.38635C17.0754 6.42251 17.5056 6.55484 17.7919 6.66611C18.1712 6.81347 18.4418 6.98958 18.7261 7.27391C19.0105 7.55818 19.1865 7.82889 19.3339 8.20813C19.4452 8.49443 19.5775 8.9246 19.6136 9.71679C19.6528 10.5736 19.661 10.8305 19.661 13C19.661 15.1695 19.6528 15.4264 19.6136 16.2832C19.5775 17.0754 19.4452 17.5056 19.3339 17.7919C19.1865 18.1712 19.0105 18.4418 18.7261 18.7261C18.4418 19.0105 18.1712 19.1865 17.7919 19.3339C17.5056 19.4452 17.0754 19.5775 16.2832 19.6136C15.4266 19.6528 15.1696 19.661 13 19.661C10.8304 19.661 10.5735 19.6528 9.71679 19.6136C8.9246 19.5775 8.49443 19.4452 8.20813 19.3339C7.82884 19.1865 7.55818 19.0105 7.27386 18.7261C6.98953 18.4418 6.81347 18.1712 6.66611 17.7919C6.55484 17.5056 6.42246 17.0754 6.3863 16.2832C6.3472 15.4264 6.33897 15.1695 6.33897 13C6.33897 10.8305 6.3472 10.5736 6.3863 9.71679C6.42246 8.9246 6.55484 8.49443 6.66611 8.20813C6.81347 7.82889 6.98953 7.55818 7.27386 7.27391C7.55818 6.98958 7.82884 6.81347 8.20813 6.66611C8.49443 6.55484 8.9246 6.42251 9.71679 6.38635C10.5736 6.34725 10.8305 6.33897 13 6.33897ZM13 8.82771C10.6957 8.82771 8.82771 10.6957 8.82771 13C8.82771 15.3043 10.6957 17.1723 13 17.1723C15.3043 17.1723 17.1723 15.3043 17.1723 13C17.1723 10.6957 15.3043 8.82771 13 8.82771ZM13 15.7083C11.5042 15.7083 10.2917 14.4958 10.2917 13C10.2917 11.5042 11.5042 10.2917 13 10.2917C14.4958 10.2917 15.7083 11.5042 15.7083 13C15.7083 14.4958 14.4958 15.7083 13 15.7083ZM18.3122 8.66288C18.3122 9.20136 17.8756 9.63782 17.3371 9.63782C16.7987 9.63782 16.3622 9.20136 16.3622 8.66288C16.3622 8.12439 16.7987 7.68787 17.3371 7.68787C17.8756 7.68787 18.3122 8.12439 18.3122 8.66288Z" />
    </symbol>

    <symbol viewBox="0 0 20 16" id="icon-ticket">
        <path d="M11.8 4.5V3.625M11.8 8.4375V7.5625M11.8 12.375V11.5M16.12 1H3.88C2.87191 1 2.36782 1 1.9828 1.19074C1.64413 1.35851 1.36873 1.62623 1.1962 1.95552C1 2.32986 1 2.81991 1 3.8V4.9375C2.7397 4.9375 4.15 6.30863 4.15 8C4.15 9.69137 2.7397 11.0625 1 11.0625V12.2C1 13.1801 1 13.6702 1.1962 14.0445C1.36873 14.3738 1.64413 14.6415 1.9828 14.8092C2.36782 15 2.87191 15 3.88 15H16.12C17.1281 15 17.6321 15 18.0172 14.8092C18.3559 14.6415 18.6312 14.3738 18.8038 14.0445C19 13.6702 19 13.1801 19 12.2V11.0625C17.2603 11.0625 15.85 9.69137 15.85 8C15.85 6.30863 17.2603 4.9375 19 4.9375V3.8C19 2.81991 19 2.32986 18.8038 1.95552C18.6312 1.62623 18.3559 1.35851 18.0172 1.19074C17.6321 1 17.1281 1 16.12 1Z" stroke-width="1.4" stroke-linecap="round" stroke-linejoin="round" />
    </symbol>

    <symbol viewBox="0 0 13 19" id="icon-free">
        <path d="M8.40041 2.305L8.86212 2.27693L9.32578 2.2834L8.86212 3.38682H8.73938L8.32248 3.42353L7.90947 3.49263L7.50231 3.59412L7.10489 3.72583L6.71331 3.88994L6.33342 4.08212L5.96717 4.30237L5.61651 4.55286L5.28142 4.82709L4.96193 5.12724L4.66581 5.4533L4.38917 5.79879L4.13591 6.16803L3.90603 6.55239L3.69953 6.95619L3.5203 7.37294L3.36835 7.80264H6.96462L6.49122 8.91038H3.10924L3.05664 9.35088L3.02937 9.79354V10.2384L3.05664 10.681L3.07612 11.0478H5.51131L5.03791 12.1534H3.33523L3.5203 12.6568L3.69953 13.0757L3.90603 13.4795L4.52165 14.1434L3.90603 15.2999L3.61381 14.9284L3.33328 14.5225L3.07612 14.0949L2.84624 13.6501L2.64169 13.1902L2.46635 12.7151L2.28518 12.1534H0L0.4734 11.0478H2.06698L2.05335 10.6789L2.02997 10.2384V9.79354L2.05335 9.35088L2.1001 8.91038H0.0331185L0.506518 7.8048H2.31829L2.46635 7.31679L2.64169 6.84174L2.84624 6.38181L3.07612 5.93698L3.33328 5.50944L3.61381 5.10348L3.91967 4.71696L4.24696 4.3542L4.59763 4.01734L4.96583 3.7064L5.35156 3.42353L5.75288 3.16873L6.16978 2.94416L6.59837 2.75198L7.0367 2.59003L7.48673 2.46047L7.94064 2.36762L8.40041 2.305Z" />
        <path d="M6.25698 17.1251L6.71331 16.1419L7.10489 16.3039L7.50231 16.4356L7.90947 16.5371L8.32248 16.6062L8.73938 16.645L9.15629 16.6493L9.57319 16.6191L9.98815 16.5608L10.3953 16.4701L10.7986 16.347L11.1921 16.1937L11.5759 16.0102L12.0025 17.0078L11.5778 17.2129L11.1434 17.3857L10.6973 17.526L10.2434 17.634L9.78554 17.7074L9.32578 17.7484L8.86212 17.7549L8.40041 17.7268L7.94064 17.6642L7.48673 17.5692L7.0367 17.4397L6.59837 17.2799L6.25698 17.1251Z" />
        <path d="M11.5038 3.82474L12.0025 2.79287L13 3.3088L12.5013 4.34067L11.5038 3.82474Z" />
        <path fill-rule="evenodd" clip-rule="evenodd" d="M12.0057 0.958154L4.52486 18.5L3.52101 18.0418L11.0019 0.5L12.0057 0.958154Z" />
        <path d="M10.0076 7.95221H12.0025L11.5038 8.98408H9.5089L10.0076 7.95221Z" />
        <path d="M8.51145 11.0478H10.0076L9.5089 12.0797H8.01273L8.51145 11.0478Z" />
    </symbol>

    <symbol viewBox="0 0 17 18" id="icon-schedule">
        <path fill-rule="evenodd" clip-rule="evenodd" d="M8.5 2.2C4.74446 2.2 1.7 5.24446 1.7 9C1.7 12.7556 4.74446 15.8 8.5 15.8C12.2556 15.8 15.3 12.7556 15.3 9C15.3 5.24446 12.2556 2.2 8.5 2.2ZM0 9C0 4.30558 3.80558 0.5 8.5 0.5C13.1944 0.5 17 4.30558 17 9C17 13.6944 13.1944 17.5 8.5 17.5C3.80558 17.5 0 13.6944 0 9ZM8.35414 4.54376C8.8236 4.54376 9.20414 4.92431 9.20414 5.39376V9.61582L12.202 10.7555C12.6409 10.9223 12.8614 11.4132 12.6945 11.852C12.5277 12.2909 12.0368 12.5114 11.598 12.3445L8.05213 10.9967C7.72225 10.8712 7.50414 10.555 7.50414 10.2021V5.39376C7.50414 4.92431 7.88469 4.54376 8.35414 4.54376Z" />
    </symbol>

    <symbol viewBox="0 0 26 23" id="icon-favourite">
        <path d="M22.1106 2.63072C21.0811 1.66895 19.7599 1.17199 18.4254 1.21332C16.7688 1.21332 15.0968 1.92064 13.8741 3.23332L13.0036 4.16431L12.1331 3.23332C10.9091 1.92064 9.23885 1.21332 7.58183 1.21332C6.24737 1.21332 4.9275 1.66941 3.85861 2.63072C1.11281 5.10128 0.975387 9.50641 3.45076 12.1657L11.9877 21.3379C12.2701 21.6383 12.6324 21.7899 12.9992 21.7899C13.3674 21.7899 13.7367 21.6398 14.0159 21.3396L22.5485 12.1674C25.0314 9.50366 24.8944 5.09899 22.1106 2.63072ZM21.028 10.6335L13.0036 19.2591L4.97655 10.6335C3.55195 9.10407 3.21436 6.08648 5.24697 4.29751C7.01005 2.71109 9.42665 3.49374 10.6113 4.76462L13.0049 7.33301L15.3981 4.76462C16.5656 3.51211 18.9888 2.70283 20.7625 4.29751C22.7734 6.10944 22.4818 9.07192 21.028 10.6335Z" />
    </symbol>

    <symbol viewBox="0 0 50 50" id="slider-prev">
        <path fill-rule="evenodd" clip-rule="evenodd" d="M20.839 25.7074C20.4485 25.3168 20.4485 24.6837 20.839 24.2931L29.0005 16.1316C29.3129 15.8192 29.3129 15.3127 29.0005 15.0003C28.6881 14.6878 28.1816 14.6878 27.8691 15.0003L18.5762 24.2931C18.1857 24.6837 18.1857 25.3168 18.5763 25.7074L27.8691 35.0002C28.1816 35.3126 28.6881 35.3126 29.0005 35.0002C29.3129 34.6878 29.3129 34.1812 29.0005 33.8688L20.839 25.7074Z" />
    </symbol>

    <symbol viewBox="0 0 50 50" id="slider-next">
        <path fill-rule="evenodd" clip-rule="evenodd" d="M30.2274 24.2926C30.6179 24.6832 30.6179 25.3163 30.2274 25.7069L22.0659 33.8684C21.7535 34.1808 21.7535 34.6873 22.0659 34.9997C22.3783 35.3122 22.8848 35.3122 23.1973 34.9997L32.4902 25.7069C32.8807 25.3163 32.8807 24.6832 32.4902 24.2926L23.1973 14.9998C22.8848 14.6874 22.3783 14.6874 22.0659 14.9998C21.7535 15.3122 21.7535 15.8188 22.0659 16.1312L30.2274 24.2926Z" />
    </symbol>

    <symbol viewBox="0 0 12 22" id="main-section-title">
        <path fill-rule="evenodd" clip-rule="evenodd" d="M8.72741 10.2936C9.11794 10.6841 9.11794 11.3173 8.72741 11.7078L0.565893 19.8694C0.253473 20.1818 0.253474 20.6883 0.565893 21.0007C0.878312 21.3131 1.38484 21.3131 1.69726 21.0007L10.9902 11.7078C11.3807 11.3173 11.3807 10.6841 10.9902 10.2936L1.69726 1.00078C1.38484 0.688361 0.878309 0.688363 0.565891 1.00078C0.253473 1.3132 0.253474 1.81974 0.565895 2.13215L8.72741 10.2936Z" />
    </symbol>

    <symbol viewBox="0 0 7 10" id="icon-all">
        <path fill-rule="evenodd" clip-rule="evenodd" d="M2.56197 8.84089C2.18604 9.20754 1.58633 9.20754 1.2104 8.84089C0.82096 8.46105 0.82096 7.83497 1.2104 7.45513L2.99364 5.71588C3.39601 5.32344 3.39601 4.67656 2.99364 4.28412L1.2104 2.54487C0.82096 2.16503 0.82096 1.53895 1.2104 1.15911C1.58632 0.792462 2.18604 0.792462 2.56197 1.15911L5.76601 4.28412C6.16838 4.67656 6.16838 5.32344 5.76601 5.71588L2.56197 8.84089Z" />
    </symbol>

    <symbol viewBox="0 0 33 33" id="detail-media-info-date">
        <path d="M27.7778 7H5.22222C3.44264 7 2 8.43269 2 10.2V27.8C2 29.5673 3.44264 31 5.22222 31H27.7778C29.5574 31 31 29.5673 31 27.8V10.2C31 8.43269 29.5574 7 27.7778 7Z" fill="none" stroke-width="2" />
        <path d="M2 13C2 10.1716 2 8.75736 2.94377 7.87869C3.88753 7 5.4065 7 8.44444 7H24.5556C27.5935 7 29.1124 7 30.0562 7.87869C31 8.75736 31 10.1716 31 13H2Z" stroke="none"/>
        <path d="M9 2V7" fill="none" stroke-width="2" stroke-linecap="round" />
        <path d="M25 2V7" fill="none" stroke-width="2" stroke-linecap="round" />
        <path d="M14.125 17H8.875C8.39175 17 8 17.3358 8 17.75V19.25C8 19.6642 8.39175 20 8.875 20H14.125C14.6082 20 15 19.6642 15 19.25V17.75C15 17.3358 14.6082 17 14.125 17Z" stroke="none" />
        <path d="M14.125 23H8.875C8.39175 23 8 23.3358 8 23.75V25.25C8 25.6642 8.39175 26 8.875 26H14.125C14.6082 26 15 25.6642 15 25.25V23.75C15 23.3358 14.6082 23 14.125 23Z" stroke="none" />
        <path d="M24.125 17H18.875C18.3918 17 18 17.3358 18 17.75V19.25C18 19.6642 18.3918 20 18.875 20H24.125C24.6082 20 25 19.6642 25 19.25V17.75C25 17.3358 24.6082 17 24.125 17Z" stroke="none" />
        <path d="M24.125 23H18.875C18.3918 23 18 23.3358 18 23.75V25.25C18 25.6642 18.3918 26 18.875 26H24.125C24.6082 26 25 25.6642 25 25.25V23.75C25 23.3358 24.6082 23 24.125 23Z" stroke="none" />
    </symbol>

    <symbol viewBox="0 0 33 33" id="detail-media-info-place">
        <path fill-rule="evenodd" clip-rule="evenodd" d="M6.88889 12.75C6.88889 7.64056 11.2366 3 17 3C22.7635 3 27.1111 7.64056 27.1111 12.75C27.1111 15.9674 25.2156 19.5609 22.7209 22.8917C20.7493 25.524 18.5561 27.7994 17 29.3916C15.4439 27.7994 13.2506 25.524 11.2791 22.8917C8.78442 19.5609 6.88889 15.9674 6.88889 12.75ZM17 0C9.76343 0 4 5.85944 4 12.75C4 17.0326 6.4378 21.3141 8.99872 24.7333C11.2148 27.6922 13.7058 30.2361 15.2628 31.826C15.5311 32.1002 15.7719 32.346 15.9786 32.5606C16.2495 32.8419 16.6169 33 17 33C17.3831 33 17.7505 32.8419 18.0214 32.5606C18.2281 32.346 18.4689 32.1002 18.7372 31.8261C20.2941 30.2361 22.7851 27.6922 25.0014 24.7333C27.5622 21.3141 30 17.0326 30 12.75C30 5.85944 24.2365 0 17 0ZM17 17.25C18.9943 17.25 20.6111 15.571 20.6111 13.5C20.6111 11.4289 18.9943 9.75 17 9.75C15.0057 9.75 13.3889 11.4289 13.3889 13.5C13.3889 15.571 15.0057 17.25 17 17.25Z" stroke="none" />
    </symbol>

    <symbol viewBox="0 0 33 33" id="detail-media-info-price">
        <path d="M19.2 11V9.75M19.2 16.625V15.375M19.2 22.25V21M25.68 6H7.32C5.80787 6 5.05173 6 4.4742 6.27249C3.96619 6.51216 3.5531 6.89461 3.2943 7.36503C3 7.8998 3 8.59987 3 10V11.625C5.60955 11.625 7.725 13.5838 7.725 16C7.725 18.4162 5.60955 20.375 3 20.375V22C3 23.4001 3 24.1003 3.2943 24.635C3.5531 25.1054 3.96619 25.4879 4.4742 25.7275C5.05173 26 5.80787 26 7.32 26H25.68C27.1921 26 27.9482 26 28.5258 25.7275C29.0338 25.4879 29.4469 25.1054 29.7057 24.635C30 24.1003 30 23.4001 30 22V20.375C27.3904 20.375 25.275 18.4162 25.275 16C25.275 13.5838 27.3904 11.625 30 11.625V10C30 8.59987 30 7.8998 29.7057 7.36503C29.4469 6.89461 29.0338 6.51216 28.5258 6.27249C27.9482 6 27.1921 6 25.68 6Z" fill="none" stroke-width="3" stroke-linecap="round" stroke-linejoin="round" />
    </symbol>

    <symbol viewBox="0 0 33 33" id="detail-media-info-phone">
        <path d="M19.4166 10.0833C20.2767 10.2511 21.1303 10.6304 21.7499 11.25C22.3696 11.8696 22.7488 12.7233 22.9166 13.5833M19.9999 6C21.7867 6.1985 23.3946 7.06292 24.6666 8.33334C25.9386 9.60376 26.7992 11.2135 26.9999 13M26.9994 21.7228V24.8842C27.0043 26.0927 25.9176 27.1019 24.6975 26.9918C14.1667 27 5.99999 18.7575 6.00824 8.29739C5.89835 7.08378 6.9025 6.00124 8.10946 6.0001H11.2771C11.7895 5.99506 12.2863 6.17617 12.6749 6.50965C13.7795 7.45774 14.49 10.6757 14.2166 11.955C14.0032 12.9538 12.9964 13.6525 12.3119 14.3356C13.815 16.9739 16.0037 19.1583 18.6472 20.6585C19.3317 19.9753 20.0319 18.9706 21.0326 18.7575C22.3164 18.4843 25.555 19.1957 26.4993 20.308C26.8343 20.7025 27.0122 21.206 26.9994 21.7228Z" fill="none" stroke-width="3" stroke-linecap="round" stroke-linejoin="round" />
    </symbol>

    <symbol viewBox="0 0 33 33" id="detail-media-info-cinema">
        <path fill-rule="evenodd" clip-rule="evenodd" d="M8.23077 10H25.7692C25.8916 10 26.009 9.94732 26.0956 9.85355C26.1821 9.75979 26.2308 9.63261 26.2308 9.5V7.5C26.2308 7.36739 26.1821 7.24021 26.0956 7.14645C26.009 7.05268 25.8916 7 25.7692 7H8.23077C8.10836 7 7.99097 7.05268 7.90441 7.14645C7.81786 7.24021 7.76923 7.36739 7.76923 7.5V9.5C7.76923 9.63261 7.81786 9.75979 7.90441 9.85355C7.99097 9.94732 8.10836 10 8.23077 10ZM27.1538 13H6.84615C6.35652 13 5.88695 12.7893 5.54073 12.4142C5.19451 12.0391 5 11.5304 5 11V6C5 5.46957 5.19451 4.96086 5.54073 4.58579C5.88695 4.21071 6.35652 4 6.84615 4H27.1538C27.6435 4 28.1131 4.21071 28.4593 4.58579C28.8055 4.96086 29 5.46957 29 6V11C29 11.5304 28.8055 12.0391 28.4593 12.4142C28.1131 12.7893 27.6435 13 27.1538 13Z" stroke="none" />
        <path fill-rule="evenodd" clip-rule="evenodd" d="M8.23077 27H25.7692C25.8916 27 26.009 26.9473 26.0956 26.8536C26.1821 26.7598 26.2308 26.6326 26.2308 26.5V24.5C26.2308 24.3674 26.1821 24.2402 26.0956 24.1464C26.009 24.0527 25.8916 24 25.7692 24H8.23077C8.10836 24 7.99097 24.0527 7.90441 24.1464C7.81786 24.2402 7.76923 24.3674 7.76923 24.5V26.5C7.76923 26.6326 7.81786 26.7598 7.90441 26.8536C7.99097 26.9473 8.10836 27 8.23077 27ZM27.1538 30H6.84615C6.35652 30 5.88695 29.7893 5.54073 29.4142C5.19451 29.0391 5 28.5304 5 28V23C5 22.4696 5.19451 21.9609 5.54073 21.5858C5.88695 21.2107 6.35652 21 6.84615 21H27.1538C27.6435 21 28.1131 21.2107 28.4593 21.5858C28.8055 21.9609 29 22.4696 29 23V28C29 28.5304 28.8055 29.0391 28.4593 29.4142C28.1131 29.7893 27.6435 30 27.1538 30Z" stroke="none" />
        <path fill-rule="evenodd" clip-rule="evenodd" d="M29.6875 19H25.3125C24.9644 19 24.6306 18.842 24.3844 18.5607C24.1383 18.2794 24 17.8978 24 17.5V16.5C24 16.1022 24.1383 15.7206 24.3844 15.4393C24.6306 15.158 24.9644 15 25.3125 15H29.6875C30.0356 15 30.3694 15.158 30.6156 15.4393C30.8617 15.7206 31 16.1022 31 16.5V17.5C31 17.8978 30.8617 18.2794 30.6156 18.5607C30.3694 18.842 30.0356 19 29.6875 19Z" stroke="none" />
        <path fill-rule="evenodd" clip-rule="evenodd" d="M19.6875 19H15.3125C14.9644 19 14.6306 18.842 14.3844 18.5607C14.1383 18.2794 14 17.8978 14 17.5V16.5C14 16.1022 14.1383 15.7206 14.3844 15.4393C14.6306 15.158 14.9644 15 15.3125 15H19.6875C20.0356 15 20.3694 15.158 20.6156 15.4393C20.8617 15.7206 21 16.1022 21 16.5V17.5C21 17.8978 20.8617 18.2794 20.6156 18.5607C20.3694 18.842 20.0356 19 19.6875 19Z" stroke="none" />
        <path fill-rule="evenodd" clip-rule="evenodd" d="M9.5 19H4.5C4.10218 19 3.72064 18.842 3.43934 18.5607C3.15804 18.2794 3 17.8978 3 17.5V16.5C3 16.1022 3.15804 15.7206 3.43934 15.4393C3.72064 15.158 4.10218 15 4.5 15H9.5C9.89782 15 10.2794 15.158 10.5607 15.4393C10.842 15.7206 11 16.1022 11 16.5V17.5C11 17.8978 10.842 18.2794 10.5607 18.5607C10.2794 18.842 9.89782 19 9.5 19Z" stroke="none" />
    </symbol>

    <symbol viewBox="0 0 33 33" id="detail-media-info-home">
        <path fill-rule="evenodd" clip-rule="evenodd" d="M17.3288 2.28087C16.8413 1.90638 16.1587 1.90638 15.6712 2.28087L3.52118 11.6142C3.19233 11.8668 3 12.2552 3 12.6667V27.3333C3 28.8061 4.20883 30 5.7 30H27.3C28.7912 30 30 28.8061 30 27.3333V12.6667C30 12.2552 29.8076 11.8668 29.4788 11.6142L17.3288 2.28087ZM21.9 27.3333H27.3V13.3188L16.5 5.02248L5.7 13.3188V27.3333H11.1V16.6667C11.1 15.9303 11.7044 15.3333 12.45 15.3333H20.55C21.2956 15.3333 21.9 15.9303 21.9 16.6667V27.3333ZM13.8 27.3333V18H19.2V27.3333H13.8Z" stroke="none" />
    </symbol>

    <symbol viewBox="0 0 33 33" id="detail-media-info-size">
        <path d="M32.3125 27.5C32.6922 27.5 33 27.8078 33 28.1875V32C33 32.5523 32.5523 33 32 33H28.1875C27.8078 33 27.5 32.6922 27.5 32.3125C27.5 31.9328 27.1922 31.625 26.8125 31.625H6.1875C5.8078 31.625 5.5 31.9328 5.5 32.3125C5.5 32.6922 5.1922 33 4.8125 33H1C0.447715 33 0 32.5523 0 32V28.1875C0 27.8078 0.307804 27.5 0.6875 27.5C1.0672 27.5 1.375 27.1922 1.375 26.8125V6.1875C1.375 5.8078 1.0672 5.5 0.6875 5.5C0.307804 5.5 0 5.1922 0 4.8125V1C0 0.447715 0.447715 0 1 0H4.8125C5.1922 0 5.5 0.307804 5.5 0.6875C5.5 1.0672 5.8078 1.375 6.1875 1.375H26.8125C27.1922 1.375 27.5 1.0672 27.5 0.6875C27.5 0.307804 27.8078 0 28.1875 0H32C32.5523 0 33 0.447715 33 1V4.8125C33 5.1922 32.6922 5.5 32.3125 5.5C31.9328 5.5 31.625 5.8078 31.625 6.1875V26.8125C31.625 27.1922 31.9328 27.5 32.3125 27.5ZM1.375 30.625C1.375 31.1773 1.82272 31.625 2.375 31.625H3.125C3.67728 31.625 4.125 31.1773 4.125 30.625V29.875C4.125 29.3227 3.67728 28.875 3.125 28.875H2.375C1.82272 28.875 1.375 29.3227 1.375 29.875V30.625ZM4.125 2.375C4.125 1.82272 3.67728 1.375 3.125 1.375H2.375C1.82272 1.375 1.375 1.82272 1.375 2.375V3.125C1.375 3.67728 1.82272 4.125 2.375 4.125H3.125C3.67728 4.125 4.125 3.67728 4.125 3.125V2.375ZM27.5 4.8125C27.5 4.4328 27.1922 4.125 26.8125 4.125H6.1875C5.8078 4.125 5.5 4.4328 5.5 4.8125C5.5 5.1922 5.1922 5.5 4.8125 5.5C4.4328 5.5 4.125 5.8078 4.125 6.1875V26.8125C4.125 27.1922 4.4328 27.5 4.8125 27.5C5.1922 27.5 5.5 27.8078 5.5 28.1875C5.5 28.5672 5.8078 28.875 6.1875 28.875H26.8125C27.1922 28.875 27.5 28.5672 27.5 28.1875C27.5 27.8078 27.8078 27.5 28.1875 27.5C28.5672 27.5 28.875 27.1922 28.875 26.8125V6.1875C28.875 5.8078 28.5672 5.5 28.1875 5.5C27.8078 5.5 27.5 5.1922 27.5 4.8125ZM31.625 2.375C31.625 1.82272 31.1773 1.375 30.625 1.375H29.875C29.3227 1.375 28.875 1.82272 28.875 2.375V3.125C28.875 3.67728 29.3227 4.125 29.875 4.125H30.625C31.1773 4.125 31.625 3.67728 31.625 3.125V2.375ZM29.875 28.875C29.3227 28.875 28.875 29.3227 28.875 29.875V30.625C28.875 31.1773 29.3227 31.625 29.875 31.625H30.625C31.1773 31.625 31.625 31.1773 31.625 30.625V29.875C31.625 29.3227 31.1773 28.875 30.625 28.875H29.875Z" stroke="none" />
    </symbol>

    <symbol viewBox="0 0 33 33" id="detail-media-info-count">
        <path d="M14.6667 2C11.463 2 8.83333 4.62999 8.83333 7.83215C8.83333 9.55976 9.5997 11.12 10.8077 12.1914C6.24696 13.8799 3 18.4681 3 23.7782C3.00003 24.1906 3.16398 24.5862 3.45578 24.8778C3.74759 25.1694 4.14336 25.3333 4.55604 25.3333H12.0411C12.3471 24.2031 12.837 23.1517 13.4828 22.2232H6.23522C6.9234 17.8545 10.4612 14.6084 14.6667 14.6084C15.2495 14.6084 15.8188 14.6728 16.3702 14.7919C16.5595 12.8917 17.9067 11.3159 19.6893 10.7826C20.2035 9.91527 20.5 8.90611 20.5 7.83215C20.5 4.62999 17.8704 2 14.6667 2ZM14.6667 5.11017C16.1875 5.11017 17.3879 6.30989 17.3879 7.83215C17.3879 9.3544 16.1875 10.5543 14.6667 10.5543C13.1458 10.5543 11.9453 9.3544 11.9453 7.83215C11.9453 6.30989 13.1458 5.11017 14.6667 5.11017Z" stroke="none" />
        <path d="M21.6654 11.333C19.1024 11.333 16.9987 13.437 16.9987 15.9988C16.9987 17.3808 17.6118 18.629 18.5782 19.4861C14.9296 20.837 12.332 24.5075 12.332 28.7556C12.3321 29.0855 12.4632 29.4019 12.6967 29.6353C12.9301 29.8686 13.2467 29.9996 13.5768 29.9997H21.6654H29.7538C30.084 29.9997 30.4006 29.8686 30.634 29.6353C30.8675 29.402 30.9987 29.0855 30.9987 28.7556C30.9987 24.5075 28.4012 20.837 24.7526 19.4861C25.719 18.629 26.332 17.3808 26.332 15.9988C26.332 13.437 24.2283 11.333 21.6654 11.333ZM21.6654 13.8212C22.8821 13.8212 23.8424 14.781 23.8424 15.9988C23.8424 17.2166 22.8821 18.1765 21.6654 18.1765C20.4487 18.1765 19.4883 17.2166 19.4883 15.9988C19.4883 14.781 20.4487 13.8212 21.6654 13.8212ZM21.6654 21.4197C25.0297 21.4197 27.86 24.0166 28.4105 27.5115H21.6654H14.9202C15.4708 24.0166 18.301 21.4197 21.6654 21.4197Z" stroke="none" />
    </symbol>

    <symbol viewBox="0 0 105 100" id="detail-media-video">
        <path d="M39 60.6486V39.7555C39 36.7153 42.2576 34.7864 44.9233 36.2483L63.6968 46.5434C66.4463 48.0512 66.4706 51.9924 63.7399 53.534L44.9664 64.1319C42.2999 65.6372 39 63.7106 39 60.6486Z" stroke-width="4" />
    </symbol>

    <symbol viewBox="0 0 31 30" id="icon-pdf">
        <path d="M5.16641 13V12H4.13307V13H5.16641ZM13.4331 13V12H12.3997V13H13.4331ZM13.4331 21H12.3997V22H13.4331V21ZM27.8997 7H28.9331V6.58578L28.6305 6.2929L27.8997 7ZM21.6997 1L22.4305 0.292894L22.1277 0H21.6997V1ZM5.16641 14H7.23307V12H5.16641V14ZM6.19974 22V17H4.13307V22H6.19974ZM6.19974 17V13H4.13307V17H6.19974ZM7.23307 16H5.16641V18H7.23307V16ZM8.26641 15C8.26641 15.5523 7.80376 16 7.23307 16V18C8.94516 18 10.3331 16.6569 10.3331 15H8.26641ZM7.23307 14C7.80376 14 8.26641 14.4477 8.26641 15H10.3331C10.3331 13.3431 8.94516 12 7.23307 12V14ZM12.3997 13V21H14.4664V13H12.3997ZM13.4331 22H15.4997V20H13.4331V22ZM18.5997 19V15H16.5331V19H18.5997ZM15.4997 12H13.4331V14H15.4997V12ZM18.5997 15C18.5997 13.3431 17.2118 12 15.4997 12V14C16.0704 14 16.5331 14.4477 16.5331 15H18.5997ZM15.4997 22C17.2118 22 18.5997 20.6568 18.5997 19H16.5331C16.5331 19.5523 16.0704 20 15.4997 20V22ZM20.6664 12V22H22.7331V12H20.6664ZM21.6997 14H26.8664V12H21.6997V14ZM21.6997 18H24.7997V16H21.6997V18ZM4.13307 10V3H2.06641V10H4.13307ZM26.8664 7V10H28.9331V7H26.8664ZM5.16641 2H21.6997V0H5.16641V2ZM20.969 1.70711L27.169 7.7071L28.6305 6.2929L22.4305 0.292894L20.969 1.70711ZM4.13307 3C4.13307 2.44772 4.59572 2 5.16641 2V0C3.45432 0 2.06641 1.34315 2.06641 3H4.13307ZM2.06641 24V27H4.13307V24H2.06641ZM5.16641 30H25.8331V28H5.16641V30ZM28.9331 27V24H26.8664V27H28.9331ZM25.8331 30C27.5451 30 28.9331 28.6568 28.9331 27H26.8664C26.8664 27.5522 26.4037 28 25.8331 28V30ZM2.06641 27C2.06641 28.6568 3.45432 30 5.16641 30V28C4.59572 28 4.13307 27.5522 4.13307 27H2.06641Z" />
    </symbol>

    <symbol viewBox="0 0 9 9" id="filters-search-close">
        <path fill-rule="evenodd" clip-rule="evenodd" d="M0.658778 2.06162C0.292127 1.68569 0.292127 1.08597 0.658778 0.710049C1.03861 0.320609 1.6647 0.320609 2.04453 0.710049L3.78378 2.49329C4.17623 2.89566 4.8231 2.89566 5.21555 2.49329L6.9548 0.710049C7.33463 0.320609 7.96072 0.320609 8.34055 0.710049C8.7072 1.08597 8.7072 1.68569 8.34055 2.06162L5.21555 5.26566C4.8231 5.66803 4.17623 5.66803 3.78378 5.26566L0.658778 2.06162Z" />
        <path fill-rule="evenodd" clip-rule="evenodd" d="M8.34055 6.93768C8.7072 7.3136 8.7072 7.91332 8.34055 8.28925C7.96072 8.67869 7.33463 8.67869 6.9548 8.28925L5.21555 6.50601C4.8231 6.10364 4.17623 6.10364 3.78378 6.50601L2.04453 8.28925C1.6647 8.67869 1.03861 8.67869 0.658777 8.28925C0.292127 7.91332 0.292126 7.31361 0.658777 6.93768L3.78378 3.73364C4.17623 3.33127 4.8231 3.33127 5.21554 3.73364L8.34055 6.93768Z" />
    </symbol>

    <symbol viewBox="0 0 9 6" id="filters-select">
        <path fill-rule="evenodd" clip-rule="evenodd" d="M0.659114 2.06197C0.292463 1.68604 0.292463 1.08633 0.659114 0.710401C1.03895 0.32096 1.66503 0.32096 2.04487 0.710401L3.78412 2.49364C4.17656 2.89601 4.82344 2.89601 5.21588 2.49364L6.95513 0.710401C7.33497 0.32096 7.96105 0.32096 8.34089 0.710401C8.70754 1.08633 8.70754 1.68604 8.34089 2.06197L5.21588 5.26601C4.82344 5.66838 4.17656 5.66838 3.78412 5.26601L0.659114 2.06197Z" />
    </symbol>

    <symbol viewBox="0 0 22 22" id="window-close">
        <path d="M8.27516 10.1894C8.86095 10.7752 8.86095 11.7249 8.27516 12.3107L1.14648 19.4394C0.755959 19.8299 0.755961 20.4631 1.14648 20.8536C1.53701 21.2441 2.17017 21.2441 2.5607 20.8536L9.68938 13.7249C10.2752 13.1391 11.2249 13.1391 11.8107 13.7249L18.9394 20.8536C19.3299 21.2441 19.9631 21.2441 20.3536 20.8536C20.7441 20.4631 20.7441 19.8299 20.3536 19.4394L13.2249 12.3107C12.6391 11.7249 12.6391 10.7752 13.2249 10.1894L20.3536 3.0607C20.7441 2.67017 20.7441 2.03701 20.3536 1.64648C19.9631 1.25596 19.3299 1.25596 18.9394 1.64648L11.8107 8.77516C11.2249 9.36095 10.2752 9.36095 9.68938 8.77516L2.5607 1.64648C2.17017 1.25596 1.53701 1.25596 1.14648 1.64648C0.75596 2.03701 0.75596 2.67017 1.14648 3.0607L8.27516 10.1894Z" />
    </symbol>

    <symbol viewBox="0 0 9 16" id="window-auth-social-facebook">
        <path d="M5.64286 16V8.88889H7.92857L8.5 5.92593H5.64286V4.74074C5.64286 3.55556 6.21543 2.96296 7.35714 2.96296H8.5V0C7.92857 0 7.22 0 6.21429 0C4.11429 0 2.78571 1.70726 2.78571 4.14815V5.92593H0.5V8.88889H2.78571V16H5.64286Z" />
    </symbol>

    <symbol viewBox="0 0 16 16" id="window-auth-social-google">
        <path d="M8.15111 6.85501C8.14747 7.76408 8.15111 8.6731 8.15479 9.58212C9.61231 9.63179 11.0734 9.60883 12.5309 9.63179C11.888 13.012 7.49 14.1082 5.16313 11.9006C2.77047 9.96409 2.88371 5.71683 5.37133 3.91785C7.1101 2.46643 9.58308 2.82545 11.3218 4.08208C12.0049 3.42132 12.6441 2.7147 13.2615 1.98136C11.8149 0.774403 10.0397 -0.0849935 8.15111 0.00669913C4.20971 -0.130814 0.586065 3.4786 0.520332 7.59985C0.26826 10.9686 2.38693 14.2725 5.37865 15.4642C8.35936 16.6635 12.1803 15.8461 14.0834 13.0464C15.34 11.278 15.6103 9.0016 15.4642 6.86266C13.024 6.84355 10.5876 6.84735 8.15111 6.85501Z" />
    </symbol>

    <symbol viewBox="0 0 12 10" id="page-map-list-item-link">
        <path fill-rule="evenodd" clip-rule="evenodd" d="M8.06197 8.84089C7.68604 9.20754 7.08633 9.20754 6.7104 8.84089C6.32096 8.46105 6.32096 7.83497 6.7104 7.45513L8.49364 5.71588C8.89601 5.32344 8.89601 4.67656 8.49364 4.28412L6.7104 2.54487C6.32096 2.16503 6.32096 1.53895 6.7104 1.15911C7.08632 0.792462 7.68604 0.792462 8.06197 1.15911L11.266 4.28412C11.6684 4.67656 11.6684 5.32344 11.266 5.71588L8.06197 8.84089Z" />
        <path fill-rule="evenodd" clip-rule="evenodd" d="M0 5C0 4.44772 0.447715 4 1 4H8C8.55229 4 9 4.44772 9 5C9 5.55228 8.55229 6 8 6H1C0.447715 6 0 5.55228 0 5Z" />
    </symbol>

    <symbol viewBox="0 0 16 16" id="filters-date">
        <path d="M4 7.2C4 6.75816 4.35818 6.4 4.8 6.4C5.24182 6.4 5.6 6.75816 5.6 7.2C5.6 7.64184 5.24182 8 4.8 8C4.35818 8 4 7.64184 4 7.2Z" />
        <path d="M4 11.2C4 10.7582 4.35818 10.4 4.8 10.4C5.24182 10.4 5.6 10.7582 5.6 11.2C5.6 11.6418 5.24182 12 4.8 12C4.35818 12 4 11.6418 4 11.2Z" />
        <path d="M7.2 7.2C7.2 6.75816 7.55816 6.4 8 6.4C8.44184 6.4 8.8 6.75816 8.8 7.2C8.8 7.64184 8.44184 8 8 8C7.55816 8 7.2 7.64184 7.2 7.2Z" />
        <path d="M7.2 11.2C7.2 10.7582 7.55816 10.4 8 10.4C8.44184 10.4 8.8 10.7582 8.8 11.2C8.8 11.6418 8.44184 12 8 12C7.55816 12 7.2 11.6418 7.2 11.2Z" />
        <path d="M10.4 7.2C10.4 6.75816 10.7582 6.4 11.2 6.4C11.6418 6.4 12 6.75816 12 7.2C12 7.64184 11.6418 8 11.2 8C10.7582 8 10.4 7.64184 10.4 7.2Z" />
        <path d="M10.4 11.2C10.4 10.7582 10.7582 10.4 11.2 10.4C11.6418 10.4 12 10.7582 12 11.2C12 11.6418 11.6418 12 11.2 12C10.7582 12 10.4 11.6418 10.4 11.2Z" />
        <path fill-rule="evenodd" clip-rule="evenodd" d="M4.8 0C5.24182 0 5.6 0.358176 5.6 0.8V1.6H10.4V0.8C10.4 0.358176 10.7582 0 11.2 0C11.6418 0 12 0.358176 12 0.8V1.6C14.2091 1.6 16 3.39086 16 5.6V12C16 14.2091 14.2091 16 12 16H4C1.79086 16 0 14.2091 0 12V5.6C0 3.39086 1.79086 1.6 4 1.6V0.8C4 0.358176 4.35818 0 4.8 0ZM4 3.2C2.67452 3.2 1.6 4.27452 1.6 5.6V12C1.6 13.3255 2.67452 14.4 4 14.4H12C13.3255 14.4 14.4 13.3255 14.4 12V5.6C14.4 4.27452 13.3255 3.2 12 3.2C12 3.64183 11.6418 4 11.2 4C10.7582 4 10.4 3.64183 10.4 3.2H5.6C5.6 3.64183 5.24182 4 4.8 4C4.35818 4 4 3.64183 4 3.2Z" />
    </symbol>

    <symbol viewBox="0 0 35 22" id="menu-burger-link">
        <path fill-rule="evenodd" clip-rule="evenodd" d="M34.5 1C34.5 1.55228 34.0523 2 33.5 2H1C0.447715 2 0 1.55228 0 1C0 0.447715 0.447715 0 1 0H33.5C34.0523 0 34.5 0.447715 34.5 1Z" />
        <path fill-rule="evenodd" clip-rule="evenodd" d="M34.5 11C34.5 11.5523 34.0523 12 33.5 12H1C0.447715 12 0 11.5523 0 11C0 10.4477 0.447715 10 1 10H33.5C34.0523 10 34.5 10.4477 34.5 11Z" />
        <path fill-rule="evenodd" clip-rule="evenodd" d="M34.5 21C34.5 21.5523 34.0523 22 33.5 22H1C0.447715 22 0 21.5523 0 21C0 20.4477 0.447715 20 1 20H33.5C34.0523 20 34.5 20.4477 34.5 21Z" />
    </symbol>

    <symbol viewBox="0 0 35 26" id="menu-burger-close">
        <path fill-rule="evenodd" clip-rule="evenodd" d="M29.4476 25.1978C29.0571 25.5884 28.4239 25.5884 28.0334 25.1978L5.05241 2.21687C4.66188 1.82635 4.66188 1.19318 5.05241 0.802659C5.44293 0.412135 6.0761 0.412134 6.46662 0.802659L29.4476 23.7836C29.8381 24.1742 29.8381 24.8073 29.4476 25.1978Z" />
        <path fill-rule="evenodd" clip-rule="evenodd" d="M5.05217 25.1982C4.66165 24.8077 4.66165 24.1746 5.05217 23.784L28.0331 0.803061C28.4237 0.412537 29.0568 0.412537 29.4474 0.803061C29.8379 1.19359 29.8379 1.82675 29.4474 2.21727L6.46638 25.1982C6.07586 25.5888 5.44269 25.5888 5.05217 25.1982Z" />
    </symbol>

</svg>