<svg width="20" height="14" viewBox="0 0 20 14" fill="none" xmlns="http://www.w3.org/2000/svg">
<g clip-path="url(#clip0_701_9271)">
<path fill-rule="evenodd" clip-rule="evenodd" d="M-146.708 -115.053C-149 -111.899 -149 -107.399 -149 -98.4V-21.6C-149 -12.6006 -149 -8.10096 -146.708 -4.94658C-145.968 -3.92784 -145.072 -3.03195 -144.053 -2.29179C-140.899 0 -136.399 0 -127.4 0H0.666656L7.50385 10.2558C8.69131 12.037 11.3087 12.037 12.4962 10.2558L19.3333 0H147.4C156.399 0 160.899 0 164.053 -2.29179C165.072 -3.03195 165.968 -3.92784 166.708 -4.94658C169 -8.10096 169 -12.6006 169 -21.6V-98.4C169 -107.399 169 -111.899 166.708 -115.053C165.968 -116.072 165.072 -116.968 164.053 -117.708C160.899 -120 156.399 -120 147.4 -120H-127.4C-136.399 -120 -140.899 -120 -144.053 -117.708C-145.072 -116.968 -145.968 -116.072 -146.708 -115.053Z" fill="white"/>
</g>
<defs>
<clipPath id="clip0_701_9271">
<rect width="20" height="14" fill="white"/>
</clipPath>
</defs>
</svg>
